<svg xmlns="http://www.w3.org/2000/svg"  viewBox="0 0 48 48" width="48px" height="48px"><path d="M14.421 35.751c.513.373 1.075.673 1.68.887 1.807 3.445 5.396 6.361 7.901 6.361 2.431 0 5.344-2.771 6.912-6.1.991-.176 1.884-.575 2.663-1.137-1.585 4.764-6.16 9.24-9.575 9.24C20.575 45.002 16 40.522 14.421 35.751zM20.003 38.999c1.131-.644 2.177-2 3-2 .656 0 .631 1 1 1 .369 0 .344-1 1-1 .823 0 1.869 1.356 3 2-.935.92-1.913 2-3 2h-2C21.916 40.999 20.937 39.919 20.003 38.999zM12.001 28.499c0-2.955 1.032-7.5 4.335-7.5 3.363 0 5.171 1.003 7.121 2.457l.544.415.544-.415c1.953-1.455 3.764-2.457 7.129-2.457 3.315 0 4.335 4.573 4.335 7.5 0 3.86-2.547 7.5-6.251 7.5-2.283 0-4.401-2-5.756-2-1.339 0-3.483 2-5.751 2C14.547 35.999 12.001 32.359 12.001 28.499zM24.003 32.999c1.745 0 3.751 2 5.756 2 2.856 0 5.107-2.783 5.244-6.173-.087-1.416-1.223-2.505-3.101-2.765-.223.552-.763.941-1.393.941-.828 0-1.5-.673-1.5-1.501 0-.828.672-1.501 1.5-1.501 1.708 0 3.38.623 4.361 2.603-.357-2.405-1.401-4.603-3.195-4.603-3.511 0-5.105 1.143-7.367 2.896-.18.14-.432.14-.612 0-2.26-1.753-3.851-2.896-7.36-2.896-1.787 0-2.839 2.187-3.196 4.604.98-1.981 2.653-2.604 4.363-2.604.828 0 1.5.673 1.5 1.501 0 .828-.672 1.501-1.5 1.501-.631 0-1.171-.389-1.393-.941-1.88.26-3.016 1.349-3.103 2.765.137 3.391 2.387 6.173 5.245 6.173C20.225 34.999 22.287 32.999 24.003 32.999zM16.003 28.999c.615-.688 1.947-1 3-1 1.209 0 2.289 2 3 3C19.003 30.999 17.003 30.999 16.003 28.999zM29.008 27.999c1.053 0 2.385.312 3 1-1 2-3 2-6 2C26.719 29.999 27.799 27.999 29.008 27.999zM43 26.501c0-.212.044-.415.124-.597-1.787-.401-3.123-1.997-3.123-3.904 0-.041 0-.084.001-.127.039-3.495 1.695-3.947 2.531-5.193.524-.22 1.016-.553 1.42-.985-.089.609-.299 1.107-.589 1.541-.348.52-.843.967-1.144 1.277-.519.533-1.063 1.183-1.189 2.755-.028.456-.035.916-.028 1.377.06.068.123.135.188.199l.252-.779c.451-1.172 1.177-1.935 1.852-2.611.977-.98 1.708-1.669 1.708-3.455 0-.393-.121-.871-.345-1.359.189-.419.309-.888.339-1.401.645.908 1.007 1.935 1.007 2.76 0 4.048-3.328 3.841-3.913 7.513.569.311 1.221.487 1.915.487 1.863 0 3.429-1.273 3.875-2.997.083.32.125.653.125.997 0 1.597-.937 2.976-2.291 3.617.181.248.289.555.289.884 0 .828-.673 1.501-1.501 1.501C43.673 28.002 43 27.329 43 26.501zM2.002 25.499c0-.329.107-.636.288-.884-1.352-.641-2.288-2.02-2.288-3.616 0-.344.043-.677.125-.997.445 1.724 2.012 2.997 3.875 2.997.683 0 1.327-.171 1.889-.473-.736-3.516-4.888-2.483-4.888-6.527 0-1.943 1.611-3.723 3-5 .667-.489 1.357-.92 2.076-1.272-.051.411-.076.833-.076 1.272 0 2.865 2.552 5 5.455 5 1.161 0 2.357-.335 3.231-1.195.92 1.416 1.717 2.844 2.424 4.28.592-4.793 1.524-10.2 3.891-12.085 1.625-1.164 3.556-2 6-2 .949 0 1.977.717 2.549 1.616.811-1.6 2.452-2.616 4.451-2.616 1.157 0 4.336 1.82 6 3 .837.593 1 1.773 1 3v3.647c.636-.509 1-1.512 1-2.647 1.083.379 2 1.057 2 2 0 1.851-1.588 3-3 3-1.811 0-4-1.577-4-3v-5c0-.128-.015-.261-.041-.396-1.136.835-1.959 2.101-1.959 3.396l-.001 2.22c-1.256 1.189-2.301 2.616-3.196 4.152.143-.476.197-.984.197-1.372 0-1.879-1.031-3.416-2.287-4.699-.156-.156-.339-.248-.351-.231l-.364-.069.001-3.001c0-.859-1.145-2-2-2-1.096 0-2.077.187-2.972.505l-.637.257.395.328c.656.659 1.071 1.543 1.333 2.445.492 1.693.596 3.84.864 5.283.1.544.269 1.179.519 1.652.269.511.457.529.499.529h2v-5c1.187 1.212 2 2.509 2 4 0 .745-.255 2-1 2h-3c-.249 0-.471-.073-.667-.203.191.56.947 1.203 1.667 1.203h2c.124 0 .243-.013.34-.036l.088-.027c.44-.172.611-.297.751-.439.012-.012.024-.024.035-.036.004-.005.007-.011.011-.016.063-.067.037-.033-.011.016-.121.199-.279.496-.455.859l.241.679-.02.015c-2.736.113-4.507.904-6.143 2.005l-.839.596-.833-.593c-1.768-1.191-3.695-2.023-6.832-2.023-2.241 0-3.596 1.615-4.333 3.275-.241.544-.433 1.127-.581 1.723-1.269-5.327-3.692-9.997-6.419-9.997H3.236c.975 1.855 4.668 1.811 4.763 5.813.004.08.005.133.005.187 0 1.907-1.337 3.504-3.124 3.904.079.183.124.385.124.596 0 .828-.673 1.501-1.501 1.501S2.002 26.327 2.002 25.499zM36.007 23.274c-.707-1.592-2.076-3.275-4.332-3.275-.041 0-.08.001-.12.001 1.365-2.864 3.069-5.448 5.447-7.137l.001 1.136c0 1.208 1.575 2.525 3.159 2.897-1.889 2.192-3.045 4.839-3.644 7.829C36.38 24.225 36.211 23.735 36.007 23.274zM6.947 21.705c.025-.324.041-.657.036-1.009l-.023-.36c-.189-1.433-1.012-2.067-1.984-2.669-.536-.331-1.304-.743-1.86-1.241-.396-.353-.732-.785-.928-1.327l-.013-.043-.117.4c-.036.181-.055.364-.055.544 0 1.624.768 2.055 2.015 2.804.849.512 1.803 1.12 2.399 2.236l.121.255c.083.201.148.409.204.619C6.812 21.846 6.88 21.777 6.947 21.705zM15.356 13.921c.403-.724.645-1.667.645-2.873l-.008.011c-.093 2.105-2.105 3.941-3.991 3.941-2.812 0-5-1.868-5-4 0-1.433.337-2.667 1-4 0 2.901 1.868 5 4 5 1.156 0 2.155-.16 3.124-.564-.168-.461-.331-.925-.479-1.399-.376-1.297-.645-2.637-.645-4.037 0-.347.072-.771.209-1.211l.084-.219-.177.051c-1.231.367-2.604.849-3.744 1.307-.172.069-.211.123-.24.179-.055.1-.132.34-.132.893 0 1.376.697 2.709 1.684 3.997-.076.003-.152.003-.229.003-.449 0-.917-.179-1.339-.521C9.456 9.391 9.003 8.222 9.003 6.999c0-1.245.336-1.733 1-2 2.195-.883 5.627-2 7-2 1.58 0 2.607 1.389 3.223 3.289-2.091 1.784-3.107 5.713-3.711 9.484C16.149 15.154 15.764 14.537 15.356 13.921zM40.003 13.999v-4c0-1.28-.207-1.92-.579-2.184-.397-.281-.889-.603-1.421-.928l-.257-.147.121.353c.085.299.136.603.136.905v5.539C38.655 13.833 39.304 13.999 40.003 13.999zM24.003 46.997c7.728 0 14 .225 14 .501 0 .276-6.272.501-14 .501-7.728 0-14-.225-14-.501C10.003 47.222 16.275 46.997 24.003 46.997z"/></svg>