<svg xmlns="http://www.w3.org/2000/svg" xmlns:xlink="http://www.w3.org/1999/xlink" viewBox="0,0,256,256" width="48px" height="48px" fill-rule="nonzero"><g fill="#fcfafa" fill-rule="nonzero" stroke="none" stroke-width="1" stroke-linecap="butt" stroke-linejoin="miter" stroke-miterlimit="10" stroke-dasharray="" stroke-dashoffset="0" font-family="none" font-weight="none" font-size="none" text-anchor="none" style="mix-blend-mode: normal"><g transform="scale(5.33333,5.33333)"><path d="M30.50586,6c-5.244,0 -9.5,4.25481 -9.5,9.50781c0,5.24 4.256,9.49219 9.5,9.49219c5.244,0 9.5,-4.25219 9.5,-9.49219c0,-5.254 -4.256,-9.50781 -9.5,-9.50781zM10.50586,6.00195c-5.244,0 -9.5,4.25286 -9.5,9.50586c0,5.24 4.256,9.49414 9.5,9.49414c0.838,0 1.64888,-0.10859 2.42188,-0.30859c0.311,0.2 0.68017,0.30759 1.07617,0.30859c1.016,0 1.85737,-0.75909 1.98438,-1.74609c2.429,-1.72 4.01758,-4.54805 4.01758,-7.74805c0,-5.254 -4.256,-9.50586 -9.5,-9.50586zM30.50586,12c1.932,0 3.5,1.57481 3.5,3.50781c0,1.92 -1.568,3.49219 -3.5,3.49219c-1.932,0 -3.5,-1.57219 -3.5,-3.49219c0,-1.934 1.568,-3.50781 3.5,-3.50781zM10.50586,13.00195c1.035,0 1.92508,0.62661 2.33008,1.59961l3.00977,7.62695c-0.304,-0.72 -1.0148,-1.22656 -1.8418,-1.22656c-1.104,0 -2,0.893 -2,2c0,0.28 0.0553,0.53148 0.1543,0.77148l-3.86133,-7.0918c-0.191,-0.346 -0.29102,-0.74683 -0.29102,-1.17383c0,-1.387 1.12,-2.50586 2.5,-2.50586zM10.50391,14c-0.828,0 -1.5,0.68081 -1.5,1.50781c0,0.827 0.672,1.49219 1.5,1.49219c0.828,0 1.5,-0.66519 1.5,-1.49219c0,-0.827 -0.672,-1.50781 -1.5,-1.50781zM30.50586,14c-0.828,0 -1.5,0.66781 -1.5,1.50781c0,0.827 0.672,1.49319 1.5,1.49219c0.828,0 1.5,-0.66519 1.5,-1.49219c0,-0.84 -0.672,-1.50781 -1.5,-1.50781zM20.52148,18.59766l-0.21484,0.66797c-0.6,1.56 -1.5603,2.94606 -2.7793,4.03906l-0.63086,0.50781c-0.355,1.267 -1.51563,2.18555 -2.89063,2.18555h-4.00391c-1.101,0 -1.99609,0.893 -1.99609,2v1h1.5c0.275,0 0.5,0.22781 0.5,0.50781c0,0.266 -0.225,0.49219 -0.5,0.49219h-4.00977h-0.00391h-0.48633c-0.495,0 -0.90728,0.36113 -0.98828,0.82813l-1.20508,-0.97266c-0.414,-0.32 -1.0245,-0.85352 -1.3125,-0.85352c-0.558,0 -0.49219,1.307 -0.49219,2v4c0,0.693 -0.06681,2 0.49219,2c0.288,0 0.8975,-0.52052 1.3125,-0.85352l1.20508,-0.97266c0.08,0.467 0.49228,0.82813 0.98828,0.82813h2c0,0.547 0.448,1 1,1h1.50195c0.275,0 0.5,0.22586 0.5,0.50586c0,0.266 -0.225,0.49414 -0.5,0.49414h-1.50195v8c0,0.36722 0.10524,0.70456 0.27734,1h-0.27734c-1.101,0 -4,0.22586 -4,0.50586c0,0.266 2.899,0.49414 4,0.49414h2l-0.00391,-0.00391h22.00781l-0.00391,0.00391h2c1.101,0 7,-0.22814 7,-0.49414c0,-0.28 -5.899,-0.50586 -7,-0.50586h-0.27539c0.17192,-0.29539 0.27734,-0.63658 0.27734,-1.00391v-1h1.99805v0.33398c0,0.374 0.29897,0.66602 0.66797,0.66602h4.66406c0.369,0 0.66797,-0.29302 0.66797,-0.66602v-2.66797c0,-0.36 -0.29897,-0.66602 -0.66797,-0.66602h-4.66406c-0.369,0 -0.66797,0.30602 -0.66797,0.66602v0.33398h-1.99805v-15c0,-1.107 -0.89509,-2 -1.99609,-2h-11.49805c-0.276,0 -0.5,-0.22519 -0.5,-0.49219c0,-0.28 0.224,-0.50781 0.5,-0.50781h5.51563c-2.331,-1.093 -4.19222,-3.02511 -5.19922,-5.41211zM45.37305,27.02734c-0.278,0 -0.85714,0.33395 -1.36914,0.62695l0.00195,6.85352c0,0.266 -0.225,0.49219 -0.5,0.49219c-0.276,0 -0.5,-0.22519 -0.5,-0.49219v-6.28125l-4.02539,2.24023c-0.259,0.146 -0.49978,0.3062 -0.67578,0.5332h-3.29883v7h3.27734c0.179,0.24 0.42827,0.41355 0.69727,0.56055l4.62695,2.58594c0.57,0.32 1.41163,0.85452 1.76563,0.85352c0.684,0 0.60352,-1.27966 0.60352,-1.97266v-11.02734c0,-0.68 0.08048,-1.97266 -0.60352,-1.97266zM15.50391,32c0.828,0 1.5,0.68081 1.5,1.50781c0,0.827 -0.672,1.49319 -1.5,1.49219c-0.828,0 -1.5,-0.66519 -1.5,-1.49219c0,-0.827 0.672,-1.50781 1.5,-1.50781zM25.00391,32.00195c1.104,0 2,0.893 2,2c0,1.106 -0.896,2 -2,2c-1.104,0 -2,-0.893 -2,-2c0,-1.107 0.896,-2 2,-2zM22.00586,42.00195c1.104,0 2.00195,0.453 2.00195,1l-0.00391,3h-3.99805v-3c0,-0.547 0.896,-1 2,-1z"></path></g></g></svg>