<svg xmlns="http://www.w3.org/2000/svg"  viewBox="0 0 48 48" width="48px" height="48px"><path d="M 19.505859 1 C 16.122859 1 13.271437 7.759375 13.023438 12.359375 L 13.019531 12.359375 L 12.990234 12.986328 C 12.990234 13.040328 12.997766 13.106828 13.009766 13.173828 C 13.204766 14.146828 14.719281 15.014734 15.488281 15.427734 C 14.989281 15.373734 14.513109 15.279141 14.037109 15.119141 C 13.701109 15.013141 13.447578 14.880031 13.142578 14.707031 C 12.275578 14.213031 12.050062 13.532687 12.039062 12.679688 C 9.5280625 13.559688 8.0058594 14.733 8.0058594 16 C 8.0058594 18.76 15.172859 21 24.005859 21 C 32.837859 21 40.005859 18.76 40.005859 16 C 40.005859 14.573 38.075328 13.279375 34.986328 12.359375 C 34.736328 7.759375 31.884906 1 28.503906 1 C 26.427906 1 25.600859 3 24.005859 3 C 22.410859 3 21.581859 1 19.505859 1 z M 14.144531 11.119141 L 14.185547 11.173828 C 14.520547 11.440828 15.321141 11.880906 16.869141 12.253906 C 18.725141 12.720906 21.229859 13 24.005859 13 C 26.779859 13 29.282672 12.720906 31.138672 12.253906 C 31.835672 12.080906 32.381828 11.905422 32.798828 11.732422 C 32.826828 11.879422 32.850047 12.039219 32.873047 12.199219 L 32.980469 13.652344 C 32.541469 13.839344 31.942672 14.053906 31.138672 14.253906 C 29.282672 14.720906 26.779859 15 24.005859 15 C 21.229859 15 18.725141 14.719906 16.869141 14.253906 C 15.321141 13.880906 14.520547 13.440828 14.185547 13.173828 C 14.110547 13.106828 14.048859 13.041609 14.005859 12.974609 L 14.136719 11.1875 C 14.139719 11.1735 14.141531 11.146141 14.144531 11.119141 z M 34.970703 20.691406 C 34.638703 20.785406 34.296359 20.865984 33.943359 20.958984 C 33.807359 22.265984 33.452781 23.345156 32.800781 23.785156 C 32.598781 23.918156 32.451719 24.118703 32.386719 24.345703 C 32.222719 24.945703 32.006953 25.532891 31.751953 26.212891 C 29.795953 31.386891 27.322859 34 24.005859 34 C 20.685859 34 18.209906 31.387844 16.253906 26.214844 C 15.998906 25.534844 15.781187 24.947656 15.617188 24.347656 C 15.552188 24.120656 15.408078 23.920109 15.205078 23.787109 C 14.551078 23.347109 14.1975 22.267937 14.0625 20.960938 C 13.7095 20.866938 13.364203 20.786359 13.033203 20.693359 C 13.145203 22.240359 13.545297 23.880281 14.654297 24.613281 C 14.832297 25.267281 15.065359 25.893547 15.318359 26.560547 C 16.092359 28.613547 16.977766 30.505734 18.009766 32.052734 C 17.991766 32.705734 17.955 33.293172 17.875 33.826172 L 17.869141 33.8125 C 17.828141 34.0925 17.777891 34.345937 17.712891 34.585938 C 17.640891 34.852938 17.364609 35.013594 17.099609 34.933594 C 16.832609 34.867594 16.675047 34.587313 16.748047 34.320312 C 16.861047 33.907312 16.933656 33.386766 16.972656 32.759766 L 16.992188 32.279297 L 15.933594 30.412109 C 14.000594 31.266109 12.301859 32.4 11.005859 34 L 14.005859 38 L 12.005859 41 L 16.289062 47 L 15.058594 47 L 11.189453 41.587891 C 10.947453 41.240891 10.942875 40.786453 11.171875 40.439453 L 12.765625 38.052734 C 11.907625 38.319734 10.978672 38.613 10.013672 39 C 7.2066719 40.107 4.0097656 41 4.0097656 45 L 4.0097656 47 C 2.897404 47.000758 0.017578125 47.212687 0.017578125 47.492188 C 0.017578125 47.771937 2.8995818 47.999595 4.0097656 48 C 4.0107583 48 4.0126821 48 4.0136719 48 L 14.003906 48 L 14.003906 47.998047 L 34.003906 47.998047 L 44.001953 47.998047 L 44.003906 47.998047 L 44.005859 48 C 45.113859 48 48 47.772187 48 47.492188 C 48 47.212313 45.113003 47.00019 44.003906 47 L 44.003906 44.998047 C 44.003906 40.998047 40.808953 40.105047 38.001953 38.998047 C 37.029953 38.611047 36.095422 38.319734 35.232422 38.052734 L 36.832031 40.439453 C 37.061031 40.786453 37.0535 41.238937 36.8125 41.585938 L 32.941406 46.998047 L 31.712891 46.998047 L 35.998047 40.998047 L 33.998047 37.998047 L 36.998047 33.998047 C 35.702047 32.398047 34.003312 31.265109 32.070312 30.412109 L 31.007812 32.279297 L 31.027344 32.759766 C 31.066344 33.386766 31.138953 33.905359 31.251953 34.318359 C 31.324953 34.584359 31.167391 34.864641 30.900391 34.931641 C 30.660391 34.998641 30.4115 34.879344 30.3125 34.652344 C 30.1035 33.932344 30.027906 33.052062 30.003906 32.039062 C 31.031906 30.492063 31.9145 28.611594 32.6875 26.558594 C 32.9405 25.891594 33.172562 25.264328 33.351562 24.611328 C 34.459563 23.878328 34.857703 22.238406 34.970703 20.691406 z M 16.080078 21.359375 C 16.030078 21.572375 16.003906 21.787 16.003906 22 C 16.003906 23.653 17.573859 25 19.505859 25 C 21.437859 25 23.005859 23.653 23.005859 22 C 23.005859 22 23.004906 21.999328 23.003906 21.986328 C 20.515906 21.946328 18.167078 21.719375 16.080078 21.359375 z M 31.927734 21.359375 C 29.840734 21.719375 27.491906 21.946328 25.003906 21.986328 L 25.003906 22 C 25.003906 23.653 26.573859 25 28.505859 25 C 30.437859 25 32.005859 23.653 32.005859 22 C 32.005859 21.787 31.978734 21.572375 31.927734 21.359375 z M 18.957031 33.306641 C 20.369031 34.972641 22.029859 36 24.005859 36 C 25.974859 36 27.630062 34.987313 29.039062 33.320312 C 29.081062 33.853312 29.147 34.359844 29.25 34.839844 C 28.928 35.693844 28.050969 36.734891 27.042969 37.587891 C 26.538969 38.014891 26.0235 38.373953 25.5625 38.626953 C 25.0835 38.892953 24.727438 39 24.523438 39 L 24.472656 39 L 23.558594 39 L 23.509766 39 C 23.304766 39 22.947703 38.892953 22.470703 38.626953 C 22.009703 38.373953 21.494234 38.014891 20.990234 37.587891 C 19.966234 36.720891 19.076578 35.654109 18.767578 34.787109 C 18.760578 34.774109 18.752141 34.759094 18.744141 34.746094 C 18.852141 34.293094 18.916031 33.813984 18.957031 33.333984 C 18.957031 33.319984 18.956031 33.319641 18.957031 33.306641 z M 18.324219 36.107422 L 18.513672 36.400391 C 19.010672 37.094391 19.672797 37.787656 20.341797 38.347656 C 20.986797 38.894656 21.719578 39.400031 22.392578 39.707031 L 22.535156 39.761719 L 20.607422 41.693359 C 20.726422 42.053359 20.846703 42.399094 20.970703 42.746094 L 22.357422 41.359375 L 23.009766 42 L 22.214844 45.972656 C 22.357844 46.319656 22.501391 46.667 22.650391 47 L 21.5625 47 C 20.1375 43.693 18.981125 40.200203 18.078125 36.533203 L 18.166016 36.400391 L 18.324219 36.107422 z M 29.681641 36.146484 C 29.751641 36.292484 29.829062 36.427547 29.914062 36.560547 C 29.012062 40.227547 27.861406 43.707 26.441406 47 L 25.349609 47 C 25.503609 46.654 25.652781 46.307266 25.800781 45.947266 L 25.009766 42 L 25.658203 41.347656 L 27.039062 42.734375 C 27.163062 42.374375 27.283344 42.027969 27.402344 41.667969 L 25.494141 39.759766 L 25.634766 39.707031 C 26.306766 39.414031 27.040453 38.907656 27.689453 38.347656 C 28.359453 37.787656 29.020578 37.093391 29.517578 36.400391 L 29.681641 36.146484 z"/></svg>