<svg xmlns="http://www.w3.org/2000/svg" xmlns:xlink="http://www.w3.org/1999/xlink" viewBox="0,0,256,256" width="48px" height="48px" fill-rule="nonzero"><g fill="#fcfafa" fill-rule="nonzero" stroke="none" stroke-width="1" stroke-linecap="butt" stroke-linejoin="miter" stroke-miterlimit="10" stroke-dasharray="" stroke-dashoffset="0" font-family="none" font-weight="none" font-size="none" text-anchor="none" style="mix-blend-mode: normal"><g transform="scale(5.33333,5.33333)"><path d="M26.99219,2.00195c-13.707,0 -26,9.865 -26,21c0,0.677 0.08486,1.82709 0.25586,2.49609l0.03125,0.10352l0.30078,0.80469c0.214,0.572 0.84888,0.71444 1.42188,0.52344l9.16602,-3.31641c-0.035,-0.204 -0.03228,-0.41858 0.01172,-0.64258c0.129,-0.57 0.2857,-1.1252 0.4707,-1.6582l-10.46094,3.78711l-0.14258,-0.93945c-0.039,-0.413 -0.05859,-0.83916 -0.05859,-1.16016c0,-0.671 0.04758,-1.337 0.14258,-2h8.86133l-8.69141,-0.96484c0.372,-1.764 1.0653,-3.47866 2.0293,-5.09766l2.66211,1.06445l-1.93164,-2.19726c0.929,-1.34 2.04441,-2.60277 3.31641,-3.75977l2.61523,1.95703l-1.92383,-2.56445c1.753,-1.478 3.7677,-2.76406 5.9707,-3.78906l2.95313,3.35352l-1.34961,-4.03906c2.373,-0.931 4.92898,-1.56512 7.58398,-1.82812l0.76563,6.86719v-6.93359c0.661,-0.047 1.328,-0.07227 2,-0.07227c1.324,0 3.05689,0.05998 4.33789,0.20898l0.46875,0.07422l-0.93555,0.89648l-0.43945,0.43164c-1.554,1.767 -2.87839,3.9642 -3.27539,6.4082l-0.06836,0.85547l-0.01172,0.22461c0.616,-0.048 1.25316,-0.0797 1.91016,-0.0957c0.022,0 0.04341,0.00195 0.06641,0.00195c0.217,-2.994 2.30352,-5.80253 4.60352,-7.76953c0.656,-0.55 0.35677,-1.62291 -0.49023,-1.75391l-1.69336,-0.25977c-1.354,-0.157 -3.12966,-0.2168 -4.47266,-0.2168zM28.99219,13.00195c-9.859,0.238 -14.46094,4.14273 -15.83594,10.17773c-0.084,0.428 0.20619,0.82227 0.74219,0.82227h1.14648c-0.036,0.327 -0.05273,0.66 -0.05273,1c0,3.725 2,7.981 2,11c0,2.235 -3,5.38 -3,6c0,0.469 0.259,1 1,1c1.441,0 11,-3.86 11,-6c0,-2.107 -2,-3.893 -2,-6c0,-1.547 0.597,-3 2,-3c2.98,0 3.249,3.809 4,8c0.597,3.337 3.57655,2.92516 7.06055,4.66016c2.94,1.462 6.21745,5.33884 8.93945,5.33984c0.471,0 1,-0.501 1,-1c0,-0.498 -0.85906,-0.79111 -1.53906,-2.41211c-1.449,-3.459 -4.46094,-10.06489 -4.46094,-12.58789c0,-0.436 -0.275,-1 -1,-1c-1.052,0 -3,-0.055 -3,-1c0,-1.2 1.744,-1.669 3,-2c0.379,-0.098 0.79544,-0.28964 1.14844,-0.55664c0.124,0.682 0.3122,1.31859 0.5332,1.93359c0.397,1.104 0.90823,2.15559 1.36523,3.30859c0.101,0.256 0.39144,0.3803 0.64844,0.2793c0.256,-0.101 0.38225,-0.39144 0.28125,-0.64844c-0.469,-1.186 -0.96952,-2.2113 -1.35352,-3.2793c-0.377,-1.048 -0.63381,-2.11703 -0.63281,-3.33203c0,-0.652 -0.1058,-1.05928 -0.2168,-1.48828c-1.41,1.231 -3.78748,2.16264 -5.77148,2.80664c-3.587,1.165 -7.94295,1.97656 -11.00195,1.97656c-2.208,0 -4.00195,-1.791 -4.00195,-4c0,-2.208 1.79395,-4 4.00195,-4c0.848,0 1.6393,0.26784 2.2793,0.71484c1.321,0.892 1.7607,1.28516 2.7207,1.28516c2.466,0 4.7325,-1.12513 6.1875,-2.95312c0.245,-0.308 0.41228,-0.77009 0.61328,-1.37109c-1.905,-0.947 -4.23278,-1.53134 -6.80078,-1.65234v-1.02344c0,-0.725 -0.465,-1 -1,-1zM38.99219,15.00195c-1.019,0 -1.10725,2.50797 -2.03125,3.66797c-1.644,2.066 -4.19775,3.33203 -6.96875,3.33203c-1.338,0 -2.07111,-0.64189 -3.28711,-1.46289c-0.485,-0.339 -1.07689,-0.53711 -1.71289,-0.53711c-1.656,0 -3.00195,1.344 -3.00195,3c0,1.656 1.34595,3 3.00195,3c5.852,0 17,-3.145 17,-6c0,-1.651 -2.28,-5 -3,-5zM18.00781,24.00195c0.551,0.008 0.99042,0.46462 0.98242,1.01563c-0.082,0.907 0.33005,2.4142 0.49805,3.2832c0.419,2.167 1.08306,5.42783 0.16406,7.54883c-0.125,0.29 -0.25244,0.49753 -0.39844,0.76953c0.044,-1.625 -0.29595,-2.98278 -0.75195,-4.55078c-0.392,-1.348 -0.7767,-2.74042 -1.0957,-4.10742c-0.228,-0.979 -0.42906,-1.96856 -0.41406,-2.97656c0.008,-0.551 0.46463,-0.99042 1.01562,-0.98242zM30.99219,47.00391c-6.599,0 -24,0.21905 -24,0.49805c0,0.278 17.401,0.5 24,0.5c4.675,0 17,-0.222 17,-0.5c0,-0.279 -12.325,-0.49805 -17,-0.49805z"></path></g></g></svg>