<svg xmlns="http://www.w3.org/2000/svg" xmlns:xlink="http://www.w3.org/1999/xlink" viewBox="0,0,256,256" width="48px" height="48px" fill-rule="nonzero"><g fill="#fcfafa" fill-rule="nonzero" stroke="none" stroke-width="1" stroke-linecap="butt" stroke-linejoin="miter" stroke-miterlimit="10" stroke-dasharray="" stroke-dashoffset="0" font-family="none" font-weight="none" font-size="none" text-anchor="none" style="mix-blend-mode: normal"><g transform="scale(5.33333,5.33333)"><path d="M37.99805,0c-4.416,0 -7.99609,3.587 -7.99609,8c0,1.893 0.65686,3.627 1.75586,5c3.046,3.8 4.76214,5.8 6.24414,10c1.486,-4.2 3.19519,-6.2 6.24219,-10c1.099,-1.373 1.75391,-3.107 1.75391,-5c0,-4.413 -3.584,-8 -8,-8zM24.02344,4c-12.144,0 -22.00195,9.853 -22.00195,22c0,9.90056 6.54925,18.27353 15.54687,21.0332c-7.28163,0.07098 -12.54687,0.25571 -12.54687,0.47461c0,0.266 8.512,0.49219 19,0.49219c0.00069,0 0.00126,0 0.00195,0c10.48705,-0.00003 18.99805,-0.22521 18.99805,-0.49219c0,-0.21889 -5.26341,-0.40363 -12.54492,-0.47461c8.9977,-2.75963 15.54688,-11.13259 15.54688,-21.0332c0,-3.746 -0.94066,-7.28005 -2.59766,-10.37305c-1.776,2.24 -2.96319,3.91911 -3.99219,6.41211c1.3,0.347 1.98378,2.56117 2.55078,4.20117c-0.637,9.907 -8.88894,17.75977 -18.96094,17.75977c-10.488,0 -19.00195,-8.507 -19.00195,-19c0,-10.44815 8.4429,-18.92185 18.86914,-18.99414c-1.59455,0.03655 -2.25423,0.80976 -3.2832,1.42188c-0.853,0.493 -1.60547,0.70527 -1.60547,1.57227c0,0.48 1,0.533 1,1c0,0.56 -1.16914,0.86691 -1.86914,1.25391c-0.559,0.307 -0.59786,0.74609 -1.13086,0.74609c-0.919,0 -0.256,-2 -1,-2c-0.975,0 -2,1.067 -2,2c0,0.907 1,1.253 1,2c0,0.613 -0.531,1 -1,1c-1.02,0 -2,0.253 -2,1c0,0.813 1.255,1 2,1c1.536,0 2.511,-2 4,-2c1.43,0 1.66433,2 2.86133,2c0.572,0 -1.60464,-3 -0.55664,-3c1.544,0 1.03031,4 2.69531,4c0.665,0 0.256,-2 1,-2c1.427,0 2.513,2 4,2c0.543,0 1,0.493 1,1c0,1.053 -1.947,1 -3,1c-1.456,0 -1.948,-1 -3,-1c-1.032,0 -1.256,1 -2,1c-1.279,0 -3,-0.573 -3,-2c0,-0.387 -0.529,-1 -1,-1c-1.152,0 -1.948,1 -3,1c-2.357,0 -3.371,2.507 -5,4c-1.004,0.92 -1,2.627 -1,4c0,1.693 2.115,4 4,4h3c0.471,0 0.537,1 1,1c1.499,0 2,1.8 2,3c0,1.213 2,2.493 2,4c0,0.467 -1,0.533 -1,1c0,2.12 2.725,4 4,4c1.941,0 5,-0.4 5,-2c0,-1.4 3,-1.587 3,-3v-2c0,-2.6 5,-4.227 5,-6c0,-4.133 -1.203,-1 -2,-1c-1.659,0 -2.35514,-1.79972 -3.49414,-3.38672c-0.968,-1.333 -2.50781,-2.37328 -2.50781,-3.61328v-0.4668c0,-2.573 3.507,5.46875 6,5.46875c1.943,0 5,-1.067 5,-3c0,-0.093 -0.02295,-0.173 -0.00195,0c-0.728,-0.28 -0.86441,-0.44097 -0.94141,-0.66797c-0.023,-0.067 -0.04536,-0.1205 -0.06836,-0.1875c-0.359,-0.107 -0.73528,-0.14648 -0.98828,-0.14648c-0.745,0 -2,-0.253 -2,-1v-0.57227c0,-0.947 1.12163,-0.26778 2.39063,0.19922c-0.68,-1.56 -1.43958,-2.81281 -2.39258,-4.13281c0.007,0.187 -0.06042,0.3338 -0.23242,0.4668c-0.36,0.253 -0.64092,-0.63933 -0.91992,-0.98633c-0.573,-0.72 -1.82075,-1.08128 -1.84375,-1.98828c-0.006,-0.28 0.18169,-0.58711 0.42969,-0.78711c-0.148,-0.186 -0.30103,-0.37227 -0.45703,-0.57227c-1.236,-1.547 -1.97266,-3.49395 -1.97266,-5.62695c0,-1.16 0.21823,-2.2663 0.61523,-3.2793c-1.787,-0.467 -3.66075,-0.7207 -5.59375,-0.7207zM23.02344,6c1.603,0 3.16239,0.19927 4.65039,0.57227c-0.424,0.307 -1.16688,0.42773 -1.67187,0.42773c-0.79202,0 -0.84626,-0.99257 -2.97852,-1zM21.95898,7.00781c0.02734,0.01581 0.04297,0.06397 0.04297,0.15234v1.91992c0,0.72 -0.255,1.91992 -1,1.91992h-1c-0.745,0 1,-1.19992 1,-1.91992c0,-0.68862 0.76563,-2.18295 0.95703,-2.07227zM24.9375,14.00195c0.06301,-0.00519 0.12186,-0.00166 0.17773,0.01172c1.245,0.306 4.01786,0.8143 3.88086,1.6543c-0.11,0.666 -1.53506,0.15973 -2.28906,0.05273c-0.939,-0.133 -2.52331,-0.00052 -2.69531,-0.85351c-0.077,-0.37275 0.48474,-0.82888 0.92578,-0.86524zM33.68164,34.06445c-0.28562,0.01334 -0.38875,0.55886 -0.73437,0.99023c-0.248,0.32 -0.81197,0.25227 -1.04297,0.57227c-0.299,0.427 -0.15539,1.02653 -0.27539,1.51953c-0.142,0.586 -0.93434,1.29438 -0.52734,1.73438c0.233,0.253 0.74348,-0.00089 1.02148,-0.21289c0.872,-0.654 1.20453,-1.85325 1.51953,-2.90625c0.161,-0.534 0.68583,-1.44097 0.17383,-1.66797c-0.0495,-0.02163 -0.09396,-0.0312 -0.13477,-0.0293z"></path></g></g></svg>