<svg xmlns="http://www.w3.org/2000/svg"  viewBox="0 0 48 48" width="48px" height="48px"><path d="M 26.992188 2.0019531 C 13.285188 2.0019531 0.9921875 11.866953 0.9921875 23.001953 C 0.9921875 23.678953 1.0770469 24.829047 1.2480469 25.498047 L 1.2792969 25.601562 L 1.5800781 26.40625 C 1.7940781 26.97825 2.4289531 27.120687 3.0019531 26.929688 L 12.167969 23.613281 C 12.132969 23.409281 12.135687 23.194703 12.179688 22.970703 C 12.308687 22.400703 12.465391 21.8455 12.650391 21.3125 L 2.1894531 25.099609 L 2.046875 24.160156 C 2.007875 23.747156 1.9882812 23.321 1.9882812 23 C 1.9882812 22.329 2.0358594 21.663 2.1308594 21 L 10.992188 21 L 2.3007812 20.035156 C 2.6727812 18.271156 3.3660781 16.5565 4.3300781 14.9375 L 6.9921875 16.001953 L 5.0605469 13.804688 C 5.9895469 12.464688 7.1049531 11.201922 8.3769531 10.044922 L 10.992188 12.001953 L 9.0683594 9.4375 C 10.821359 7.9595 12.836063 6.6734375 15.039062 5.6484375 L 17.992188 9.0019531 L 16.642578 4.9628906 C 19.015578 4.0318906 21.571562 3.3977656 24.226562 3.1347656 L 24.992188 10.001953 L 24.992188 3.0683594 C 25.653187 3.0213594 26.320187 2.9960938 26.992188 2.9960938 C 28.316187 2.9960937 30.049078 3.0560781 31.330078 3.2050781 L 31.798828 3.2792969 L 30.863281 4.1757812 L 30.423828 4.6074219 C 28.869828 6.3744219 27.545437 8.571625 27.148438 11.015625 L 27.080078 11.871094 L 27.068359 12.095703 C 27.684359 12.047703 28.321516 12.016 28.978516 12 C 29.000516 12 29.021922 12.001953 29.044922 12.001953 C 29.261922 9.0079531 31.348437 6.1994219 33.648438 4.2324219 C 34.304437 3.6824219 34.005203 2.6095156 33.158203 2.4785156 L 31.464844 2.21875 C 30.110844 2.06175 28.335187 2.0019531 26.992188 2.0019531 z M 28.992188 13.001953 C 19.133187 13.239953 14.53125 17.144687 13.15625 23.179688 C 13.07225 23.607688 13.362438 24.001953 13.898438 24.001953 L 15.044922 24.001953 C 15.008922 24.328953 14.992188 24.661953 14.992188 25.001953 C 14.992188 28.726953 16.992188 32.982953 16.992188 36.001953 C 16.992188 38.236953 13.992188 41.381953 13.992188 42.001953 C 13.992188 42.470953 14.251188 43.001953 14.992188 43.001953 C 16.433188 43.001953 25.992188 39.141953 25.992188 37.001953 C 25.992188 34.894953 23.992188 33.108953 23.992188 31.001953 C 23.992188 29.454953 24.589188 28.001953 25.992188 28.001953 C 28.972188 28.001953 29.241187 31.810953 29.992188 36.001953 C 30.589188 39.338953 33.568734 38.927109 37.052734 40.662109 C 39.992734 42.124109 43.270188 46.000953 45.992188 46.001953 C 46.463188 46.001953 46.992188 45.500953 46.992188 45.001953 C 46.992188 44.503953 46.133125 44.210844 45.453125 42.589844 C 44.004125 39.130844 40.992188 32.524953 40.992188 30.001953 C 40.992188 29.565953 40.717188 29.001953 39.992188 29.001953 C 38.940188 29.001953 36.992188 28.946953 36.992188 28.001953 C 36.992188 26.801953 38.736187 26.332953 39.992188 26.001953 C 40.371188 25.903953 40.787625 25.712312 41.140625 25.445312 C 41.264625 26.127313 41.452828 26.763906 41.673828 27.378906 C 42.070828 28.482906 42.582062 29.5345 43.039062 30.6875 C 43.140062 30.9435 43.4305 31.067797 43.6875 30.966797 C 43.9435 30.865797 44.06975 30.575359 43.96875 30.318359 C 43.49975 29.132359 42.999234 28.107063 42.615234 27.039062 C 42.238234 25.991062 41.981422 24.922031 41.982422 23.707031 C 41.982422 23.055031 41.876625 22.64775 41.765625 22.21875 C 40.355625 23.44975 37.978141 24.381391 35.994141 25.025391 C 32.407141 26.190391 28.051188 27.001953 24.992188 27.001953 C 22.784188 27.001953 20.990234 25.210953 20.990234 23.001953 C 20.990234 20.793953 22.784187 19.001953 24.992188 19.001953 C 25.840188 19.001953 26.631484 19.269797 27.271484 19.716797 C 28.592484 20.608797 29.032187 21.001953 29.992188 21.001953 C 32.458188 21.001953 34.724688 19.876828 36.179688 18.048828 C 36.424688 17.740828 36.591969 17.278734 36.792969 16.677734 C 34.887969 15.730734 32.560187 15.146391 29.992188 15.025391 L 29.992188 14.001953 C 29.992188 13.276953 29.527188 13.001953 28.992188 13.001953 z M 38.992188 15.001953 C 37.973187 15.001953 37.884937 17.509922 36.960938 18.669922 C 35.316938 20.735922 32.763188 22.001953 29.992188 22.001953 C 28.654188 22.001953 27.921078 21.360063 26.705078 20.539062 C 26.220078 20.200063 25.628187 20.001953 24.992188 20.001953 C 23.336187 20.001953 21.990234 21.345953 21.990234 23.001953 C 21.990234 24.657953 23.336188 26.001953 24.992188 26.001953 C 30.844188 26.001953 41.992188 22.856953 41.992188 20.001953 C 41.992188 18.350953 39.712187 15.001953 38.992188 15.001953 z M 18.007812 24.001953 C 18.558812 24.009953 18.998234 24.466578 18.990234 25.017578 C 18.908234 25.924578 19.320281 27.431781 19.488281 28.300781 C 19.907281 30.467781 20.571344 33.728609 19.652344 35.849609 C 19.527344 36.139609 19.399906 36.347141 19.253906 36.619141 C 19.297906 34.994141 18.957953 33.636359 18.501953 32.068359 C 18.109953 30.720359 17.72525 29.327938 17.40625 27.960938 C 17.17825 26.981937 16.977187 25.992375 16.992188 24.984375 C 17.000187 24.433375 17.456813 23.993953 18.007812 24.001953 z M 30.992188 47.003906 C 24.393187 47.003906 6.9921875 47.222953 6.9921875 47.501953 C 6.9921875 47.779953 24.393187 48.001953 30.992188 48.001953 C 35.667187 48.001953 47.992188 47.779953 47.992188 47.501953 C 47.992188 47.222953 35.667187 47.003906 30.992188 47.003906 z"/></svg>