<svg xmlns="http://www.w3.org/2000/svg" xmlns:xlink="http://www.w3.org/1999/xlink" viewBox="0,0,256,256" width="48px" height="48px" fill-rule="nonzero"><g fill="#fcfafa" fill-rule="nonzero" stroke="none" stroke-width="1" stroke-linecap="butt" stroke-linejoin="miter" stroke-miterlimit="10" stroke-dasharray="" stroke-dashoffset="0" font-family="none" font-weight="none" font-size="none" text-anchor="none" style="mix-blend-mode: normal"><g transform="scale(5.33333,5.33333)"><path d="M13.322,43.573c-2.165,-1.12 -4.313,-3.933 -4.313,-6.573c0,-0.067 0.003,-0.12 0.009,-0.187l-1.009,-1.813c-0.667,-1.2 -1,-2.627 -1,-4c0,-1.36 0.992,-3.613 2.581,-3.96l-0.581,-1.04v-7l1,-1h-0.001v-2h0.001v-1c0,-6.067 6.272,-11 14,-11c7.728,0 14,4.933 14,11v3.013l0.986,0.987v7l-0.583,1.04c1.589,0.347 2.583,2.6 2.583,3.96c0,1.373 -0.333,2.8 -1,4l-0.999,1.8c0.007,0.067 0.012,0.133 0.012,0.2c0,2.64 -2.148,5.453 -4.315,6.56h-0.003c-0.48,0.28 -1.061,0.44 -1.687,0.44h-3c-1.201,0 -2.124,-1.187 -3,-2h-0.995v1h-1v1h-2v-1h-1v-1h-1c-0.876,0.813 -1.799,2 -3,2h-3c-0.625,0 -1.206,-0.16 -1.686,-0.427zM18.999,42.533c0.469,-0.387 0.785,-0.76 1.327,-1.267c0.215,-0.2 0.408,-0.427 0.681,-0.64l0.002,-1.626h1v-1h1v-1c-0.455,0 -0.615,0.093 -0.697,0.147c-0.165,0.107 -0.28,0.267 -0.621,0.587c-0.335,0.307 -0.917,0.933 -1.429,1.347c-0.459,0.373 -1.049,0.76 -1.767,0.88l-0.333,1.28c-0.096,0.426 -0.787,0.759 -1.653,0.759c-0.848,0 -1.572,-0.333 -1.647,-0.72l-0.324,-1.24c-0.987,0.173 -1.529,0.88 -1.529,1.453c0,0.667 0.717,1.507 2,1.507h3c0.26,0 0.568,-0.12 0.99,-0.467zM35.003,41.493c0,-0.573 -0.545,-1.28 -1.531,-1.453l-0.323,1.24c-0.074,0.387 -0.798,0.72 -1.646,0.72c-0.867,0 -1.557,-0.333 -1.652,-0.76l-0.335,-1.28c-0.719,-0.12 -1.309,-0.507 -1.767,-0.88c-0.512,-0.413 -1.095,-1.04 -1.429,-1.347c-0.273,-0.253 -0.456,-0.48 -0.621,-0.587c-0.082,-0.053 -0.241,-0.146 -0.69,-0.146v1h1v1h1v1.627c0.284,0.227 0.5,0.48 0.676,0.64c0.541,0.507 0.857,0.88 1.327,1.267c0.422,0.346 0.73,0.466 0.991,0.466h3c1.282,0 2,-0.84 2,-1.507zM15.009,39h3c1.201,0 2.124,-1.187 3,-2c0.544,-0.507 0.789,-1 2,-1h1.995c1.211,0 1.456,0.493 2,1c0.876,0.813 1.799,2 3,2h3c0.951,0 1.799,0.373 2.348,0.947c0.804,-1.08 1.349,-2.36 1.349,-3.547c0,-0.68 -0.933,-1.4 -2.423,-2.093l-4.275,-2l0.001,0.013l-3.012,-1.413c-1.066,-0.494 -2.273,-0.907 -2.987,-0.907c-0.716,0 -1.923,0.413 -2.989,0.907l-8.585,4c-1.505,0.693 -2.422,1.413 -2.422,2.093c0,1.48 0.857,3.12 2.007,4.32c0.107,-1.293 1.406,-2.32 2.993,-2.32zM12.009,34l1.147,-0.533l-3.037,-5.467h-0.111c-0.989,0 -2,1.693 -2,3c0,1.227 0.297,2.48 0.873,3.52l0.648,1.16c0.609,-0.733 1.638,-1.293 2.48,-1.68zM37.822,35.053l0.299,-0.533c0.576,-1.04 0.875,-2.293 0.875,-3.52c0,-0.933 -0.584,-2.147 -1.277,-2.707l-2.868,5.173l1.158,0.534c0.581,0.267 1.252,0.613 1.813,1.053zM13.703,32.4l7.305,-6.4c0.792,-0.693 1.677,-1 3,-1c1.323,0 2.208,0.307 3,1l6.623,5.8l3.364,-6.053v-1.507c-0.705,1.547 -1.798,2.76 -3.344,2.76c-2.484,0 -4.467,-1.347 -6.04,-2.613c-0.813,-0.64 -1.48,-1.24 -2.116,-1.707c-0.641,-0.453 -1.116,-0.68 -1.486,-0.68c-0.372,0 -0.847,0.227 -1.488,0.68c-0.636,0.467 -1.303,1.067 -2.116,1.707c-1.574,1.266 -3.556,2.613 -6.039,2.613c-3.083,0 -4.357,-4.8 -4.357,-7.507v6.253zM29.006,30.747l0.001,-0.667l-2,-1.747v1.48c0.14,0.067 0.276,0.133 0.408,0.187zM19.009,30.747l1.585,-0.747c0.133,-0.067 0.273,-0.12 0.415,-0.187l0.001,-1.48l-2.001,1.747zM25.007,29.133l0.001,-2.04c-0.287,-0.067 -0.615,-0.093 -1,-0.093c-0.387,0 -0.715,0.027 -1.003,0.093v2.04c0.359,-0.08 0.7,-0.133 0.999,-0.133c0.299,0 0.642,0.053 1.003,0.133zM19.781,23.613c0.751,-0.6 1.496,-1.267 2.153,-1.733c0.653,-0.48 1.355,-0.88 2.075,-0.88c0.719,0 1.42,0.4 2.073,0.88c0.657,0.467 1.403,1.133 2.153,1.733c1.554,1.24 3.302,2.387 5.416,2.387c2.076,0 3.357,-3.773 3.357,-6.507v-1.493h-26v1.493c0,2.76 1.292,6.507 3.357,6.507c2.114,0 3.862,-1.147 5.416,-2.387zM13.009,19h8.379c0.456,0 0.888,0.173 0.417,0.68c-1.488,1.613 -4.031,3.32 -5.93,3.32c-1.886,0 -2.866,-1.987 -2.866,-4zM26.213,19.68c-0.471,-0.507 -0.039,-0.68 0.417,-0.68h8.379c0,2.013 -0.98,4 -2.867,4c-1.899,0 -4.441,-1.707 -5.929,-3.32zM34.009,16v-1c0,-5.307 -4.297,-10 -10,-10c-6.845,0 -12,4.693 -12,10v1zM24.009,47c7.176,0 13,0.227 13,0.493c0,0.28 -5.824,0.507 -13,0.507c-7.176,0 -13,-0.227 -13,-0.507c0,-0.266 5.824,-0.493 13,-0.493z"></path></g></g></svg>