<svg xmlns="http://www.w3.org/2000/svg"  viewBox="0 0 48 48" width="48px" height="48px"><path d="M 37.998047 0 C 33.582047 0 30.001953 3.587 30.001953 8 C 30.001953 9.893 30.658812 11.627 31.757812 13 C 34.803812 16.8 36.519953 18.8 38.001953 23 C 39.487953 18.8 41.197141 16.8 44.244141 13 C 45.343141 11.627 45.998047 9.893 45.998047 8 C 45.998047 3.587 42.414047 0 37.998047 0 z M 24.023438 4 C 11.879437 4 2.0214844 13.853 2.0214844 26 C 2.0214844 35.900563 8.5707332 44.273526 17.568359 47.033203 C 10.286728 47.10418 5.0214844 47.288917 5.0214844 47.507812 C 5.0214844 47.773812 13.533484 48 24.021484 48 C 24.022177 48 24.022745 48 24.023438 48 C 34.510484 47.99997 43.021484 47.774795 43.021484 47.507812 C 43.021484 47.288919 37.758071 47.104182 30.476562 47.033203 C 39.474264 44.273572 46.023438 35.900617 46.023438 26 C 46.023437 22.254 45.082781 18.719953 43.425781 15.626953 C 41.649781 17.866953 40.462594 19.546063 39.433594 22.039062 C 40.733594 22.386062 41.417375 24.600234 41.984375 26.240234 C 41.347375 36.147234 33.095437 44 23.023438 44 C 12.535437 44 4.0214844 35.493 4.0214844 25 C 4.0214844 14.551851 12.464385 6.0781533 22.890625 6.0058594 C 21.296078 6.0424056 20.6364 6.8156191 19.607422 7.4277344 C 18.754422 7.9207344 18.001953 8.133 18.001953 9 C 18.001953 9.48 19.001953 9.533 19.001953 10 C 19.001953 10.56 17.832812 10.866906 17.132812 11.253906 C 16.573812 11.560906 16.534953 12 16.001953 12 C 15.082953 12 15.745953 10 15.001953 10 C 14.026953 10 13.001953 11.067 13.001953 12 C 13.001953 12.907 14.001953 13.253 14.001953 14 C 14.001953 14.613 13.470953 15 13.001953 15 C 11.981953 15 11.001953 15.253 11.001953 16 C 11.001953 16.813 12.256953 17 13.001953 17 C 14.537953 17 15.512953 15 17.001953 15 C 18.431953 15 18.666281 17 19.863281 17 C 20.435281 17 18.258641 14 19.306641 14 C 20.850641 14 20.336953 18 22.001953 18 C 22.666953 18 22.257953 16 23.001953 16 C 24.428953 16 25.514953 18 27.001953 18 C 27.544953 18 28.001953 18.493 28.001953 19 C 28.001953 20.053 26.054953 20 25.001953 20 C 23.545953 20 23.053953 19 22.001953 19 C 20.969953 19 20.745953 20 20.001953 20 C 18.722953 20 17.001953 19.427 17.001953 18 C 17.001953 17.613 16.472953 17 16.001953 17 C 14.849953 17 14.053953 18 13.001953 18 C 10.644953 18 9.6309531 20.507 8.0019531 22 C 6.9979531 22.92 7.0019531 24.627 7.0019531 26 C 7.0019531 27.693 9.1169531 30 11.001953 30 L 14.001953 30 C 14.472953 30 14.538953 31 15.001953 31 C 16.500953 31 17.001953 32.8 17.001953 34 C 17.001953 35.213 19.001953 36.493 19.001953 38 C 19.001953 38.467 18.001953 38.533 18.001953 39 C 18.001953 41.12 20.726953 43 22.001953 43 C 23.942953 43 27.001953 42.6 27.001953 41 C 27.001953 39.6 30.001953 39.413 30.001953 38 L 30.001953 36 C 30.001953 33.4 35.001953 31.773 35.001953 30 C 35.001953 25.867 33.798953 29 33.001953 29 C 31.342953 29 30.646813 27.200281 29.507812 25.613281 C 28.539812 24.280281 27 23.24 27 22 L 27 21.533203 C 27 18.960203 30.507 27.001953 33 27.001953 C 34.943 27.001953 38 25.934953 38 24.001953 C 38 23.908953 37.977047 23.828953 37.998047 24.001953 C 37.270047 23.721953 37.133641 23.560984 37.056641 23.333984 C 37.033641 23.266984 37.011281 23.213484 36.988281 23.146484 C 36.629281 23.039484 36.253 23 36 23 C 35.255 23 34 22.747 34 22 L 34 21.427734 C 34 20.480734 35.121625 21.159953 36.390625 21.626953 C 35.710625 20.066953 34.951047 18.814141 33.998047 17.494141 C 34.005047 17.681141 33.937625 17.827938 33.765625 17.960938 C 33.405625 18.213937 33.124703 17.321609 32.845703 16.974609 C 32.272703 16.254609 31.024953 15.893328 31.001953 14.986328 C 30.995953 14.706328 31.183641 14.399219 31.431641 14.199219 C 31.283641 14.013219 31.130609 13.826953 30.974609 13.626953 C 29.738609 12.079953 29.001953 10.133 29.001953 8 C 29.001953 6.84 29.220188 5.7337031 29.617188 4.7207031 C 27.830188 4.2537031 25.956437 4 24.023438 4 z M 23.023438 6 C 24.626437 6 26.185828 6.1992656 27.673828 6.5722656 C 27.249828 6.8792656 26.506953 7 26.001953 7 C 25.209929 7 25.155692 6.0074305 23.023438 6 z M 21.958984 7.0078125 C 21.986328 7.023625 22.001953 7.0717812 22.001953 7.1601562 L 22.001953 9.0800781 C 22.001953 9.8000781 21.746953 11 21.001953 11 L 20.001953 11 C 19.256953 11 21.001953 9.8000781 21.001953 9.0800781 C 21.001953 8.3914531 21.767578 6.897125 21.958984 7.0078125 z M 24.9375 14.001953 C 25.000506 13.99676 25.059359 14.000297 25.115234 14.013672 C 26.360234 14.319672 29.133094 14.827969 28.996094 15.667969 C 28.886094 16.333969 27.461031 15.827703 26.707031 15.720703 C 25.768031 15.587703 24.183719 15.720187 24.011719 14.867188 C 23.934719 14.494437 24.496459 14.038307 24.9375 14.001953 z M 33.681641 34.064453 C 33.396021 34.077797 33.292891 34.623312 32.947266 35.054688 C 32.699266 35.374688 32.135297 35.306953 31.904297 35.626953 C 31.605297 36.053953 31.748906 36.653484 31.628906 37.146484 C 31.486906 37.732484 30.694562 38.440859 31.101562 38.880859 C 31.334563 39.133859 31.845047 38.879969 32.123047 38.667969 C 32.995047 38.013969 33.327578 36.814719 33.642578 35.761719 C 33.803578 35.227719 34.328406 34.32075 33.816406 34.09375 C 33.766906 34.072125 33.722443 34.062547 33.681641 34.064453 z"/></svg>