<svg xmlns="http://www.w3.org/2000/svg" xmlns:xlink="http://www.w3.org/1999/xlink" viewBox="0,0,256,256" width="48px" height="48px" fill-rule="nonzero"><g fill="#fcfafa" fill-rule="nonzero" stroke="none" stroke-width="1" stroke-linecap="butt" stroke-linejoin="miter" stroke-miterlimit="10" stroke-dasharray="" stroke-dashoffset="0" font-family="none" font-weight="none" font-size="none" text-anchor="none" style="mix-blend-mode: normal"><g transform="scale(5.33333,5.33333)"><path d="M3.49805,6c-0.276,0 -0.5,0.225 -0.5,0.5c0,0.276 0.224,0.5 0.5,0.5h0.49805v9h-0.5c-0.276,0 -0.5,0.225 -0.5,0.5c0,0.276 0.224,0.5 0.5,0.5h0.49805v9h-0.49609c-0.276,0 -0.5,0.225 -0.5,0.5c0,0.276 0.224,0.5 0.5,0.5h0.49609v9h-0.5c-0.276,0 -0.5,0.225 -0.5,0.5c0,0.276 0.224,0.5 0.5,0.5h0.5v9.99805c-1.108,0 -4,0.221 -4,0.5c0,0.278 2.892,0.49805 4,0.49805v0.00586h40.00195v-0.00586c1.11019,-0.00039 3.99609,-0.2203 3.99609,-0.49805c0,-0.27875 -2.88591,-0.49961 -3.99609,-0.5v-9.99805h0.49414c0.275,0 0.5,-0.224 0.5,-0.5c0,-0.275 -0.225,-0.5 -0.5,-0.5h-0.49414v-9h0.49609c0.275,0 0.5,-0.224 0.5,-0.5c0,-0.275 -0.225,-0.5 -0.5,-0.5h-0.52148l-14.97656,-4l-2,-2h-2l-3.14648,-3.14648c0.091,-0.089 0.14844,-0.21452 0.14844,-0.35352c0,-0.275 -0.225,-0.5 -0.5,-0.5h-1.5l-1,-2h-1l-1.75195,-7h0.25781c0.275,0 0.5,-0.224 0.5,-0.5c0,-0.275 -0.225,-0.5 -0.5,-0.5zM4.99414,7h10.2207l0.75,3h-0.96875v2.99805h1.7168l0.50195,2.00195h1.16211l0.5,1h-13.88281zM9.99414,10v2.99805h2.00195v-2.99805zM5.99414,10.00195v2.99805h2v-2.99805zM4.99414,17h15.58594l1.80859,1.80859c-0.248,0.334 -0.39258,0.74641 -0.39258,1.19141v5h4v-4h0.58398l1.41211,1.41406v2.58594h4.00195v-1.16016l-0.00977,-0.00391l1.00977,0.26953v1.89453h-28zM6.49609,18c-0.276,0 -0.50195,0.896 -0.50195,2v5h1.00195v-5c0,-1.104 -0.224,-2 -0.5,-2zM8.99609,18c-0.552,0 -1.00195,0.896 -1.00195,2v5h2.00195v-5c0,-1.104 -0.448,-2 -1,-2zM12.49609,18c-0.828,0 -1.50195,0.896 -1.50195,2v5h3.00195v-5c0,-1.104 -0.672,-2 -1.5,-2zM17.99609,18c-1.104,0 -2.00195,0.896 -2.00195,2v5h4.00195v-5c0,-1.104 -0.896,-2 -2,-2zM4.99414,27h28v9h-28zM6.49609,28c-0.276,0 -0.50195,0.896 -0.50195,2v5h1.00195v-5c0,-1.104 -0.224,-2 -0.5,-2zM8.99609,28c-0.552,0 -1.00195,0.896 -1.00195,2v5h2.00195v-5c0,-1.104 -0.448,-2 -1,-2zM12.49609,28c-0.828,0 -1.50195,0.896 -1.50195,2v5h3.00195v-5c0,-1.104 -0.672,-2 -1.5,-2zM17.99609,28c-1.104,0 -2.00195,0.896 -2.00195,2v5h4.00195v-5c0,-1.104 -0.896,-2 -2,-2zM23.99414,28c-1.104,0 -2,0.896 -2,2v5h4l0.00195,-5c0,-1.104 -0.89795,-2 -2.00195,-2zM29.99414,28c-1.104,0 -2.00195,0.896 -2.00195,2l0.00195,5h4v-5c0,-1.104 -0.896,-2 -2,-2zM36.49414,28c0.828,0 1.5,0.896 1.5,2v5h-1v-5c0,-0.869 -0.417,-1.60977 -1,-1.88477c0.156,-0.074 0.324,-0.11523 0.5,-0.11523zM39.99414,28c0.552,0 1,0.896 1,2v5h-1v-5c0,-0.74 -0.201,-1.38542 -0.5,-1.73242c0.147,-0.169 0.317,-0.26758 0.5,-0.26758zM42.49414,28c0.276,0 0.5,0.896 0.5,2v5h-1l-0.00195,-5c0,-1.104 0.22595,-2 0.50195,-2zM4.99414,37h28v9h-28zM6.49609,38c-0.276,0 -0.50195,0.896 -0.50195,2v5h1.00195v-5c0,-1.104 -0.224,-2 -0.5,-2zM8.99609,38c-0.552,0 -1.00195,0.896 -1.00195,2v5h2.00195v-5c0,-1.104 -0.448,-2 -1,-2zM12.49609,38c-0.828,0 -1.50195,0.896 -1.50195,2v5h3.00195v-5c0,-1.104 -0.672,-2 -1.5,-2zM17.99609,38c-1.104,0 -2.00195,0.896 -2.00195,2v5h4.00195v-5c0,-1.104 -0.896,-2 -2,-2zM23.99414,38c-1.104,0 -2,0.896 -2,2v5h4l0.00195,-5c0,-1.104 -0.89795,-2 -2.00195,-2zM29.99414,38c-1.104,0 -2.00195,0.896 -2.00195,2l0.00195,5h4v-5c0,-1.104 -0.896,-2 -2,-2zM36.49414,38c0.828,0 1.5,0.896 1.5,2v5h-1v-5c0,-0.869 -0.417,-1.60977 -1,-1.88477c0.156,-0.074 0.324,-0.11523 0.5,-0.11523zM39.99414,38c0.552,0 1,0.896 1,2v5h-1v-5c0,-0.74 -0.201,-1.38542 -0.5,-1.73242c0.147,-0.169 0.317,-0.26758 0.5,-0.26758zM42.49414,38c0.276,0 0.5,0.896 0.5,2v5h-1l-0.00195,-5c0,-1.104 0.22595,-2 0.50195,-2z"></path></g></g></svg>