<svg xmlns="http://www.w3.org/2000/svg" xmlns:xlink="http://www.w3.org/1999/xlink" viewBox="0,0,256,256" width="48px" height="48px" fill-rule="nonzero"><g fill="#fcfafa" fill-rule="nonzero" stroke="none" stroke-width="1" stroke-linecap="butt" stroke-linejoin="miter" stroke-miterlimit="10" stroke-dasharray="" stroke-dashoffset="0" font-family="none" font-weight="none" font-size="none" text-anchor="none" style="mix-blend-mode: normal"><g transform="scale(5.33333,5.33333)"><path d="M4.45703,0.00195c-1.666,0 -4.46289,6.411 -4.46289,10c0,9.716 16,9.699 16,13c0,2.04 -1,2.437 -1,4c0,5.212 3,3.237 3,7v2c0,0.45 0.88339,0.80161 1.27539,1.72461c0.885,2.081 1.72461,6.34814 1.72461,8.24414v1.03125c0,0.00071 0,0.00124 0,0.00195c-2.749,0 -10,0.21905 -10,0.49805c0,0.278 7.251,0.5 10,0.5v-0.00195h0.98438c0.00455,0.00004 0.00913,0.00195 0.01367,0.00195c0.00064,0 0.00132,0 0.00195,0h2.99609c0.00127,0 0.00263,0 0.00391,0c0.01426,-0.00003 0.02862,-0.00543 0.04297,-0.00586h0.95703v0.00195c2.749,0 10,-0.222 10,-0.5c0,-0.279 -7.251,-0.49805 -10,-0.49805l-0.00391,0.00195v-1.03125c0,-1.896 0.84156,-6.16314 1.72656,-8.24414c0.392,-0.922 1.27344,-1.27361 1.27344,-1.72461v-2c0,-3.763 3,-1.788 3,-7c0,-1.563 -1,-1.96 -1,-4c0,-3.301 16,-3.284 16,-13c0,-3.589 -2.79789,-10 -4.46289,-10c-0.428,0 -0.53711,0.2423 -0.53711,0.5293c0,0.99 2,4.5067 2,7.4707c0,5.137 -7.424,7 -12,7c-1.485,0 -3.067,2 -4,2c-1.373,0 -1.492,-1 -4,-1h-0.99609c-2.508,0 -2.627,1 -4,1c-0.933,0 -2.515,-2 -4,-2c-4.576,0 -12,-1.863 -12,-7c0,-2.964 2,-6.4797 2,-7.4707c0,-0.287 -0.10911,-0.5293 -0.53711,-0.5293zM2.41211,10c0.988,2.038 1.81133,3.22603 3.98633,4.08203c0.506,0.217 0.74044,0.8075 0.52344,1.3125c-0.218,0.506 -0.8075,0.74144 -1.3125,0.52344c-2.555,-1.072 -4.28927,-3.04297 -3.19727,-5.91797zM13.80859,15.95313c0.42,0.028 0.81559,0.04102 1.18359,0.04102c0.876,0 2.737,2 4,2c1.824,0 1.615,-1 4,-1h0.99805c2.163,0 2.323,1 4,1c1.663,0 2.844,-2 4,-2c0.367,0 0.76459,-0.01211 1.18359,-0.03711c0.376,0.743 0.69742,1.51745 0.98242,2.31445c-3.027,1.074 -5.16016,1.88647 -5.16016,3.73047c0,2.447 1,2.701 1,4c0,0.869 -0.08731,1.48631 -0.32031,2.19531l-0.14062,0.30273c-0.136,0.324 -0.42359,0.5642 -0.68359,0.7832c-0.53,0.445 -1.19245,0.91344 -1.56445,1.89844c-0.472,0.326 -0.92628,0.68073 -1.36328,1.05273l-0.00977,-0.01953l-0.53711,-0.72461l-0.55664,-0.71289l-0.57617,-0.69922l-0.4668,-0.54492c-0.08,-2.524 -0.18016,-4.53516 -0.28516,-4.53516c-0.106,0 -0.20416,2.00539 -0.28516,4.52539l-0.47656,0.55469l-0.57422,0.69922l-0.55664,0.71289l-0.53516,0.72461l-0.01367,0.02344c-0.998,-0.837 -1.96558,-1.51661 -3.14258,-2.09961c-0.157,-1.289 -0.60053,-2.20883 -1.76953,-3.92383c0.279,-0.774 0.84766,-1.55689 0.84766,-3.21289c0,-0.895 -0.42805,-1.50706 -1.24805,-2.03906c-0.455,-0.836 -1.52248,-1.38472 -3.14648,-2.01172c0.338,-1.038 0.7328,-2.04505 1.2168,-2.99805zM23.17578,30.57031c-0.112,3.888 -0.18359,8.46364 -0.18359,8.93164c0,0.828 0.224,1.5 0.5,1.5c0.276,0 0.50195,-0.672 0.50195,-1.5c0,-0.467 -0.07159,-5.0242 -0.18359,-8.9082c0.249,0.479 0.5083,0.95102 0.7793,1.41602l0.375,0.62695l-0.01367,0.61719c-0.017,1.587 0.07258,3.17214 0.26758,4.74414c-0.108,0.364 -0.21155,0.74667 -0.31055,1.13867c-0.416,0.945 -0.91797,1.84423 -0.91797,2.86523c0,0.286 0.01302,0.638 0.04102,1h-1.08008c0.028,-0.36 0.04102,-0.713 0.04102,-1c0,-1.341 -0.86467,-2.47044 -1.26367,-3.77344c0.208,-1.65 0.30992,-3.31061 0.29492,-4.97461l-0.01172,-0.61719l0.37305,-0.62695c0.273,-0.474 0.53602,-0.95445 0.79102,-1.43945zM18.32227,31.46484c0.724,0.682 1.55839,1.1258 2.65039,1.3418l-0.01758,1.19531l0.04883,1.5l0.11133,1.5l0.09961,0.83398c-0.173,0.639 -0.2157,1.30428 -0.2207,1.98828c-0.249,-0.946 -0.5285,-1.81733 -0.8125,-2.48633c-0.238,-0.557 -0.91441,-1.30427 -1.19141,-1.57227l-0.00391,-1.76367c0,-1.207 -0.28306,-1.98111 -0.66406,-2.53711zM27.01367,32.51563c-0.011,0.153 -0.01562,0.31733 -0.01562,0.48633l-0.01172,1.76758c-0.234,0.228 -0.76064,0.80441 -1.05664,1.31641l0.04492,-0.58203l0.04688,-1.5l-0.01562,-1.19531c0.362,-0.071 0.69581,-0.16897 1.00781,-0.29297zM23.49414,45.25195c0.24963,0 0.49759,0.25 0.49609,0.75v1h-0.99609v-1c0,-0.5 0.25038,-0.75 0.5,-0.75z"></path></g></g></svg>