<svg xmlns="http://www.w3.org/2000/svg"  viewBox="0 0 48 48" width="48px" height="48px"><path d="M20.331 44.693l-.851-.813-3.376-1.12C12.43 41.253 9.009 38.853 9.009 35c0-1.413.489-2.613 1.304-3.48-.2-.973-.304-1.987-.304-3.027 0-3.493 1.184-6.72 2.831-8.747.196-.267.168-.52-.089-.707-.223-.173-.535-.12-.699.107-.404.547-.773 1.133-1.105 1.733C6.445 20.173 3.009 16.467 3.009 12c0-4.973 4.256-9 9.5-9 5.244 0 9.5 4.027 9.5 9 0 .76-.099 1.493-.284 2.187C22.467 14.067 23.23 14 24.009 14c.772 0 1.531.067 2.269.187-.185-.693-.283-1.427-.283-2.187 0-4.973 4.256-9 9.5-9 5.244 0 9.5 4.027 9.5 9 0 4.467-3.432 8.16-7.928 8.88-.331-.613-.7-1.187-1.103-1.733-.164-.227-.476-.28-.699-.107-.288.2-.295.493-.109.72 1.651 2.027 2.852 5.24 2.852 8.733 0 1.04-.105 2.053-.305 3.027.815.867 1.305 2.067 1.305 3.48 0 3.84-3.427 6.253-7.101 7.76l-3.373 1.12-.851.813c-1.119.893-2.355 1.32-3.675 1.307C22.686 46.013 21.45 45.587 20.331 44.693zM28.009 43c4.82-1.307 9-3.733 9-8 0-2.427-1.713-4-4-4h-1c.651-1.467 1-3.2 1-5 0-5.427-3.459-10-6-10-1.665 0-2.499 1.84-3 4-.501-2.16-1.335-4-3-4-2.541 0-6 4.573-6 10 0 1.8.349 3.533 1 5h-2c-2.287 0-4 1.573-4 4 0 4.267 5.18 6.693 10 8 1.223 1.413 2.565 2.013 4 2C25.443 45.013 26.786 44.413 28.009 43zM17.329 38.2c-1.109-1-2.029-1.987-3.295-3.013L13.009 36c.265-1.187.655-2 3-2l-1.117.68C17.018 37.147 19.89 39 24.009 39s6.991-1.853 9.117-4.32L32.009 34c2.345 0 2.735.813 3 2l-1.025-.813c-1.265 1.027-2.185 2.013-3.295 3.013-2.201 1.96-3.64 5.8-6.68 5.8C20.969 44 19.53 40.16 17.329 38.2zM26.891 41.2c-.384-.133-.785-.213-1.219-.2-.668.027-1.432.547-1.663 1-.232-.453-.996-.973-1.664-1-.435-.013-.837.067-1.223.2.867 1.027 1.764 1.8 2.885 1.8C25.127 43 26.025 42.227 26.891 41.2zM20.007 34c0-.533.425-1.027 1.115-1.387-.073.12-.113.253-.113.387 0 .547.673 1 1.501 1 .828 0 1.501-.453 1.501-1 0-.427-.412-.8-.983-.933.312-.04.64-.067.98-.067 2.208 0 4.001.893 4.001 2 0 1.107-1.793 2-4.001 2C21.801 36 20.007 35.107 20.007 34zM19.773 30.947c-.452-1.187-.769-2.507-.769-3.84 0-1.133.155-2.333.435-3.267.14-.467.319-.893.545-1.227C20.203 22.307 20.539 22 21.009 22c.465 0 .831.227 1.091.547.252.293.431.693.559 1.093.256.8.356 1.773.356 2.547 0 1.28-.203 2.813-.595 3.947 1.041-.16 2.121-.16 3.165 0-.392-1.133-.592-2.667-.592-3.947 0-.773.099-1.747.355-2.547.128-.4.307-.8.559-1.093C26.167 22.227 26.533 22 26.998 22c.465 0 .801.307 1.024.613.227.333.405.76.545 1.227.28.933.436 2.133.436 3.267 0 1.333-.32 2.64-.769 3.827.095.053.188.093.281.147.721.387 1.379.867 1.993 1.413-2.125-1.173-4.104-1.467-6.5-1.48-2.373.013-4.399.307-6.5 1.48C18.189 31.88 18.95 31.347 19.773 30.947zM21.009 26c.44 0 .815.573.948 1.36.037-.4.057-.8.057-1.173 0-.707-.093-1.573-.309-2.253-.108-.333-.236-.587-.372-.747C21.207 23.04 21.103 23 21.009 23c-.005 0-.077.013-.207.2-.14.2-.281.507-.405.92-.248.827-.393 1.933-.393 2.987 0 .187.005.36.019.547C20.105 26.72 20.515 26 21.009 26zM28.003 27.107c0-1.053-.147-2.16-.395-2.987-.124-.413-.265-.72-.405-.92-.111-.16-.181-.2-.205-.2h-.073c-.076.027-.157.067-.252.187-.136.16-.264.413-.372.747-.216.68-.308 1.547-.308 2.253 0 .373.019.773.055 1.173.133-.787.509-1.36.951-1.36.492 0 .901.707.985 1.653C27.997 27.467 28.003 27.293 28.003 27.107zM5.009 13c0-4.36 3.756-8 8.5-8 2.187 0 4.164.773 5.66 2.04C17.621 5.2 15.226 4 12.509 4c-4.744 0-8.5 3.64-8.5 8 0 2.347 1.089 4.493 2.837 5.96C5.693 16.6 5.009 14.867 5.009 13zM28.009 13c0-4.36 3.756-8 8.5-8 2.187 0 4.164.773 5.66 2.04C40.621 5.2 38.226 4 35.509 4c-4.744 0-8.5 3.64-8.5 8 0 1.08.229 2.12.647 3.067.235.04.469.107.701.2C28.13 14.547 28.009 13.787 28.009 13zM24.009 47c6.624 0 12 .227 12 .493 0 .28-5.376.507-12 .507s-12-.227-12-.507C12.009 47.227 17.385 47 24.009 47z"/></svg>