<svg xmlns="http://www.w3.org/2000/svg"  viewBox="0 0 48 48" width="48px" height="48px"><path d="M 30.505859 6 C 25.261859 6 21.005859 10.254812 21.005859 15.507812 C 21.005859 20.747813 25.261859 25 30.505859 25 C 35.749859 25 40.005859 20.747813 40.005859 15.507812 C 40.005859 10.253813 35.749859 6 30.505859 6 z M 10.505859 6.0019531 C 5.2618594 6.0019531 1.0058594 10.254812 1.0058594 15.507812 C 1.0058594 20.747812 5.2618594 25.001953 10.505859 25.001953 C 11.343859 25.001953 12.154734 24.893359 12.927734 24.693359 C 13.238734 24.893359 13.607906 25.000953 14.003906 25.001953 C 15.019906 25.001953 15.861281 24.242859 15.988281 23.255859 C 18.417281 21.535859 20.005859 18.707813 20.005859 15.507812 C 20.005859 10.253813 15.749859 6.0019531 10.505859 6.0019531 z M 30.505859 12 C 32.437859 12 34.005859 13.574813 34.005859 15.507812 C 34.005859 17.427813 32.437859 19 30.505859 19 C 28.573859 19 27.005859 17.427813 27.005859 15.507812 C 27.005859 13.573813 28.573859 12 30.505859 12 z M 10.505859 13.001953 C 11.540859 13.001953 12.430938 13.628562 12.835938 14.601562 L 15.845703 22.228516 C 15.541703 21.508516 14.830906 21.001953 14.003906 21.001953 C 12.899906 21.001953 12.003906 21.894953 12.003906 23.001953 C 12.003906 23.281953 12.059203 23.533437 12.158203 23.773438 L 8.296875 16.681641 C 8.105875 16.335641 8.0058594 15.934812 8.0058594 15.507812 C 8.0058594 14.120812 9.1258594 13.001953 10.505859 13.001953 z M 10.503906 14 C 9.6759063 14 9.0039062 14.680813 9.0039062 15.507812 C 9.0039062 16.334812 9.6759063 17 10.503906 17 C 11.331906 17 12.003906 16.334812 12.003906 15.507812 C 12.003906 14.680813 11.331906 14 10.503906 14 z M 30.505859 14 C 29.677859 14 29.005859 14.667813 29.005859 15.507812 C 29.005859 16.334812 29.677859 17.001 30.505859 17 C 31.333859 17 32.005859 16.334812 32.005859 15.507812 C 32.005859 14.667812 31.333859 14 30.505859 14 z M 20.521484 18.597656 L 20.306641 19.265625 C 19.706641 20.825625 18.746344 22.211688 17.527344 23.304688 L 16.896484 23.8125 C 16.541484 25.0795 15.380859 25.998047 14.005859 25.998047 L 10.001953 25.998047 C 8.9009531 25.998047 8.0058594 26.891047 8.0058594 27.998047 L 8.0058594 28.998047 L 9.5058594 28.998047 C 9.7808594 28.998047 10.005859 29.225859 10.005859 29.505859 C 10.005859 29.771859 9.7808594 29.998047 9.5058594 29.998047 L 5.4960938 29.998047 L 5.4921875 29.998047 L 5.0058594 29.998047 C 4.5108594 29.998047 4.0985781 30.359172 4.0175781 30.826172 L 2.8125 29.853516 C 2.3985 29.533516 1.788 29 1.5 29 C 0.942 29 1.0078125 30.307 1.0078125 31 L 1.0078125 35 C 1.0078125 35.693 0.941 37 1.5 37 C 1.788 37 2.3975 36.479484 2.8125 36.146484 L 4.0175781 35.173828 C 4.0975781 35.640828 4.5098594 36.001953 5.0058594 36.001953 L 7.0058594 36.001953 C 7.0058594 36.548953 7.4538594 37.001953 8.0058594 37.001953 L 9.5078125 37.001953 C 9.7828125 37.001953 10.007812 37.227812 10.007812 37.507812 C 10.007812 37.773812 9.7828125 38.001953 9.5078125 38.001953 L 8.0058594 38.001953 L 8.0058594 46.001953 C 8.0058594 46.369168 8.1110956 46.706514 8.2832031 47.001953 L 8.0058594 47.001953 C 6.9048594 47.001953 4.0058594 47.227812 4.0058594 47.507812 C 4.0058594 47.773812 6.9048594 48.001953 8.0058594 48.001953 L 10.005859 48.001953 L 10.001953 47.998047 L 32.009766 47.998047 L 32.005859 48.001953 L 34.005859 48.001953 C 35.106859 48.001953 41.005859 47.773812 41.005859 47.507812 C 41.005859 47.227812 35.106859 47.001953 34.005859 47.001953 L 33.730469 47.001953 C 33.902387 46.706558 34.007812 46.365376 34.007812 45.998047 L 34.007812 44.998047 L 36.005859 44.998047 L 36.005859 45.332031 C 36.005859 45.706031 36.304828 45.998047 36.673828 45.998047 L 41.337891 45.998047 C 41.706891 45.998047 42.005859 45.705031 42.005859 45.332031 L 42.005859 42.664062 C 42.005859 42.304063 41.706891 41.998047 41.337891 41.998047 L 36.673828 41.998047 C 36.304828 41.998047 36.005859 42.304063 36.005859 42.664062 L 36.005859 42.998047 L 34.007812 42.998047 L 34.007812 27.998047 C 34.007813 26.891047 33.112719 25.998047 32.011719 25.998047 L 20.513672 25.998047 C 20.237672 25.998047 20.013672 25.772859 20.013672 25.505859 C 20.013672 25.225859 20.237672 24.998047 20.513672 24.998047 L 26.029297 24.998047 C 23.698297 23.905047 21.837078 21.972938 20.830078 19.585938 L 20.521484 18.597656 z M 45.373047 27.027344 C 45.095047 27.027344 44.515906 27.361297 44.003906 27.654297 L 44.005859 34.507812 C 44.005859 34.773812 43.780859 35 43.505859 35 C 43.229859 35 43.005859 34.774813 43.005859 34.507812 L 43.005859 28.226562 L 38.980469 30.466797 C 38.721469 30.612797 38.480688 30.773 38.304688 31 L 35.005859 31 L 35.005859 38 L 38.283203 38 C 38.462203 38.24 38.711469 38.413547 38.980469 38.560547 L 43.607422 41.146484 C 44.177422 41.466484 45.019047 42.001 45.373047 42 C 46.057047 42 45.976562 40.720344 45.976562 40.027344 L 45.976562 29 C 45.976563 28.32 46.057047 27.027344 45.373047 27.027344 z M 15.503906 32 C 16.331906 32 17.003906 32.680813 17.003906 33.507812 C 17.003906 34.334812 16.331906 35.001 15.503906 35 C 14.675906 35 14.003906 34.334812 14.003906 33.507812 C 14.003906 32.680813 14.675906 32 15.503906 32 z M 25.003906 32.001953 C 26.107906 32.001953 27.003906 32.894953 27.003906 34.001953 C 27.003906 35.107953 26.107906 36.001953 25.003906 36.001953 C 23.899906 36.001953 23.003906 35.108953 23.003906 34.001953 C 23.003906 32.894953 23.899906 32.001953 25.003906 32.001953 z M 22.005859 42.001953 C 23.109859 42.001953 24.007812 42.454953 24.007812 43.001953 L 24.003906 46.001953 L 20.005859 46.001953 L 20.005859 43.001953 C 20.005859 42.454953 20.901859 42.001953 22.005859 42.001953 z"/></svg>