<svg xmlns="http://www.w3.org/2000/svg" xmlns:xlink="http://www.w3.org/1999/xlink" viewBox="0,0,256,256" width="48px" height="48px" fill-rule="nonzero"><g fill="#fcfafa" fill-rule="nonzero" stroke="none" stroke-width="1" stroke-linecap="butt" stroke-linejoin="miter" stroke-miterlimit="10" stroke-dasharray="" stroke-dashoffset="0" font-family="none" font-weight="none" font-size="none" text-anchor="none" style="mix-blend-mode: normal"><g transform="scale(5.33333,5.33333)"><path d="M20.331,44.693l-0.851,-0.813l-3.376,-1.12c-3.674,-1.507 -7.095,-3.907 -7.095,-7.76c0,-1.413 0.489,-2.613 1.304,-3.48c-0.2,-0.973 -0.304,-1.987 -0.304,-3.027c0,-3.493 1.184,-6.72 2.831,-8.747c0.196,-0.267 0.168,-0.52 -0.089,-0.707c-0.223,-0.173 -0.535,-0.12 -0.699,0.107c-0.404,0.547 -0.773,1.133 -1.105,1.733c-4.502,-0.706 -7.938,-4.412 -7.938,-8.879c0,-4.973 4.256,-9 9.5,-9c5.244,0 9.5,4.027 9.5,9c0,0.76 -0.099,1.493 -0.284,2.187c0.742,-0.12 1.505,-0.187 2.284,-0.187c0.772,0 1.531,0.067 2.269,0.187c-0.185,-0.693 -0.283,-1.427 -0.283,-2.187c0,-4.973 4.256,-9 9.5,-9c5.244,0 9.5,4.027 9.5,9c0,4.467 -3.432,8.16 -7.928,8.88c-0.331,-0.613 -0.7,-1.187 -1.103,-1.733c-0.164,-0.227 -0.476,-0.28 -0.699,-0.107c-0.288,0.2 -0.295,0.493 -0.109,0.72c1.651,2.027 2.852,5.24 2.852,8.733c0,1.04 -0.105,2.053 -0.305,3.027c0.815,0.867 1.305,2.067 1.305,3.48c0,3.84 -3.427,6.253 -7.101,7.76l-3.373,1.12l-0.851,0.813c-1.119,0.893 -2.355,1.32 -3.675,1.307c-1.322,0.013 -2.558,-0.413 -3.677,-1.307zM28.009,43c4.82,-1.307 9,-3.733 9,-8c0,-2.427 -1.713,-4 -4,-4h-1c0.651,-1.467 1,-3.2 1,-5c0,-5.427 -3.459,-10 -6,-10c-1.665,0 -2.499,1.84 -3,4c-0.501,-2.16 -1.335,-4 -3,-4c-2.541,0 -6,4.573 -6,10c0,1.8 0.349,3.533 1,5h-2c-2.287,0 -4,1.573 -4,4c0,4.267 5.18,6.693 10,8c1.223,1.413 2.565,2.013 4,2c1.434,0.013 2.777,-0.587 4,-2zM17.329,38.2c-1.109,-1 -2.029,-1.987 -3.295,-3.013l-1.025,0.813c0.265,-1.187 0.655,-2 3,-2l-1.117,0.68c2.126,2.467 4.998,4.32 9.117,4.32c4.119,0 6.991,-1.853 9.117,-4.32l-1.117,-0.68c2.345,0 2.735,0.813 3,2l-1.025,-0.813c-1.265,1.027 -2.185,2.013 -3.295,3.013c-2.201,1.96 -3.64,5.8 -6.68,5.8c-3.04,0 -4.479,-3.84 -6.68,-5.8zM26.891,41.2c-0.384,-0.133 -0.785,-0.213 -1.219,-0.2c-0.668,0.027 -1.432,0.547 -1.663,1c-0.232,-0.453 -0.996,-0.973 -1.664,-1c-0.435,-0.013 -0.837,0.067 -1.223,0.2c0.867,1.027 1.764,1.8 2.885,1.8c1.12,0 2.018,-0.773 2.884,-1.8zM20.007,34c0,-0.533 0.425,-1.027 1.115,-1.387c-0.073,0.12 -0.113,0.253 -0.113,0.387c0,0.547 0.673,1 1.501,1c0.828,0 1.501,-0.453 1.501,-1c0,-0.427 -0.412,-0.8 -0.983,-0.933c0.312,-0.04 0.64,-0.067 0.98,-0.067c2.208,0 4.001,0.893 4.001,2c0,1.107 -1.793,2 -4.001,2c-2.207,0 -4.001,-0.893 -4.001,-2zM19.773,30.947c-0.452,-1.187 -0.769,-2.507 -0.769,-3.84c0,-1.133 0.155,-2.333 0.435,-3.267c0.14,-0.467 0.319,-0.893 0.545,-1.227c0.219,-0.306 0.555,-0.613 1.025,-0.613c0.465,0 0.831,0.227 1.091,0.547c0.252,0.293 0.431,0.693 0.559,1.093c0.256,0.8 0.356,1.773 0.356,2.547c0,1.28 -0.203,2.813 -0.595,3.947c1.041,-0.16 2.121,-0.16 3.165,0c-0.392,-1.133 -0.592,-2.667 -0.592,-3.947c0,-0.773 0.099,-1.747 0.355,-2.547c0.128,-0.4 0.307,-0.8 0.559,-1.093c0.26,-0.32 0.626,-0.547 1.091,-0.547c0.465,0 0.801,0.307 1.024,0.613c0.227,0.333 0.405,0.76 0.545,1.227c0.28,0.933 0.436,2.133 0.436,3.267c0,1.333 -0.32,2.64 -0.769,3.827c0.095,0.053 0.188,0.093 0.281,0.147c0.721,0.387 1.379,0.867 1.993,1.413c-2.125,-1.173 -4.104,-1.467 -6.5,-1.48c-2.373,0.013 -4.399,0.307 -6.5,1.48c0.681,-0.614 1.442,-1.147 2.265,-1.547zM21.009,26c0.44,0 0.815,0.573 0.948,1.36c0.037,-0.4 0.057,-0.8 0.057,-1.173c0,-0.707 -0.093,-1.573 -0.309,-2.253c-0.108,-0.333 -0.236,-0.587 -0.372,-0.747c-0.126,-0.147 -0.23,-0.187 -0.324,-0.187c-0.005,0 -0.077,0.013 -0.207,0.2c-0.14,0.2 -0.281,0.507 -0.405,0.92c-0.248,0.827 -0.393,1.933 -0.393,2.987c0,0.187 0.005,0.36 0.019,0.547c0.082,-0.934 0.492,-1.654 0.986,-1.654zM28.003,27.107c0,-1.053 -0.147,-2.16 -0.395,-2.987c-0.124,-0.413 -0.265,-0.72 -0.405,-0.92c-0.111,-0.16 -0.181,-0.2 -0.205,-0.2h-0.073c-0.076,0.027 -0.157,0.067 -0.252,0.187c-0.136,0.16 -0.264,0.413 -0.372,0.747c-0.216,0.68 -0.308,1.547 -0.308,2.253c0,0.373 0.019,0.773 0.055,1.173c0.133,-0.787 0.509,-1.36 0.951,-1.36c0.492,0 0.901,0.707 0.985,1.653c0.013,-0.186 0.019,-0.36 0.019,-0.546zM5.009,13c0,-4.36 3.756,-8 8.5,-8c2.187,0 4.164,0.773 5.66,2.04c-1.548,-1.84 -3.943,-3.04 -6.66,-3.04c-4.744,0 -8.5,3.64 -8.5,8c0,2.347 1.089,4.493 2.837,5.96c-1.153,-1.36 -1.837,-3.093 -1.837,-4.96zM28.009,13c0,-4.36 3.756,-8 8.5,-8c2.187,0 4.164,0.773 5.66,2.04c-1.548,-1.84 -3.943,-3.04 -6.66,-3.04c-4.744,0 -8.5,3.64 -8.5,8c0,1.08 0.229,2.12 0.647,3.067c0.235,0.04 0.469,0.107 0.701,0.2c-0.227,-0.72 -0.348,-1.48 -0.348,-2.267zM24.009,47c6.624,0 12,0.227 12,0.493c0,0.28 -5.376,0.507 -12,0.507c-6.624,0 -12,-0.227 -12,-0.507c0,-0.266 5.376,-0.493 12,-0.493z"></path></g></g></svg>