<svg xmlns="http://www.w3.org/2000/svg" xmlns:xlink="http://www.w3.org/1999/xlink" viewBox="0,0,256,256" width="48px" height="48px" fill-rule="nonzero"><g fill="#fcfafa" fill-rule="nonzero" stroke="none" stroke-width="1" stroke-linecap="butt" stroke-linejoin="miter" stroke-miterlimit="10" stroke-dasharray="" stroke-dashoffset="0" font-family="none" font-weight="none" font-size="none" text-anchor="none" style="mix-blend-mode: normal"><g transform="scale(5.33333,5.33333)"><path d="M23.98242,2c-5.831,0.16 -10.35602,5.39922 -12.91602,10.19922c-0.567,1.053 -0.99763,2.18731 -1.39062,3.32031c-0.532,1.533 -0.89983,3.45308 -0.92383,5.08008c-0.002,0.133 -0.11881,0.24023 -0.25781,0.24023c-0.139,0 -0.25005,-0.11895 -0.24805,-0.25195c0.029,-1.6 0.12502,-3.04156 0.54102,-4.60156c1.048,-3.934 3.25733,-7.97325 6.36133,-10.90625c-5.222,3.64 -9.15039,9.90781 -9.15039,15.50781c0,8.506 9.03011,25.29116 17.91211,25.41016c0.024,0 0.04922,-0.01172 0.07422,-0.01172c2.846,0.08 5.41112,-2.61328 7.07813,-4.61328c0.618,-0.747 1.1967,-1.58739 1.7207,-2.40039c2.211,-3.427 3.96553,-7.34723 5.14453,-11.24023c0.653,-2.16 1.32217,-4.83981 1.32617,-7.13281c0.001,-0.146 0.11686,-0.25195 0.25586,-0.25195c0.139,0 0.24905,0.11895 0.24805,0.25195c-0.046,0.92 -0.05234,1.76036 -0.15234,2.69336c-0.166,1.533 -0.52478,3.10661 -0.92578,4.59961c-1.214,4.494 -3.30186,9.17528 -6.00586,12.98828c-0.371,0.52 -0.77866,1.05294 -1.22266,1.58594c5.904,-5.413 10.55078,-15.78591 10.55078,-21.87891c0,-8.52 -9.089,-18.58789 -18,-18.58789zM24.00195,6c3.667,0 7.59212,3.09372 9.20313,7.38672c0.337,0.894 1.43748,2.42625 2.02148,2.90625c1.165,0.947 1.77148,2.41403 1.77148,3.70703c0,3.907 -2.33264,4.00027 -4.43164,5.94727c-0.808,0.826 -1.77683,3.42573 -2.42383,5.05273c-2.101,5.053 -2.58462,11.00095 -6.14062,11.00195c-3.556,0 -4.04353,-5.947 -6.14453,-11c-0.647,-1.626 -1.61583,-4.22769 -2.42383,-5.05469c-2.099,-1.947 -4.43164,-2.03831 -4.43164,-5.94531c0,-1.294 0.60648,-2.76003 1.77149,-3.70703c0.584,-0.48 1.68448,-2.0152 2.02148,-2.9082c1.611,-4.294 5.54003,-7.38672 9.20703,-7.38672zM26.95508,12.66797c-0.11226,0.00957 -0.22944,0.04384 -0.35156,0.10547c-1.464,0.64 -0.65117,3.57191 -0.32617,4.87891c0.815,2.28 2.27981,4.56055 4.88281,4.56055c1.466,0 3.0943,-1.62758 2.2793,-3.26758c-0.325,-0.64 -1.30023,-0.81297 -2.11523,-1.29297c-1.139,-0.653 -1.95252,-1.7988 -2.60352,-3.0918c-0.42788,-0.85225 -0.97982,-1.95956 -1.76562,-1.89258zM21.04688,12.66992c-0.7858,-0.0668 -1.33775,1.03925 -1.76562,1.89063c-0.651,1.293 -1.46452,2.44075 -2.60352,3.09375c-0.815,0.48 -1.79219,0.65297 -2.11719,1.29297c-0.815,1.64 0.8143,3.26658 2.2793,3.26758c2.604,0 4.06781,-2.28055 4.88281,-4.56055c0.326,-1.307 1.13978,-4.24086 -0.32422,-4.88086c-0.12213,-0.06163 -0.2393,-0.09397 -0.35156,-0.10352zM24.00195,19c-0.457,0 -2.60094,5 -1.83594,5c0.917,0 1.37894,-1 1.83594,-1c0.457,0 0.91698,1 1.83398,1c0.766,0 -1.37698,-5 -1.83398,-5zM23.99805,26c-2.292,0 -2.99609,0.893 -2.99609,2c0,0.627 0.824,3.48 1,6c0,2.68 0.93809,6 1.99609,6c1.059,0 2.00391,-3.32 2.00391,-6c0.176,-2.52 1,-5.373 1,-6c0,-1.107 -0.71191,-2 -3.00391,-2zM11.40234,26.49414c0.19,0.253 0.27005,0.693 0.37305,1c0.17,0.493 0.32281,0.98519 0.50781,1.49219c0.533,1.426 1.17758,2.82683 1.89258,4.17383c0.647,1.227 1.36694,2.41253 2.21094,3.51953c0.264,0.333 0.54113,0.63966 0.82813,0.97266c0.236,0.254 0.60448,0.5338 0.77148,0.8418c-0.879,0.04 -2.13097,-1.23823 -2.66797,-1.86523c-1.669,-1.934 -3.00255,-4.60136 -3.68555,-7.06836c-0.195,-0.707 -0.60947,-2.39941 -0.23047,-3.06641zM24.00195,47c-7.176,0 -13,0.22781 -13,0.50781c0,0.266 5.824,0.49219 13,0.49219c7.176,0 13,-0.22519 13,-0.49219c0,-0.28 -5.824,-0.50781 -13,-0.50781z"></path></g></g></svg>