<svg xmlns="http://www.w3.org/2000/svg" xmlns:xlink="http://www.w3.org/1999/xlink" viewBox="0,0,256,256" width="48px" height="48px" fill-rule="nonzero"><g fill="#fcfafa" fill-rule="nonzero" stroke="none" stroke-width="1" stroke-linecap="butt" stroke-linejoin="miter" stroke-miterlimit="10" stroke-dasharray="" stroke-dashoffset="0" font-family="none" font-weight="none" font-size="none" text-anchor="none" style="mix-blend-mode: normal"><g transform="scale(5.33333,5.33333)"><path d="M26,2.00391c-1.104,0 -2,0.673 -2,1.5v26.86523c0,0.714 -0.28505,1.36194 -0.74805,1.83594c0.522,0.113 1.02038,0.27638 1.48438,0.48438c0.252,0.113 0.36395,0.40816 0.25195,0.66016c-0.113,0.252 -0.40816,0.36395 -0.66016,0.25195c-0.828,-0.372 -1.90398,-0.58461 -2.95898,-0.59961c-0.444,0 -0.90114,0.03542 -1.36914,0.10742c-3.864,0.596 -7,3.4957 -7,6.4707c0,2.975 3.13695,4.9075 7.00195,4.3125c2.212,-0.34 4.18475,-1.43809 5.46875,-2.87109c0.17,-0.18 0.2697,-0.32067 0.2207,-0.26367c1.424,-1.847 2.30859,-4.13677 2.30859,-5.75977v-21c3,0 7,2.777 7,6c0,4.015 -1.488,6.361 -3,9l2,1c3.444,-4.745 5,-7.892 5,-11c0,-9 -10.99905,-11 -10.99805,-15l-0.00195,-0.49414c0,-0.827 -0.897,-1.5 -2,-1.5zM27.99805,6.46094c0.322,0.385 0.69041,0.73755 1.06641,1.06055c1.044,0.903 2.54922,1.90953 3.82422,2.89453c2.693,2.082 5.11133,4.57103 5.11133,8.58203c0,0.32 -0.01964,0.6418 -0.05664,0.9668c-0.377,-3.415 -2.60169,-5.65183 -5.05469,-7.54883c-1.275,-0.985 -3.53967,-1.98897 -4.88867,-2.41797zM18.40234,34.99805c0.91109,0.00344 1.59766,0.49653 1.59766,1.20703c0,0.812 -0.896,1.60658 -2,1.76758c-1.104,0.161 -2,-0.36573 -2,-1.17773c0,-0.812 0.896,-1.60658 2,-1.76758c0.138,-0.02025 0.27219,-0.02979 0.40234,-0.0293zM19,46.99805c-1.927,0 -7,0.22 -7,0.5c0,0.279 5.073,0.5 7,0.5c4.679,0 17,-0.221 17,-0.5c0,-0.28 -12.321,-0.5 -17,-0.5z"></path></g></g></svg>