<svg xmlns="http://www.w3.org/2000/svg" xmlns:xlink="http://www.w3.org/1999/xlink" viewBox="0,0,256,256" width="48px" height="48px" fill-rule="nonzero"><g fill="#fcfafa" fill-rule="nonzero" stroke="none" stroke-width="1" stroke-linecap="butt" stroke-linejoin="miter" stroke-miterlimit="10" stroke-dasharray="" stroke-dashoffset="0" font-family="none" font-weight="none" font-size="none" text-anchor="none" style="mix-blend-mode: normal"><g transform="scale(5.33333,5.33333)"><path d="M24.003,47.001c9.933,0 17.997,0.224 17.997,0.5c0,0.276 -8.064,0.5 -17.997,0.5c-9.933,0 -17.997,-0.224 -17.997,-0.5c0,-0.276 8.063,-0.5 17.997,-0.5zM12,39.001c-7.016,-1.653 -12,-1 -12,-4.565c0,-0.352 0.639,-0.435 1,-0.435c4.247,0 6.741,0.875 12.696,0.988c0.045,0.008 0.091,0.012 0.139,0.012h6.228c-0.053,-0.153 -0.081,-0.317 -0.081,-0.489v-0.511h-5.94l-0.032,-0.211c-0.016,-0.185 -0.015,-0.409 0.024,-0.639c0.085,-0.481 0.231,-1.04 0.44,-1.495c0.173,-0.38 0.331,-0.552 0.416,-0.62l0.052,-0.036h5.04v-0.509c0,-0.171 0.028,-0.336 0.081,-0.491h-4.872c0.447,-1.532 0.809,-3.003 0.809,-4c0,-1.308 0.808,-3.075 1.149,-4.571c0.223,-0.98 0.291,-1.851 0.423,-2.489c3.339,0.36 6.549,1.077 9.796,1.916c0.132,0.043 0.275,-0.031 0.317,-0.163c0.043,-0.132 -0.031,-0.275 -0.163,-0.317c-1.123,-0.419 -2.189,-0.832 -3.341,-1.175c-2.273,-0.676 -4.476,-1.025 -6.187,-1.196l0.006,-0.004c-0.603,-0.477 -0.276,-1.113 -0.789,-2.368c-0.477,-1.167 -1.336,-2.519 -2.211,-3.632c-0.571,-0.724 -1.944,-1.139 -1.999,-1.949c0.535,-0.869 1.841,-1.824 2.544,-2.372c0.12,-0.069 0.161,-0.225 0.092,-0.345c-0.069,-0.12 -0.225,-0.161 -0.345,-0.092c-1.325,0.599 -2.345,1.056 -3.093,2.233c-0.396,-0.257 -0.796,-0.475 -1.199,-0.475c-3.68,0 -2.915,7 -3.384,7c-0.633,0 -0.616,-2.271 -0.616,-4c0,-2.769 1.177,-5.525 4.051,-6.968c0.605,-0.304 1.289,-0.179 2.051,-0.353c0.861,-0.199 1.823,-0.679 2.898,-0.679c1.867,0 2.927,0.312 4,1h0.555c0.759,0 1.795,0.883 2.913,2.301c0.497,0.632 0.805,1.723 1.319,2.536c0.527,0.835 1.107,1.513 1.761,2.357c2.007,2.587 3.192,5.851 3.452,8.805c0.511,0.489 1,1.255 1,2v1c0,1.053 1,1.948 1,3c0,0.959 0.319,1.972 0.697,3h-4.776c0.053,0.155 0.083,0.32 0.083,0.491v0.509h5.052l0.052,0.036c0.085,0.068 0.243,0.24 0.417,0.62c0.209,0.455 0.355,1.013 0.44,1.495c0.037,0.225 0.039,0.449 0.023,0.633l-0.032,0.216h-5.952v0.511c0,0.172 -0.029,0.336 -0.083,0.489h6.244c0.503,0 0.731,-0.465 0.805,-1h12.03c0.363,0 1,0.083 1,0.435c0,1.324 -9.887,6.565 -24,6.565c-4.776,0.001 -8.412,-1.153 -12,-1.999zM27.004,34.511v-4.017c0,-0.244 -0.18,-0.449 -0.412,-0.492h-5.2c-0.233,0.043 -0.411,0.248 -0.411,0.492v1.508h-0.492c-0.276,0 -0.5,0.225 -0.5,0.5c0,0.276 0.224,0.5 0.5,0.5h0.492v1.509c0,0.244 0.173,0.447 0.404,0.491h5.212c0.231,-0.045 0.407,-0.247 0.407,-0.491zM21.981,34.011v-1.009h1.524c0.275,0 0.5,-0.224 0.5,-0.5c0,-0.275 -0.225,-0.5 -0.5,-0.5h-1.524v-1.008h4.023v3.017zM20.176,14.781c-0.296,-2.003 -1.136,-3.876 -2.405,-5.415c-0.349,-0.428 -0.98,-0.488 -1.405,-0.137c-0.427,0.351 -0.488,0.98 -0.137,1.408c0.975,1.183 1.944,2.679 2.491,4.267c0.147,0.517 1.627,1.569 1.456,-0.123z"></path></g></g></svg>