<svg xmlns="http://www.w3.org/2000/svg"  viewBox="0 0 48 48" width="48px" height="48px"><path d="M23.995 46.995c8.836 0 16.008.225 16.008.501s-7.172.501-16.008.501c-8.836 0-16.008-.225-16.008-.501S15.159 46.995 23.995 46.995zM15.003 38.998v-9l2 3 2-3 2 3 3-3 3.02 2.971c.633.636 1.511 1.029 2.48 1.029 1.923 0 3.487-1.553 3.5-3.472v8.472H15.003zM20.003 37.998v-4.693l-1-1.503-1.168 1.752c-.199.296-.516.444-.832.444v4H20.003zM.001 30.999c0-.747.409-1.397 1.017-1.741.303-7.384 5.109-13.26 10.985-13.26 3.155 0 6.001 1.695 8.008 4.407.191-6.9 3.699-12.407 7.992-12.407 2.271 0 4.321 1.541 5.777 4.015.073-.008.148-.013.224-.013 1.104 0 2.001.896 2.001 2s-.897 2-2.001 2c-1.104 0-2.001-.896-2.001-2 0-.636.297-1.203.761-1.569-1.029-1.52-2.337-2.432-3.761-2.432-1.073 0-2.048 1.164-2.767 3.056-.776.115-1.476.403-2.108.827.925-2.437 2.396-4.272 4.263-4.811l.147-.017-.535-.055c-2.889 0-5.707 3.273-6.661 8.284-.697 1.369-1.216 2.943-1.585 4.516-1.871-2.963-4.712-4.8-7.753-4.8-4.356 0-8.296 3.76-9.571 9.204l.017.3c.471-1.789 1.293-3.393 2.389-4.56 1.851-2.457 4.424-3.944 7.164-3.944 2.955 0 5.719 1.733 7.588 4.548-.412 2.007-.588 3.964-.588 5.452v1.001c-.319 0-.636.148-.833.444l-1.167 1.752-1.069-1.603c-.479-4.855-3.403-8.595-6.931-8.595-3.149 0-5.737 3.649-5.981 8.281.587.349.981.989.981 1.72 0 1.104-.897 2-2.001 2C.898 32.999.001 32.103.001 30.999zM42.001 30.999c0-.732.395-1.372.983-1.721-.228-4.079-2.372-7.28-4.98-7.28-2.853 0-5.241 2.657-5.851 6.215-.048-.057-.099-.111-.151-.165-.005-2.883-.045-5.599-.287-7.883 1.312-.749 2.769-1.167 4.288-1.167 2.537 0 4.967 1.915 6.469 4.981.723 1.227 1.213 2.735 1.42 4.324l-.003-.328c-.665-5.845-4.159-9.977-7.887-9.977-1.563 0-3.061.441-4.401 1.233-.051-.361-.108-.709-.171-1.044-.001-.004-.003-.008-.003-.013 1.393-.755 2.943-1.176 4.575-1.176 4.796 0 8.721 5.429 8.987 12.263.604.344 1.013.995 1.013 1.739 0 1.104-.897 2-2.001 2C42.898 32.999 42.001 32.103 42.001 30.999zM27.002 30.498c0-1.38 1.121-2.5 2.501-2.5 1.38 0 2.501 1.12 2.501 2.5s-1.121 2.5-2.501 2.5C28.123 32.998 27.002 31.878 27.002 30.498zM21.003 31.197l-1-1.5v-1.699c0-5.217 2.031-14 7-14 3.597 0 3.963 5.8 3.996 13.336-.453-.215-.961-.336-1.496-.336-.98 0-1.867.404-2.503 1.052l.001-5.459c-.441-1.408-.753-2.632-1.999-3.593.324.155.501.211.807.432.811.588 1.323 1.597 1.747 2.476.673 1.399 1.092 3.196 1.439 4.759l-.001-.7c-.024-2.916-.1-5.453-.348-7.401-.165-1.301-.395-2.221-.679-2.8-.259-.525-.555-.765-.964-.765-3.875 0-6 7.509-6 13V31.197z"/></svg>