<svg xmlns="http://www.w3.org/2000/svg"  viewBox="0 0 48 48" width="48px" height="48px"><path d="M 2.0039062 6 L 2.0039062 44 C 2.6159063 44.796 3.2849062 45 4.0039062 45 C 5.2039063 45 5.7839063 43 7.0039062 43 C 7.7479062 43 8.7849063 43.281 10.003906 44 C 8.0229062 40.219 8.0039062 37 6.0039062 34 L 6.0039062 31 C 14.076906 25.624 18.001953 21 18.001953 6 L 2.0039062 6 z M 19.005859 6 C 19.005859 9.192 18.828656 11.931313 18.472656 14.320312 C 19.972656 15.370313 21.901906 16 24.003906 16 C 26.105906 16 28.033203 15.369312 29.533203 14.320312 C 29.178203 11.931312 29.001953 9.191 29.001953 6 L 19.005859 6 z M 29.996094 6 C 29.996094 21 33.921141 25.624 41.994141 31 L 41.994141 34 C 39.994141 37 39.975141 40.219 37.994141 44 C 39.213141 43.281 40.250141 43 40.994141 43 C 42.214141 43 42.794141 45 43.994141 45 C 44.713141 45 45.382141 44.796 45.994141 44 L 45.994141 6 L 29.996094 6 z M 35.494141 9.5 C 36.783141 13.822 38.12825 18.11875 40.03125 22.21875 C 40.53825 23.30975 41.066953 24.362531 41.626953 25.394531 C 41.179953 23.716531 40.839203 21.990203 40.658203 20.283203 C 40.526203 19.031203 40.453406 17.813688 40.441406 16.554688 C 40.434406 15.864688 40.481141 15.187 40.494141 14.5 C 40.926141 17.65 41.427094 20.889891 42.246094 23.962891 C 42.487094 24.866891 42.743531 25.739516 43.019531 26.603516 C 43.060531 24.562516 43.175094 22.521 43.496094 20.5 C 43.786094 23.519 43.994141 25.803906 43.994141 29.503906 C 43.993141 29.665906 43.913625 29.824922 43.765625 29.919922 C 43.534625 30.068922 43.224219 30.000531 43.074219 29.769531 C 41.829219 27.825531 40.724422 25.933703 39.732422 23.845703 C 37.536422 19.221703 36.311141 14.531 35.494141 9.5 z M 12.501953 9.5019531 C 11.684953 14.531953 10.459672 19.221703 8.2636719 23.845703 C 7.2726719 25.933703 6.166875 27.827484 4.921875 29.771484 C 4.772875 30.001484 4.4624687 30.069875 4.2304688 29.921875 C 4.0824687 29.827875 4.0029531 29.666906 4.0019531 29.503906 C 4.0019531 25.803906 4.211 23.520953 4.5 20.501953 C 4.821 22.522953 4.9355625 24.564469 4.9765625 26.605469 C 5.2525625 25.741469 5.5070469 24.868844 5.7480469 23.964844 C 6.5670469 20.890844 7.0699531 17.650953 7.5019531 14.501953 C 7.5149531 15.188953 7.5616875 15.867641 7.5546875 16.556641 C 7.5426875 17.815641 7.4698906 19.031203 7.3378906 20.283203 C 7.1568906 21.990203 6.8161406 23.717531 6.3691406 25.394531 C 6.9291406 24.362531 7.4578438 23.311703 7.9648438 22.220703 C 9.8668438 18.120703 11.212953 13.822953 12.501953 9.5019531 z M 19.5 10.511719 C 20.677 11.584719 22.445953 11.999 24.001953 12 C 25.573953 11.999 27.304953 11.583719 28.501953 10.511719 C 26.439953 13.767719 21.525 13.867719 19.5 10.511719 z M 3.0039062 31.001953 L 5.0039062 31.001953 L 5.0039062 34 L 3.0039062 34 L 3.0039062 31.001953 z M 42.994141 31.001953 L 44.994141 31.001953 L 44.994141 34 L 42.994141 34 L 42.994141 31.001953 z M 4.4355469 34.988281 C 4.7075469 34.952281 4.9600938 35.145969 4.9960938 35.417969 C 5.2190937 37.333969 5.7649063 39.696766 6.5039062 41.509766 C 4.8419063 39.829766 4.3078125 37.859781 4.0078125 35.550781 C 3.9718125 35.278781 4.1635469 35.024281 4.4355469 34.988281 z M 43.5625 34.990234 C 43.8345 35.026234 44.026234 35.278781 43.990234 35.550781 C 43.690234 37.859781 43.156094 39.828766 41.496094 41.509766 C 42.234094 39.696766 42.778953 37.333969 43.001953 35.417969 C 43.037953 35.145969 43.2905 34.954234 43.5625 34.990234 z M 6.0019531 47 C 4.3499531 47 0.001953125 47.22 0.001953125 47.5 C 0.001953125 47.779 4.3499531 48 6.0019531 48 C 8.7549531 48 16.001953 47.779 16.001953 47.5 C 16.001953 47.22 8.7549531 47 6.0019531 47 z M 42 47 C 39.247 47 32.001953 47.22 32.001953 47.5 C 32.001953 47.779 39.247 48 42 48 C 43.652 48 48 47.779 48 47.5 C 48 47.22 43.652 47 42 47 z"/></svg>