<svg xmlns="http://www.w3.org/2000/svg" xmlns:xlink="http://www.w3.org/1999/xlink" viewBox="0,0,256,256" width="48px" height="48px" fill-rule="nonzero"><g fill="#fcfafa" fill-rule="nonzero" stroke="none" stroke-width="1" stroke-linecap="butt" stroke-linejoin="miter" stroke-miterlimit="10" stroke-dasharray="" stroke-dashoffset="0" font-family="none" font-weight="none" font-size="none" text-anchor="none" style="mix-blend-mode: normal"><g transform="scale(5.33333,5.33333)"><path d="M23.995,46.995c8.836,0 16.008,0.225 16.008,0.501c0,0.276 -7.172,0.501 -16.008,0.501c-8.836,0 -16.008,-0.225 -16.008,-0.501c0,-0.276 7.172,-0.501 16.008,-0.501zM15.003,38.998v-9l2,3l2,-3l2,3l3,-3l3.02,2.971c0.633,0.636 1.511,1.029 2.48,1.029c1.923,0 3.487,-1.553 3.5,-3.472v8.472zM20.003,37.998v-4.693l-1,-1.503l-1.168,1.752c-0.199,0.296 -0.516,0.444 -0.832,0.444v4zM0.001,30.999c0,-0.747 0.409,-1.397 1.017,-1.741c0.303,-7.384 5.109,-13.26 10.985,-13.26c3.155,0 6.001,1.695 8.008,4.407c0.191,-6.9 3.699,-12.407 7.992,-12.407c2.271,0 4.321,1.541 5.777,4.015c0.073,-0.008 0.148,-0.013 0.224,-0.013c1.104,0 2.001,0.896 2.001,2c0,1.104 -0.897,2 -2.001,2c-1.104,0 -2.001,-0.896 -2.001,-2c0,-0.636 0.297,-1.203 0.761,-1.569c-1.029,-1.52 -2.337,-2.432 -3.761,-2.432c-1.073,0 -2.048,1.164 -2.767,3.056c-0.776,0.115 -1.476,0.403 -2.108,0.827c0.925,-2.437 2.396,-4.272 4.263,-4.811l0.147,-0.017l-0.535,-0.055c-2.889,0 -5.707,3.273 -6.661,8.284c-0.697,1.369 -1.216,2.943 -1.585,4.516c-1.871,-2.963 -4.712,-4.8 -7.753,-4.8c-4.356,0 -8.296,3.76 -9.571,9.204l0.017,0.3c0.471,-1.789 1.293,-3.393 2.389,-4.56c1.851,-2.457 4.424,-3.944 7.164,-3.944c2.955,0 5.719,1.733 7.588,4.548c-0.412,2.007 -0.588,3.964 -0.588,5.452v1.001c-0.319,0 -0.636,0.148 -0.833,0.444l-1.167,1.752l-1.069,-1.603c-0.479,-4.855 -3.403,-8.595 -6.931,-8.595c-3.149,0 -5.737,3.649 -5.981,8.281c0.587,0.349 0.981,0.989 0.981,1.72c0,1.104 -0.897,2 -2.001,2c-1.104,0 -2.001,-0.896 -2.001,-2zM42.001,30.999c0,-0.732 0.395,-1.372 0.983,-1.721c-0.228,-4.079 -2.372,-7.28 -4.98,-7.28c-2.853,0 -5.241,2.657 -5.851,6.215c-0.048,-0.057 -0.099,-0.111 -0.151,-0.165c-0.005,-2.883 -0.045,-5.599 -0.287,-7.883c1.312,-0.749 2.769,-1.167 4.288,-1.167c2.537,0 4.967,1.915 6.469,4.981c0.723,1.227 1.213,2.735 1.42,4.324l-0.003,-0.328c-0.665,-5.845 -4.159,-9.977 -7.887,-9.977c-1.563,0 -3.061,0.441 -4.401,1.233c-0.051,-0.361 -0.108,-0.709 -0.171,-1.044c-0.001,-0.004 -0.003,-0.008 -0.003,-0.013c1.393,-0.755 2.943,-1.176 4.575,-1.176c4.796,0 8.721,5.429 8.987,12.263c0.604,0.344 1.013,0.995 1.013,1.739c0,1.104 -0.897,2 -2.001,2c-1.103,-0.001 -2,-0.897 -2,-2.001zM27.002,30.498c0,-1.38 1.121,-2.5 2.501,-2.5c1.38,0 2.501,1.12 2.501,2.5c0,1.38 -1.121,2.5 -2.501,2.5c-1.38,0 -2.501,-1.12 -2.501,-2.5zM21.003,31.197l-1,-1.5v-1.699c0,-5.217 2.031,-14 7,-14c3.597,0 3.963,5.8 3.996,13.336c-0.453,-0.215 -0.961,-0.336 -1.496,-0.336c-0.98,0 -1.867,0.404 -2.503,1.052l0.001,-5.459c-0.441,-1.408 -0.753,-2.632 -1.999,-3.593c0.324,0.155 0.501,0.211 0.807,0.432c0.811,0.588 1.323,1.597 1.747,2.476c0.673,1.399 1.092,3.196 1.439,4.759l-0.001,-0.7c-0.024,-2.916 -0.1,-5.453 -0.348,-7.401c-0.165,-1.301 -0.395,-2.221 -0.679,-2.8c-0.259,-0.525 -0.555,-0.765 -0.964,-0.765c-3.875,0 -6,7.509 -6,13z"></path></g></g></svg>