<svg xmlns="http://www.w3.org/2000/svg"  viewBox="0 0 48 48" width="48px" height="48px"><path d="M 3.4980469 6 C 3.2220469 6 2.9980469 6.225 2.9980469 6.5 C 2.9980469 6.776 3.2220469 7 3.4980469 7 L 3.9960938 7 L 3.9960938 16 L 3.4960938 16 C 3.2200938 16 2.9960938 16.225 2.9960938 16.5 C 2.9960938 16.776 3.2200938 17 3.4960938 17 L 3.9941406 17 L 3.9941406 26 L 3.4980469 26 C 3.2220469 26 2.9980469 26.225 2.9980469 26.5 C 2.9980469 26.776 3.2220469 27 3.4980469 27 L 3.9941406 27 L 3.9941406 36 L 3.4941406 36 C 3.2181406 36 2.9941406 36.225 2.9941406 36.5 C 2.9941406 36.776 3.2181406 37 3.4941406 37 L 3.9941406 37 L 3.9941406 46.998047 C 2.8861406 46.998047 -0.005859375 47.219047 -0.005859375 47.498047 C -0.005859375 47.776047 2.8861406 47.996094 3.9941406 47.996094 L 3.9941406 48.001953 L 43.996094 48.001953 L 43.996094 47.996094 C 45.106281 47.9957 47.992188 47.775799 47.992188 47.498047 C 47.992188 47.219296 45.106281 46.998439 43.996094 46.998047 L 43.996094 37 L 44.490234 37 C 44.765234 37 44.990234 36.776 44.990234 36.5 C 44.990234 36.225 44.765234 36 44.490234 36 L 43.996094 36 L 43.996094 27 L 44.492188 27 C 44.767188 27 44.992188 26.776 44.992188 26.5 C 44.992188 26.225 44.767187 26 44.492188 26 L 43.970703 26 L 28.994141 22 L 26.994141 20 L 24.994141 20 L 21.847656 16.853516 C 21.938656 16.764516 21.996094 16.639 21.996094 16.5 C 21.996094 16.225 21.771094 16 21.496094 16 L 19.996094 16 L 18.996094 14 L 17.996094 14 L 16.244141 7 L 16.501953 7 C 16.776953 7 17.001953 6.776 17.001953 6.5 C 17.001953 6.225 16.776953 6 16.501953 6 L 3.4980469 6 z M 4.9941406 7 L 15.214844 7 L 15.964844 10 L 14.996094 10 L 14.996094 12.998047 L 16.712891 12.998047 L 17.214844 15 L 18.376953 15 L 18.876953 16 L 4.9941406 16 L 4.9941406 7 z M 9.9941406 10 L 9.9941406 12.998047 L 11.996094 12.998047 L 11.996094 10 L 9.9941406 10 z M 5.9941406 10.001953 L 5.9941406 13 L 7.9941406 13 L 7.9941406 10.001953 L 5.9941406 10.001953 z M 4.9941406 17 L 20.580078 17 L 22.388672 18.808594 C 22.140672 19.142594 21.996094 19.555 21.996094 20 L 21.996094 25 L 25.996094 25 L 25.996094 21 L 26.580078 21 L 27.992188 22.414062 L 27.992188 25 L 31.994141 25 L 31.994141 23.839844 L 31.984375 23.835938 L 32.994141 24.105469 L 32.994141 26 L 4.9941406 26 L 4.9941406 17 z M 6.4960938 18 C 6.2200937 18 5.9941406 18.896 5.9941406 20 L 5.9941406 25 L 6.9960938 25 L 6.9960938 20 C 6.9960937 18.896 6.7720937 18 6.4960938 18 z M 8.9960938 18 C 8.4440938 18 7.9941406 18.896 7.9941406 20 L 7.9941406 25 L 9.9960938 25 L 9.9960938 20 C 9.9960937 18.896 9.5480937 18 8.9960938 18 z M 12.496094 18 C 11.668094 18 10.994141 18.896 10.994141 20 L 10.994141 25 L 13.996094 25 L 13.996094 20 C 13.996094 18.896 13.324094 18 12.496094 18 z M 17.996094 18 C 16.892094 18 15.994141 18.896 15.994141 20 L 15.994141 25 L 19.996094 25 L 19.996094 20 C 19.996094 18.896 19.100094 18 17.996094 18 z M 4.9941406 27 L 32.994141 27 L 32.994141 36 L 4.9941406 36 L 4.9941406 27 z M 6.4960938 28 C 6.2200937 28 5.9941406 28.896 5.9941406 30 L 5.9941406 35 L 6.9960938 35 L 6.9960938 30 C 6.9960937 28.896 6.7720937 28 6.4960938 28 z M 8.9960938 28 C 8.4440938 28 7.9941406 28.896 7.9941406 30 L 7.9941406 35 L 9.9960938 35 L 9.9960938 30 C 9.9960937 28.896 9.5480937 28 8.9960938 28 z M 12.496094 28 C 11.668094 28 10.994141 28.896 10.994141 30 L 10.994141 35 L 13.996094 35 L 13.996094 30 C 13.996094 28.896 13.324094 28 12.496094 28 z M 17.996094 28 C 16.892094 28 15.994141 28.896 15.994141 30 L 15.994141 35 L 19.996094 35 L 19.996094 30 C 19.996094 28.896 19.100094 28 17.996094 28 z M 23.994141 28 C 22.890141 28 21.994141 28.896 21.994141 30 L 21.994141 35 L 25.994141 35 L 25.996094 30 C 25.996094 28.896 25.098141 28 23.994141 28 z M 29.994141 28 C 28.890141 28 27.992188 28.896 27.992188 30 L 27.994141 35 L 31.994141 35 L 31.994141 30 C 31.994141 28.896 31.098141 28 29.994141 28 z M 36.494141 28 C 37.322141 28 37.994141 28.896 37.994141 30 L 37.994141 35 L 36.994141 35 L 36.994141 30 C 36.994141 29.131 36.577141 28.390234 35.994141 28.115234 C 36.150141 28.041234 36.318141 28 36.494141 28 z M 39.994141 28 C 40.546141 28 40.994141 28.896 40.994141 30 L 40.994141 35 L 39.994141 35 L 39.994141 30 C 39.994141 29.26 39.793141 28.614578 39.494141 28.267578 C 39.641141 28.098578 39.811141 28 39.994141 28 z M 42.494141 28 C 42.770141 28 42.994141 28.896 42.994141 30 L 42.994141 35 L 41.994141 35 L 41.992188 30 C 41.992187 28.896 42.218141 28 42.494141 28 z M 4.9941406 37 L 32.994141 37 L 32.994141 46 L 4.9941406 46 L 4.9941406 37 z M 6.4960938 38 C 6.2200937 38 5.9941406 38.896 5.9941406 40 L 5.9941406 45 L 6.9960938 45 L 6.9960938 40 C 6.9960937 38.896 6.7720937 38 6.4960938 38 z M 8.9960938 38 C 8.4440938 38 7.9941406 38.896 7.9941406 40 L 7.9941406 45 L 9.9960938 45 L 9.9960938 40 C 9.9960937 38.896 9.5480937 38 8.9960938 38 z M 12.496094 38 C 11.668094 38 10.994141 38.896 10.994141 40 L 10.994141 45 L 13.996094 45 L 13.996094 40 C 13.996094 38.896 13.324094 38 12.496094 38 z M 17.996094 38 C 16.892094 38 15.994141 38.896 15.994141 40 L 15.994141 45 L 19.996094 45 L 19.996094 40 C 19.996094 38.896 19.100094 38 17.996094 38 z M 23.994141 38 C 22.890141 38 21.994141 38.896 21.994141 40 L 21.994141 45 L 25.994141 45 L 25.996094 40 C 25.996094 38.896 25.098141 38 23.994141 38 z M 29.994141 38 C 28.890141 38 27.992188 38.896 27.992188 40 L 27.994141 45 L 31.994141 45 L 31.994141 40 C 31.994141 38.896 31.098141 38 29.994141 38 z M 36.494141 38 C 37.322141 38 37.994141 38.896 37.994141 40 L 37.994141 45 L 36.994141 45 L 36.994141 40 C 36.994141 39.131 36.577141 38.390234 35.994141 38.115234 C 36.150141 38.041234 36.318141 38 36.494141 38 z M 39.994141 38 C 40.546141 38 40.994141 38.896 40.994141 40 L 40.994141 45 L 39.994141 45 L 39.994141 40 C 39.994141 39.26 39.793141 38.614578 39.494141 38.267578 C 39.641141 38.098578 39.811141 38 39.994141 38 z M 42.494141 38 C 42.770141 38 42.994141 38.896 42.994141 40 L 42.994141 45 L 41.994141 45 L 41.992188 40 C 41.992187 38.896 42.218141 38 42.494141 38 z"/></svg>