<svg xmlns="http://www.w3.org/2000/svg"  viewBox="0 0 48 48" width="48px" height="48px"><path d="M13.322 43.573C11.157 42.453 9.009 39.64 9.009 37c0-.067.003-.12.009-.187L8.009 35c-.667-1.2-1-2.627-1-4 0-1.36.992-3.613 2.581-3.96L9.009 26v-7l1-1h-.001v-2h.001v-1c0-6.067 6.272-11 14-11 7.728 0 14 4.933 14 11v3.013L38.995 19v7l-.583 1.04c1.589.347 2.583 2.6 2.583 3.96 0 1.373-.333 2.8-1 4l-.999 1.8c.007.067.012.133.012.2 0 2.64-2.148 5.453-4.315 6.56h-.003C34.21 43.84 33.629 44 33.003 44h-3c-1.201 0-2.124-1.187-3-2h-.995v1h-1v1h-2v-1h-1v-1h-1c-.876.813-1.799 2-3 2h-3C14.383 44 13.802 43.84 13.322 43.573zM18.999 42.533c.469-.387.785-.76 1.327-1.267.215-.2.408-.427.681-.64L21.009 39h1v-1h1v-1c-.455 0-.615.093-.697.147-.165.107-.28.267-.621.587-.335.307-.917.933-1.429 1.347-.459.373-1.049.76-1.767.88l-.333 1.28C18.066 41.667 17.375 42 16.509 42c-.848 0-1.572-.333-1.647-.72l-.324-1.24c-.987.173-1.529.88-1.529 1.453 0 .667.717 1.507 2 1.507h3C18.269 43 18.577 42.88 18.999 42.533zM35.003 41.493c0-.573-.545-1.28-1.531-1.453l-.323 1.24C33.075 41.667 32.351 42 31.503 42c-.867 0-1.557-.333-1.652-.76l-.335-1.28c-.719-.12-1.309-.507-1.767-.88-.512-.413-1.095-1.04-1.429-1.347-.273-.253-.456-.48-.621-.587C25.617 37.093 25.458 37 25.009 37v1h1v1h1v1.627c.284.227.5.48.676.64.541.507.857.88 1.327 1.267C29.434 42.88 29.742 43 30.003 43h3C34.285 43 35.003 42.16 35.003 41.493zM15.009 39h3c1.201 0 2.124-1.187 3-2 .544-.507.789-1 2-1h1.995c1.211 0 1.456.493 2 1 .876.813 1.799 2 3 2h3c.951 0 1.799.373 2.348.947.804-1.08 1.349-2.36 1.349-3.547 0-.68-.933-1.4-2.423-2.093l-4.275-2 .001.013-3.012-1.413C25.926 30.413 24.719 30 24.005 30c-.716 0-1.923.413-2.989.907l-8.585 4C10.926 35.6 10.009 36.32 10.009 37c0 1.48.857 3.12 2.007 4.32C12.123 40.027 13.422 39 15.009 39zM12.009 34l1.147-.533L10.119 28h-.111c-.989 0-2 1.693-2 3 0 1.227.297 2.48.873 3.52l.648 1.16C10.138 34.947 11.167 34.387 12.009 34zM37.822 35.053l.299-.533c.576-1.04.875-2.293.875-3.52 0-.933-.584-2.147-1.277-2.707l-2.868 5.173L36.009 34C36.59 34.267 37.261 34.613 37.822 35.053zM13.703 32.4l7.305-6.4c.792-.693 1.677-1 3-1s2.208.307 3 1l6.623 5.8 3.364-6.053V24.24C36.29 25.787 35.197 27 33.651 27c-2.484 0-4.467-1.347-6.04-2.613-.813-.64-1.48-1.24-2.116-1.707C24.854 22.227 24.379 22 24.009 22c-.372 0-.847.227-1.488.68-.636.467-1.303 1.067-2.116 1.707C18.831 25.653 16.849 27 14.366 27c-3.083 0-4.357-4.8-4.357-7.507v6.253L13.703 32.4zM29.006 30.747l.001-.667-2-1.747v1.48c.14.067.276.133.408.187L29.006 30.747zM19.009 30.747L20.594 30c.133-.067.273-.12.415-.187l.001-1.48-2.001 1.747V30.747zM25.007 29.133l.001-2.04c-.287-.067-.615-.093-1-.093-.387 0-.715.027-1.003.093v2.04c.359-.08.7-.133.999-.133C24.303 29 24.646 29.053 25.007 29.133zM19.781 23.613c.751-.6 1.496-1.267 2.153-1.733C22.587 21.4 23.289 21 24.009 21c.719 0 1.42.4 2.073.88.657.467 1.403 1.133 2.153 1.733C29.789 24.853 31.537 26 33.651 26c2.076 0 3.357-3.773 3.357-6.507V18h-26v1.493c0 2.76 1.292 6.507 3.357 6.507C16.479 26 18.227 24.853 19.781 23.613zM13.009 19h8.379c.456 0 .888.173.417.68C20.317 21.293 17.774 23 15.875 23 13.989 23 13.009 21.013 13.009 19zM26.213 19.68C25.742 19.173 26.174 19 26.63 19h8.379c0 2.013-.98 4-2.867 4C30.243 23 27.701 21.293 26.213 19.68zM34.009 16v-1c0-5.307-4.297-10-10-10-6.845 0-12 4.693-12 10v1H34.009zM24.009 47c7.176 0 13 .227 13 .493 0 .28-5.824.507-13 .507-7.176 0-13-.227-13-.507C11.009 47.227 16.833 47 24.009 47z"/></svg>