<svg xmlns="http://www.w3.org/2000/svg"  viewBox="0 0 48 48" width="48px" height="48px"><path d="M 26 2.0039062 C 24.896 2.0039062 24 2.6769063 24 3.5039062 L 24 30.369141 C 24 31.083141 23.714953 31.731078 23.251953 32.205078 C 23.773953 32.318078 24.272328 32.481453 24.736328 32.689453 C 24.988328 32.802453 25.100281 33.097609 24.988281 33.349609 C 24.875281 33.601609 24.580125 33.713563 24.328125 33.601562 C 23.500125 33.229563 22.424141 33.016953 21.369141 33.001953 C 20.925141 33.001953 20.468 33.037375 20 33.109375 C 16.136 33.705375 13 36.605078 13 39.580078 C 13 42.555078 16.136953 44.487578 20.001953 43.892578 C 22.213953 43.552578 24.186703 42.454484 25.470703 41.021484 C 25.640703 40.841484 25.740406 40.700812 25.691406 40.757812 C 27.115406 38.910813 28 36.621047 28 34.998047 L 28 13.998047 C 31 13.998047 35 16.775047 35 19.998047 C 35 24.013047 33.512 26.359047 32 28.998047 L 34 29.998047 C 37.444 25.253047 39 22.106047 39 18.998047 C 39 9.9980469 28.000953 7.9980469 28.001953 3.9980469 L 28 3.5039062 C 28 2.6769063 27.103 2.0039062 26 2.0039062 z M 27.998047 6.4609375 C 28.320047 6.8459375 28.688453 7.1984844 29.064453 7.5214844 C 30.108453 8.4244844 31.613672 9.4310156 32.888672 10.416016 C 35.581672 12.498016 38 14.987047 38 18.998047 C 38 19.318047 37.980359 19.639844 37.943359 19.964844 C 37.566359 16.549844 35.341672 14.313016 32.888672 12.416016 C 31.613672 11.431016 29.349 10.427047 28 9.9980469 L 27.998047 6.4609375 z M 18.402344 34.998047 C 19.313437 35.001492 20 35.494578 20 36.205078 C 20 37.017078 19.104 37.811656 18 37.972656 C 16.896 38.133656 16 37.606922 16 36.794922 C 16 35.982922 16.896 35.188344 18 35.027344 C 18.138 35.007094 18.272188 34.997555 18.402344 34.998047 z M 19 46.998047 C 17.073 46.998047 12 47.218047 12 47.498047 C 12 47.777047 17.073 47.998047 19 47.998047 C 23.679 47.998047 36 47.777047 36 47.498047 C 36 47.218047 23.679 46.998047 19 46.998047 z"/></svg>