<svg xmlns="http://www.w3.org/2000/svg" xmlns:xlink="http://www.w3.org/1999/xlink" viewBox="0,0,256,256" width="48px" height="48px" fill-rule="nonzero"><g fill="#fcfafa" fill-rule="nonzero" stroke="none" stroke-width="1" stroke-linecap="butt" stroke-linejoin="miter" stroke-miterlimit="10" stroke-dasharray="" stroke-dashoffset="0" font-family="none" font-weight="none" font-size="none" text-anchor="none" style="mix-blend-mode: normal"><g transform="scale(5.33333,5.33333)"><path d="M28.99805,2c-0.471,0 -1,0.529 -1,1v1c0.052,1.488 0.99283,2.54877 1.67383,3.75977c0.733,1.302 0.80341,2.27723 0.81641,3.74023c-0.293,-1.092 -0.72047,-2.15675 -1.35547,-3.09375c-0.696,-1.028 -1.47431,-1.60941 -1.94531,-2.81641c-0.04,-0.099 -0.06975,-0.20731 -0.09375,-0.32031c-2.086,2.932 -4.0957,5.95142 -4.0957,9.73242c0,2.971 0.86395,5.9895 3.00195,7.8125c0.075,-3.884 2.49905,-7.37837 5.99805,-9.73437v-2.08008c0,-3.161 -1.364,-9 -3,-9zM31.99805,2.00195c-0.359,0 -0.71363,0.24819 -0.89062,0.61719c0.454,0.801 0.76289,1.73902 0.96289,2.41602c0.568,1.932 0.92773,4.2778 0.92773,5.9668v1.45703c1.851,-1.074 3.94323,-1.84394 6.11523,-2.21094c-2.402,-2.083 -4.41123,-4.16709 -6.11523,-7.24609c-0.212,-0.384 -0.529,-1 -1,-1zM34.18555,3.06836c0.643,1.089 1.33226,2.04959 2.07227,2.93359h3.74023c0.056,0 0.11002,0.00095 0.16602,0.00195c-1.712,-1.822 -3.73851,-2.69855 -5.97852,-2.93555zM37.14453,7.00195c1.001,1.071 2.09578,2.05231 3.30078,3.07031c0.516,-0.047 1.03374,-0.07031 1.55273,-0.07031h3c-1.779,-1.188 -2.573,-3 -5,-3zM41.99805,11.00195c-7.736,0 -15,5.599 -15,12c0,1.436 3.124,2 5,2c8.407,0 11.00145,-8.955 12.31445,-12c-0.372,0 -0.74228,-0.00177 -1.11328,-0.00976c-2.966,0.081 -5.00994,0.15776 -7.71094,1.50976c0.418,-0.361 0.75447,-0.67266 1.23047,-0.97266c1.948,-1.228 4.22166,-1.47053 6.47266,-1.51953c0.591,-0.008 1.79764,-0.00781 1.80664,-0.00781h0.5c0.275,0 0.5,-0.224 0.5,-0.5c0,-0.275 -0.225,-0.5 -0.5,-0.5zM13.49609,14.00195c-1.912,2.387 -5.5,4.787 -5.5,9c0,4.057 1.73105,6.75552 3.99805,8.22852c0.002,-0.646 0.00372,-1.28669 0.01172,-1.92969c0.036,-2.571 0.1398,-5.24134 0.5918,-7.77734c0.247,-1.383 0.53344,-2.66353 0.89844,-4.01953c-0.38,3.942 -0.507,7.53805 -0.5,11.49805v5.7832c-3.672,3.29 -7.5328,6.42716 -11.5918,9.41016c-0.444,0.327 -0.53989,0.95539 -0.21289,1.40039c0.327,0.444 0.95444,0.53889 1.39844,0.21289c2.551,-1.875 5.02483,-3.81064 7.42383,-5.80664h4.19531c1.286,2.739 4.14916,5 8.78516,5c4.213,0 6.613,-3.588 9,-5.5c-2.387,-1.912 -4.787,-5.5 -9,-5.5c-4.059,0 -6.75847,1.73591 -8.23047,4.00391c0.645,0.001 1.29164,-0.00009 1.93164,0.00391c1.47,0.036 2.90991,0.06287 4.37891,0.17188c2.558,0.191 4.94502,0.64531 7.41602,1.32031c-1.558,-0.111 -3.11283,-0.27194 -4.67383,-0.33594c-2.387,-0.099 -4.43131,-0.14506 -6.82031,-0.16406h-5.79297c5.421,-4.6 10.45133,-9.5098 15.11133,-14.7168c-0.585,-0.36 -1.10169,-0.78477 -1.55469,-1.25977c-3.387,3.78 -6.97267,7.40042 -10.76367,10.85742v-2.0957c2.737,-1.286 5,-4.14916 5,-8.78516c0,-4.213 -3.588,-6.613 -5.5,-9zM7.99805,47.00195c-2.204,0 -8,0.22 -8,0.5c0,0.279 5.796,0.5 8,0.5c8.539,0 31,-0.221 31,-0.5c0,-0.28 -22.461,-0.5 -31,-0.5z"></path></g></g></svg>