<svg xmlns="http://www.w3.org/2000/svg"  viewBox="0 0 48 48" width="48px" height="48px"><path d="M 18.001953 0.99609375 C 16.806953 0.99609375 16.001953 1.2510937 16.001953 1.9960938 L 16.001953 2.9960938 C 16.001953 3.9650937 16.256953 4.9960938 17.001953 4.9960938 L 20.001953 4.9960938 L 20.001953 8.9960938 C 20.001953 11.608094 19.001953 12.017094 19.001953 12.996094 C 17.792953 12.996094 16.803 13.205359 16 13.568359 L 16.001953 9.9960938 C 16.001953 8.8930938 16.898953 7.9960938 18.001953 7.9960938 L 19.001953 7.9960938 L 19.001953 5.9960938 L 18.001953 5.9960938 C 15.796953 5.9960938 14.001953 7.7880937 14.001953 9.9960938 L 14 15.244141 C 13.286 16.305141 13.001953 17.635094 13.001953 18.996094 C 13.001953 34.055094 20.001953 36.299094 20.001953 39.996094 L 19.501953 39.996094 C 19.225953 39.996094 19.001953 40.447094 19.001953 40.996094 C 19.001953 41.442094 19.146656 41.820219 19.347656 41.949219 C 18.968656 42.680219 18.672953 43.495094 18.001953 43.996094 L 18.001953 44.996094 C 17.101953 45.545094 16.494953 46.243094 16.001953 46.996094 C 14.898953 46.996094 12.001953 47.217094 12.001953 47.496094 C 12.001953 47.774094 14.898953 47.994141 16.001953 47.994141 L 16.001953 47.996094 L 32.001953 47.996094 L 32.001953 47.994141 C 33.104953 47.994141 36.001953 47.774094 36.001953 47.496094 C 36.001953 47.217094 33.104953 46.996094 32.001953 46.996094 C 31.508953 46.243094 30.901953 45.545094 30.001953 44.996094 L 30.001953 43.996094 C 29.329953 43.493094 29.031344 42.680219 28.652344 41.949219 C 28.853344 41.820219 29.001953 41.441094 29.001953 40.996094 C 29.001953 40.447094 28.776953 39.996094 28.501953 39.996094 L 28.001953 39.996094 C 28.001953 36.299094 35.001953 34.055094 35.001953 18.996094 C 35.001953 15.917094 33.537953 12.996094 29.001953 12.996094 C 29.001953 12.017094 28.001953 11.608094 28.001953 8.9960938 L 28.001953 7.9960938 L 30.001953 7.9960938 C 31.102953 7.9960938 32.001953 8.8930938 32.001953 9.9960938 L 32.001953 12.486328 C 32.800953 12.782328 33.461953 13.202938 34.001953 13.710938 L 34.001953 9.9960938 C 34.001953 7.7880938 32.205953 5.9960938 30.001953 5.9960938 L 28.001953 5.9960938 L 28.001953 4.9960938 L 31.001953 4.9960938 C 31.746953 4.9960938 32.001953 3.9650937 32.001953 2.9960938 L 32.001953 1.9960938 C 32.001953 1.2510937 31.196953 0.99609375 30.001953 0.99609375 L 18.001953 0.99609375 z M 22.001953 1.9960938 L 30.001953 1.9960938 L 30.001953 2.9960938 C 30.001953 3.3140937 29.975359 3.5660937 29.943359 3.7460938 L 29.867188 3.9960938 L 22.085938 3.9960938 L 22.039062 3.7460938 C 22.018063 3.5660938 22.001953 3.3150937 22.001953 2.9960938 L 22.001953 1.9960938 z M 17.001953 1.9980469 L 20.001953 1.9980469 L 20.001953 2.9980469 C 20.001953 3.3160469 20.028547 3.5660937 20.060547 3.7460938 L 20.134766 3.9960938 L 20.134766 3.9980469 L 17.169922 3.9980469 L 17.076172 3.7460938 C 17.034172 3.5660937 17.001953 3.3170469 17.001953 2.9980469 L 17.001953 1.9980469 z M 21.001953 4.9960938 L 22.001953 4.9960938 L 22.001953 8.9960938 C 22.001953 11.731094 20.800781 12.423094 20.800781 12.996094 L 20.001953 12.996094 C 20.001953 12.423094 21.001953 11.731094 21.001953 8.9960938 L 21.001953 4.9960938 z M 23.001953 4.9960938 L 26.001953 4.9960938 L 26.001953 8.9960938 C 26.001953 11.731094 26.800781 12.423094 26.800781 12.996094 L 22.001953 12.996094 C 22.001953 12.423094 23.001953 11.731094 23.001953 8.9960938 L 23.001953 4.9960938 z M 19.001953 13.996094 L 20.001953 13.996094 C 16.929953 13.996094 16.001953 16.296094 16.001953 18.996094 C 16.001953 32.996094 22.001953 34.664094 22.001953 38.996094 L 22.001953 39.996094 L 21.001953 39.996094 L 21.001953 38.996094 C 21.001953 34.664094 14.001953 32.996094 14.001953 18.996094 C 14.001953 16.296094 15.162953 13.996094 19.001953 13.996094 z M 21.501953 13.996094 L 28 13.996094 C 31.072 13.996094 32 16.296094 32 18.996094 C 32 32.996094 26.400391 34.664094 26.400391 38.996094 L 26.400391 39.996094 L 23.001953 39.996094 L 23.001953 38.996094 C 23.001953 35.524094 20.430156 33.765094 19.410156 25.996094 C 18.625156 25.949094 18.001953 25.295094 18.001953 24.496094 C 18.001953 24.113094 18.145813 23.763047 18.382812 23.498047 C 18.145812 23.232047 18.001953 22.881094 18.001953 22.496094 C 18.001953 21.834094 18.432297 21.271266 19.029297 21.072266 C 19.009297 20.413266 19.001953 19.720094 19.001953 18.996094 C 19.001953 16.296094 19.581953 13.996094 21.501953 13.996094 z M 24.001953 14.996094 C 22.344953 14.996094 21.001953 16.340094 21.001953 17.996094 C 21.001953 19.654094 22.344953 20.996094 24.001953 20.996094 C 25.657953 20.996094 27.001953 19.653094 27.001953 17.996094 C 27.001953 16.340094 25.657953 14.996094 24.001953 14.996094 z M 24.001953 15.996094 C 25.104953 15.996094 26.001953 16.893094 26.001953 17.996094 C 26.001953 19.100094 25.104953 19.996094 24.001953 19.996094 C 22.897953 19.996094 22.001953 19.100094 22.001953 17.996094 C 22.001953 16.893094 22.897953 15.996094 24.001953 15.996094 z M 19.501953 21.996094 C 19.225953 21.996094 19.001953 22.221094 19.001953 22.496094 C 19.001953 22.772094 19.225953 22.996094 19.501953 22.996094 L 28.501953 22.996094 C 28.776953 22.996094 29.001953 22.772094 29.001953 22.496094 C 29.001953 22.221094 28.776953 21.996094 28.501953 21.996094 L 19.501953 21.996094 z M 19.501953 23.996094 C 19.225953 23.996094 19.001953 24.221094 19.001953 24.496094 C 19.001953 24.772094 19.225953 24.996094 19.501953 24.996094 L 28.501953 24.996094 C 28.776953 24.996094 29.001953 24.772094 29.001953 24.496094 C 29.001953 24.221094 28.776953 23.996094 28.501953 23.996094 L 19.501953 23.996094 z M 20.486328 41.996094 L 21.388672 41.996094 C 21.059672 42.578094 20.638969 43.398094 20.292969 43.996094 L 19.365234 43.996094 C 19.867234 43.299094 20.178328 42.489094 20.486328 41.996094 z M 22.744141 41.996094 L 26.810547 41.996094 C 27.056547 42.490094 27.304031 43.299094 27.707031 43.996094 L 22.183594 43.996094 C 22.433594 43.299094 22.589141 42.489094 22.744141 41.996094 z M 19.001953 44.996094 L 20.001953 44.996094 C 20.001953 45.346094 19.856188 45.668563 19.617188 45.851562 C 19.556188 45.899563 19.4955 45.947094 19.4375 45.996094 L 18.298828 45.996094 C 18.370828 45.947094 18.444484 45.899563 18.521484 45.851562 C 18.819484 45.668563 19.001953 45.345094 19.001953 44.996094 z M 22.001953 44.996094 L 28 44.996094 C 28 45.346094 28.145766 45.668563 28.384766 45.851562 C 28.444766 45.899563 28.503547 45.947094 28.560547 45.996094 L 21.648438 45.996094 C 21.684438 45.947094 21.722719 45.899563 21.761719 45.851562 C 21.910719 45.668563 22.001953 45.345094 22.001953 44.996094 z"/></svg>