<svg xmlns="http://www.w3.org/2000/svg" xmlns:xlink="http://www.w3.org/1999/xlink" viewBox="0,0,256,256" width="48px" height="48px" fill-rule="nonzero"><g fill="#fcfafa" fill-rule="nonzero" stroke="none" stroke-width="1" stroke-linecap="butt" stroke-linejoin="miter" stroke-miterlimit="10" stroke-dasharray="" stroke-dashoffset="0" font-family="none" font-weight="none" font-size="none" text-anchor="none" style="mix-blend-mode: normal"><g transform="scale(5.33333,5.33333)"><path d="M18.68164,6.00195c-1.431,0 -2.81069,0.907 -3.67969,2c-2.427,0 -5,1.18527 -5,4.57227c0,1.28 0.29289,2.42848 0.71289,3.52148c-0.406,0.293 -0.71289,1.07852 -0.71289,1.47852c0,1.24 0.20012,2.85414 1.20313,3.49414c0.131,0.453 0.30037,0.89237 0.48438,1.35938c0.642,1.626 1.3903,3.10691 2.2793,4.25391c-0.064,1.026 -0.23631,1.84005 -0.69531,2.37305c-0.877,1.013 -2.93245,1.2518 -5.06445,2.0918c-1.962,0.773 -4.20703,2.05352 -4.20703,4.85352v11c-1.101,0 -4,0.21219 -4,0.49219c0,0.28 2.899,0.50781 4,0.50781h40c1.101,0 4,-0.22781 4,-0.50781c0,-0.28 -2.899,-0.49219 -4,-0.49219v-7.38672c0,-2.786 -2.18642,-3.41383 -4.10742,-4.17383c-1.545,-0.627 -2.95269,-0.91945 -3.92969,-1.43945c0.025,0.36 0.03711,0.693 0.03711,1c0,0.693 -0.41625,1.4655 -1.15625,1.8125l-0.08203,0.02734l-0.12891,0.58789c-0.26,0.814 -0.65144,1.57356 -1.14844,2.22656l-0.48047,0.51953v0.1875l0.22266,0.10742c1.864,0.68 4.77344,1.0532 4.77344,5.5332v1h-1v-1c0,-4.387 -3.04,-3.853 -5,-5c0,-0.213 -0.00291,-0.73417 -0.00391,-1.20117c1.004,-0.907 1.71855,-2.25183 1.93555,-3.79883h0.06836c0.617,0 1,-0.533 1,-1c0,-2.853 -0.963,-7 -4,-7c-0.388,-0.507 -1.256,-1 -2,-1c-4.212,0 -6,4.333 -6,8c0,0.467 0.436,1 1,1h0.06641c0.217,1.547 0.92959,2.89183 1.93359,3.79883c0.002,0.467 0.00391,0.98817 0.00391,1.20117h-0.00391c-1.96,1.147 -5,0.613 -5,5v1h-1v-1c0,-4.52 3.03331,-4.93355 4.82031,-5.56055l0.17969,-0.08008v-0.17383l-0.49219,-0.5332c-0.495,-0.654 -0.88553,-1.41356 -1.14453,-2.22656l-0.13086,-0.58594l-0.04102,-0.01367c-0.728,-0.347 -1.19141,-1.10617 -1.19141,-1.82617c0,-1.747 0.38969,-3.77575 1.30469,-5.46875c-0.226,-0.147 -0.42017,-0.29152 -0.57617,-0.47852c-0.46,-0.533 -0.63231,-1.34605 -0.69531,-2.37305c0.888,-1.146 1.6363,-2.62691 2.2793,-4.25391c0.184,-0.467 0.35042,-0.90638 0.48242,-1.35937c1.002,-0.64 1.20508,-2.25414 1.20508,-3.49414c0,-0.4 -0.31075,-1.19852 -0.71875,-1.47852c0.419,-1.093 0.70703,-2.25448 0.70703,-3.52148c0,-3.96 -4.00159,-6.57227 -7.30859,-6.57227zM30.5293,9c-1.45,0 -2.80652,0.35953 -3.97852,1.14453c0.283,0.747 0.44336,1.54773 0.44336,2.42774c0,0.72 -0.0837,1.38606 -0.2207,2.03906l-0.37305,1.24023l0.30859,0.51953c0.077,0.173 0.1395,0.36148 0.1875,0.52148c0.923,-1.013 1.99631,-1.93359 2.69531,-1.93359c0.528,0 0.99116,0.51906 1.41016,1.03906c0.504,-0.373 1.15872,-1.03906 2.01172,-1.03906c0.963,0 2.55398,1.28066 3.33398,2.34766c0.468,1.227 0.66797,2.30578 0.66797,3.42578c0,0.72 -0.04777,1.39973 -0.13477,2.05273c0.255,-0.947 0.16137,-1.79883 0.73438,-1.79883c0.223,0 0.41211,0.22578 0.41211,0.42578c0,1.16 -0.67363,2.4677 -1.39062,2.7207c-0.461,1.974 -1.29547,3.56003 -2.23047,4.70703c0.51,0.733 0.86823,1.60081 1.11523,2.50781c0.647,-0.56 1.24447,-1.17466 1.48047,-1.34766v1c0.757,-0.573 0.999,-1.613 1,-3c0.306,0.306 0.70625,0.76083 0.90625,1.17383c0.913,-1.493 2.09375,-2.50683 2.09375,-7.17383c0,-1.36 -1.36075,-4.46542 -2.09375,-6.73242c-0.86,-2.667 -1.59425,-5.26758 -4.90625,-5.26758c-0.833,-0.947 -1.83666,-1 -3.47266,-1zM15.00195,11c1.615,0 2.34898,0.33395 3.08398,0.62695c0.455,0.96 1.24473,1.70594 1.92773,2.58594v-1.64062c0.407,1.094 0.74166,1.6398 1.59766,2.4668c-0.268,-0.666 -0.32066,-1.18464 -0.47266,-1.93164c0.34,0.52 0.71744,0.69442 1.27344,1.10742c-0.284,-0.574 -0.59723,-1.42742 -0.74023,-2.10742c1.19,0.16 2.33008,0.51895 2.33008,1.25195v5.64063c0.519,-1 0.69559,-1.45206 0.93359,-2.03906l0.01953,0.03906c0.021,0.08 0.03906,0.18664 0.03906,0.30664c0,1.266 -0.23675,2.4255 -0.84375,2.8125c-0.141,0.094 -0.24506,0.22867 -0.28906,0.38867c-0.116,0.4 -0.26636,0.78495 -0.44336,1.25195c-1.37,3.48 -3.09602,5.24023 -5.41602,5.24023c-2.32,0 -4.05283,-1.76023 -5.42383,-5.24023c-0.177,-0.466 -0.32836,-0.85195 -0.44336,-1.25195c-0.045,-0.16 -0.14711,-0.29567 -0.28711,-0.38867c-0.606,-0.386 -0.8457,-1.5455 -0.8457,-2.8125c0,-0.12 0.01906,-0.22664 0.03906,-0.30664l0.01953,-0.03906c0.241,0.587 0.42241,1.03906 0.94141,2.03906v-5.64062c0,-1.267 1.973,-2.35937 3,-2.35937zM25.16406,23c-0.308,0.76 -0.64277,1.50622 -1.00977,2.19922l-1.08789,1.7207l0.03516,0.37305c0.084,0.574 0.21967,0.90742 0.38867,1.10742c0.087,0.093 0.2027,0.1863 0.3457,0.2793c0.616,-0.867 1.40467,-1.60008 2.38867,-2.08008c-0.48,-1.027 -0.85955,-2.23961 -1.06055,-3.59961zM14.86719,27.66797c0.906,0.84 1.94172,1.33203 3.13672,1.33203c1.199,0 2.23849,-0.49203 3.14648,-1.33203c0.123,0.733 0.33875,1.41292 0.71875,1.91992c-0.635,1.586 -2.05128,2.41306 -3.86328,2.41406c-1.827,0 -3.24105,-0.82773 -3.87305,-2.42773c0.423,-0.547 0.62738,-1.22625 0.73438,-1.90625zM29.00195,31c2.393,0 2.96987,4.73233 3.92188,4.98633c-0.368,2.293 -1.98688,4.01367 -3.92187,4.01367c-2.207,0 -4,-2.24 -4,-5c0,-2.093 1.649,-4 4,-4zM27.00391,40.50781c0.612,0.32 1.28705,0.49219 1.99805,0.49219c0.711,0 1.388,-0.17219 2,-0.49219c0,0.213 0,0.38519 0,0.49219c0,1.107 -0.89505,2 -1.99805,2c-1.103,0 -2,-0.893 -2,-2c0,-0.106 0,-0.27919 0,-0.49219z"></path></g></g></svg>