<svg xmlns="http://www.w3.org/2000/svg" xmlns:xlink="http://www.w3.org/1999/xlink" viewBox="0,0,256,256" width="48px" height="48px" fill-rule="nonzero"><g fill="#fcfafa" fill-rule="nonzero" stroke="none" stroke-width="1" stroke-linecap="butt" stroke-linejoin="miter" stroke-miterlimit="10" stroke-dasharray="" stroke-dashoffset="0" font-family="none" font-weight="none" font-size="none" text-anchor="none" style="mix-blend-mode: normal"><g transform="scale(5.33333,5.33333)"><path d="M18.00195,0.99609c-1.195,0 -2,0.255 -2,1v1c0,0.969 0.255,2 1,2h3v4c0,2.612 -1,3.021 -1,4c-1.209,0 -2.19895,0.20927 -3.00195,0.57226l0.00195,-3.57227c0,-1.103 0.897,-2 2,-2h1v-2h-1c-2.205,0 -4,1.792 -4,4l-0.00195,5.24805c-0.714,1.061 -0.99805,2.39095 -0.99805,3.75195c0,15.059 7,17.303 7,21h-0.5c-0.276,0 -0.5,0.451 -0.5,1c0,0.446 0.1447,0.82413 0.3457,0.95313c-0.379,0.731 -0.6747,1.54588 -1.3457,2.04688v1c-0.9,0.549 -1.507,1.247 -2,2c-1.103,0 -4,0.221 -4,0.5c0,0.278 2.897,0.49805 4,0.49805v0.00195h16v-0.00195c1.103,0 4,-0.22005 4,-0.49805c0,-0.279 -2.897,-0.5 -4,-0.5c-0.493,-0.753 -1.1,-1.451 -2,-2v-1c-0.672,-0.503 -0.97061,-1.31587 -1.34961,-2.04687c0.201,-0.129 0.34961,-0.50812 0.34961,-0.95312c0,-0.549 -0.225,-1 -0.5,-1h-0.5c0,-3.697 7,-5.941 7,-21c0,-3.079 -1.464,-6 -6,-6c0,-0.979 -1,-1.388 -1,-4v-1h2c1.101,0 2,0.897 2,2v2.49023c0.799,0.296 1.46,0.71661 2,1.22461v-3.71484c0,-2.208 -1.796,-4 -4,-4h-2v-1h3c0.745,0 1,-1.031 1,-2v-1c0,-0.745 -0.805,-1 -2,-1zM22.00195,1.99609h8v1c0,0.318 -0.02659,0.57 -0.05859,0.75l-0.07617,0.25h-7.78125l-0.04688,-0.25c-0.021,-0.18 -0.03711,-0.431 -0.03711,-0.75zM17.00195,1.99805h3v1c0,0.318 0.02659,0.56805 0.05859,0.74805l0.07422,0.25v0.00195h-2.96484l-0.09375,-0.25195c-0.042,-0.18 -0.07422,-0.42905 -0.07422,-0.74805zM21.00195,4.99609h1v4c0,2.735 -1.20117,3.427 -1.20117,4h-0.79883c0,-0.573 1,-1.265 1,-4zM23.00195,4.99609h3v4c0,2.735 0.79883,3.427 0.79883,4h-4.79883c0,-0.573 1,-1.265 1,-4zM19.00195,13.99609h1c-3.072,0 -4,2.3 -4,5c0,14 6,15.668 6,20v1h-1v-1c0,-4.332 -7,-6 -7,-20c0,-2.7 1.161,-5 5,-5zM21.50195,13.99609h6.49805c3.072,0 4,2.3 4,5c0,14 -5.59961,15.668 -5.59961,20v1h-3.39844v-1c0,-3.472 -2.5718,-5.231 -3.5918,-13c-0.785,-0.047 -1.4082,-0.701 -1.4082,-1.5c0,-0.383 0.14386,-0.73305 0.38086,-0.99805c-0.237,-0.266 -0.38086,-0.61695 -0.38086,-1.00195c0,-0.662 0.43034,-1.22483 1.02734,-1.42383c-0.02,-0.659 -0.02734,-1.35217 -0.02734,-2.07617c0,-2.7 0.58,-5 2.5,-5zM24.00195,14.99609c-1.657,0 -3,1.344 -3,3c0,1.658 1.343,3 3,3c1.656,0 3,-1.343 3,-3c0,-1.656 -1.344,-3 -3,-3zM24.00195,15.99609c1.103,0 2,0.897 2,2c0,1.104 -0.897,2 -2,2c-1.104,0 -2,-0.896 -2,-2c0,-1.103 0.896,-2 2,-2zM19.50195,21.99609c-0.276,0 -0.5,0.225 -0.5,0.5c0,0.276 0.224,0.5 0.5,0.5h9c0.275,0 0.5,-0.224 0.5,-0.5c0,-0.275 -0.225,-0.5 -0.5,-0.5zM19.50195,23.99609c-0.276,0 -0.5,0.225 -0.5,0.5c0,0.276 0.224,0.5 0.5,0.5h9c0.275,0 0.5,-0.224 0.5,-0.5c0,-0.275 -0.225,-0.5 -0.5,-0.5zM20.48633,41.99609h0.90234c-0.329,0.582 -0.7497,1.402 -1.0957,2h-0.92773c0.502,-0.697 0.81309,-1.507 1.12109,-2zM22.74414,41.99609h4.06641c0.246,0.494 0.49348,1.303 0.89648,2h-5.52344c0.25,-0.697 0.40555,-1.507 0.56055,-2zM19.00195,44.99609h1c0,0.35 -0.14577,0.67247 -0.38477,0.85547c-0.061,0.048 -0.12169,0.09553 -0.17969,0.14453h-1.13867c0.072,-0.049 0.14566,-0.09653 0.22266,-0.14453c0.298,-0.183 0.48047,-0.50647 0.48047,-0.85547zM22.00195,44.99609h5.99805c0,0.35 0.14577,0.67247 0.38477,0.85547c0.06,0.048 0.11878,0.09553 0.17578,0.14453h-6.91211c0.036,-0.049 0.07428,-0.09653 0.11328,-0.14453c0.149,-0.183 0.24023,-0.50647 0.24023,-0.85547z"></path></g></g></svg>