<svg xmlns="http://www.w3.org/2000/svg"  viewBox="0 0 48 48" width="48px" height="48px"><path d="M 4.4570312 0.001953125 C 2.7910313 0.001953125 -0.005859375 6.4129531 -0.005859375 10.001953 C -0.005859375 19.717953 15.994141 19.700953 15.994141 23.001953 C 15.994141 25.041953 14.994141 25.438953 14.994141 27.001953 C 14.994141 32.213953 17.994141 30.238953 17.994141 34.001953 L 17.994141 36.001953 C 17.994141 36.451953 18.877531 36.803562 19.269531 37.726562 C 20.154531 39.807562 20.994141 44.074703 20.994141 45.970703 L 20.994141 47.001953 C 20.994141 47.002666 20.99414 47.003194 20.994141 47.003906 C 18.245141 47.003906 10.994141 47.222953 10.994141 47.501953 C 10.994141 47.779953 18.245141 48.001953 20.994141 48.001953 L 20.994141 48 L 21.978516 48 C 21.983065 48.000044 21.987648 48.001948 21.992188 48.001953 C 21.992825 48.001954 21.993504 48.001953 21.994141 48.001953 L 24.990234 48.001953 C 24.991508 48.001953 24.992866 48.001956 24.994141 48.001953 C 25.008401 48.001919 25.022762 47.996519 25.037109 47.996094 L 25.994141 47.996094 L 25.994141 47.998047 C 28.743141 47.998047 35.994141 47.776047 35.994141 47.498047 C 35.994141 47.219047 28.743141 47 25.994141 47 L 25.990234 47.001953 L 25.990234 45.970703 C 25.990234 44.074703 26.831797 39.807563 27.716797 37.726562 C 28.108797 36.804562 28.990234 36.452953 28.990234 36.001953 L 28.990234 34.001953 C 28.990234 30.238953 31.990234 32.213953 31.990234 27.001953 C 31.990234 25.438953 30.990234 25.041953 30.990234 23.001953 C 30.990234 19.700953 46.990234 19.717953 46.990234 10.001953 C 46.990234 6.4129531 44.192344 0.001953125 42.527344 0.001953125 C 42.099344 0.001953125 41.990234 0.24425 41.990234 0.53125 C 41.990234 1.52125 43.990234 5.0379531 43.990234 8.0019531 C 43.990234 13.138953 36.566234 15.001953 31.990234 15.001953 C 30.505234 15.001953 28.923234 17.001953 27.990234 17.001953 C 26.617234 17.001953 26.498234 16.001953 23.990234 16.001953 L 22.994141 16.001953 C 20.486141 16.001953 20.367141 17.001953 18.994141 17.001953 C 18.061141 17.001953 16.479141 15.001953 14.994141 15.001953 C 10.418141 15.001953 2.9941406 13.138953 2.9941406 8.0019531 C 2.9941406 5.0379531 4.9941406 1.52225 4.9941406 0.53125 C 4.9941406 0.24425 4.8850312 0.001953125 4.4570312 0.001953125 z M 2.4121094 10 C 3.4001094 12.038 4.2234375 13.226031 6.3984375 14.082031 C 6.9044375 14.299031 7.138875 14.889531 6.921875 15.394531 C 6.703875 15.900531 6.114375 16.135969 5.609375 15.917969 C 3.054375 14.845969 1.3201094 12.875 2.4121094 10 z M 13.808594 15.953125 C 14.228594 15.981125 14.624187 15.994141 14.992188 15.994141 C 15.868187 15.994141 17.729188 17.994141 18.992188 17.994141 C 20.816187 17.994141 20.607188 16.994141 22.992188 16.994141 L 23.990234 16.994141 C 26.153234 16.994141 26.313234 17.994141 27.990234 17.994141 C 29.653234 17.994141 30.834234 15.994141 31.990234 15.994141 C 32.357234 15.994141 32.754828 15.982031 33.173828 15.957031 C 33.549828 16.700031 33.87125 17.474484 34.15625 18.271484 C 31.12925 19.345484 28.996094 20.157953 28.996094 22.001953 C 28.996094 24.448953 29.996094 24.702953 29.996094 26.001953 C 29.996094 26.870953 29.908781 27.488266 29.675781 28.197266 L 29.535156 28.5 C 29.399156 28.824 29.111563 29.064203 28.851562 29.283203 C 28.321562 29.728203 27.659109 30.196641 27.287109 31.181641 C 26.815109 31.507641 26.360828 31.862375 25.923828 32.234375 L 25.914062 32.214844 L 25.376953 31.490234 L 24.820312 30.777344 L 24.244141 30.078125 L 23.777344 29.533203 C 23.697344 27.009203 23.597188 24.998047 23.492188 24.998047 C 23.386187 24.998047 23.288031 27.003438 23.207031 29.523438 L 22.730469 30.078125 L 22.15625 30.777344 L 21.599609 31.490234 L 21.064453 32.214844 L 21.050781 32.238281 C 20.052781 31.401281 19.085203 30.721672 17.908203 30.138672 C 17.751203 28.849672 17.307672 27.929844 16.138672 26.214844 C 16.417672 25.440844 16.986328 24.657953 16.986328 23.001953 C 16.986328 22.106953 16.558281 21.494891 15.738281 20.962891 C 15.283281 20.126891 14.215797 19.578172 12.591797 18.951172 C 12.929797 17.913172 13.324594 16.906125 13.808594 15.953125 z M 23.175781 30.570312 C 23.063781 34.458312 22.992188 39.033953 22.992188 39.501953 C 22.992188 40.329953 23.216188 41.001953 23.492188 41.001953 C 23.768187 41.001953 23.994141 40.329953 23.994141 39.501953 C 23.994141 39.034953 23.922547 34.47775 23.810547 30.59375 C 24.059547 31.07275 24.318844 31.544766 24.589844 32.009766 L 24.964844 32.636719 L 24.951172 33.253906 C 24.934172 34.840906 25.02375 36.426047 25.21875 37.998047 C 25.11075 38.362047 25.007203 38.744719 24.908203 39.136719 C 24.492203 40.081719 23.990234 40.980953 23.990234 42.001953 C 23.990234 42.287953 24.00325 42.639953 24.03125 43.001953 L 22.951172 43.001953 C 22.979172 42.641953 22.992188 42.288953 22.992188 42.001953 C 22.992187 40.660953 22.127516 39.531516 21.728516 38.228516 C 21.936516 36.578516 22.038438 34.917906 22.023438 33.253906 L 22.011719 32.636719 L 22.384766 32.009766 C 22.657766 31.535766 22.920781 31.055312 23.175781 30.570312 z M 18.322266 31.464844 C 19.046266 32.146844 19.880656 32.590641 20.972656 32.806641 L 20.955078 34.001953 L 21.003906 35.501953 L 21.115234 37.001953 L 21.214844 37.835938 C 21.041844 38.474937 20.999141 39.140219 20.994141 39.824219 C 20.745141 38.878219 20.465641 38.006891 20.181641 37.337891 C 19.943641 36.780891 19.267234 36.033625 18.990234 35.765625 L 18.986328 34.001953 C 18.986328 32.794953 18.703266 32.020844 18.322266 31.464844 z M 27.013672 32.515625 C 27.002672 32.668625 26.998047 32.832953 26.998047 33.001953 L 26.986328 34.769531 C 26.752328 34.997531 26.225688 35.573937 25.929688 36.085938 L 25.974609 35.503906 L 26.021484 34.003906 L 26.005859 32.808594 C 26.367859 32.737594 26.701672 32.639625 27.013672 32.515625 z M 23.494141 45.251953 C 23.743766 45.251953 23.991734 45.501953 23.990234 46.001953 L 23.990234 47.001953 L 22.994141 47.001953 L 22.994141 46.001953 C 22.994141 45.501953 23.244516 45.251953 23.494141 45.251953 z"/></svg>