<svg xmlns="http://www.w3.org/2000/svg"  viewBox="0 0 48 48" width="48px" height="48px"><path d="M 45.003906 1.9980469 C 42.604906 4.3810469 39.926906 5.6670469 37.003906 5.9980469 L 17.855469 25.144531 L 18.855469 26.144531 C 19.050469 26.340531 19.050469 26.657516 18.855469 26.853516 C 18.659469 27.048516 18.344438 27.048516 18.148438 26.853516 L 17.148438 25.853516 L 4.0039062 38.998047 C 3.4769062 39.525047 3.0039062 40.099047 3.0039062 40.998047 C 3.0039062 41.743047 3.4769062 42.471047 4.0039062 42.998047 L 6.0039062 44.998047 C 6.5309063 45.525047 7.1699062 45.998047 8.0039062 45.998047 C 10.003906 45.998047 23.003906 35.998047 23.003906 29.998047 L 27.003906 33.998047 C 29.837906 31.411047 32.564953 28.674344 35.001953 25.777344 L 35.001953 26.0625 C 34.973953 29.0055 33.003906 29.523875 33.003906 31.671875 C 33.003906 32.954875 34.123906 33.998047 35.503906 33.998047 C 36.883906 33.998047 38.003906 32.954875 38.003906 31.671875 C 38.003906 29.507875 36.003906 28.998047 36.003906 25.998047 L 36.003906 24.556641 C 41.303906 17.924641 45.003906 10.459047 45.003906 1.9980469 z M 39.796875 6.4179688 C 39.300875 7.3299687 39.113922 8.2640469 39.044922 9.2480469 L 23.148438 25.144531 C 22.953438 25.340531 22.953437 25.657516 23.148438 25.853516 C 23.344437 26.048516 23.661422 26.048516 23.857422 25.853516 L 39.003906 10.705078 L 39.003906 10.998047 C 39.003906 15.067047 35.003906 13.242047 35.003906 18.998047 C 35.003906 22.064047 34.422516 24.139531 33.478516 26.019531 C 32.321516 27.347531 31.100891 28.643156 29.837891 29.910156 L 27.019531 32.601562 L 19.417969 24.998047 L 37.498047 6.9179688 L 39.433594 6.5292969 C 39.555594 6.4942969 39.675875 6.4569687 39.796875 6.4179688 z M 19.001953 28.998047 C 19.553953 28.998047 20.003906 29.446047 20.003906 29.998047 C 20.003906 30.550047 19.553953 31.001 19.001953 31 C 18.449953 31 18.001953 30.550047 18.001953 29.998047 C 18.001953 29.446047 18.449953 28.998047 19.001953 28.998047 z M 31.503906 35.498047 C 31.190906 36.901047 30.003906 37.302563 30.003906 38.601562 C 30.003906 39.370563 30.675906 39.998047 31.503906 39.998047 C 32.332906 39.998047 33.003906 39.370562 33.003906 38.601562 C 33.003906 37.302563 31.816906 36.901047 31.503906 35.498047 z M 8.0039062 39.996094 C 8.5559062 39.996094 9.0058594 40.446047 9.0058594 40.998047 C 9.0058594 41.550047 8.5559062 41.998047 8.0039062 41.998047 C 7.4519063 41.998047 7.0039062 41.550047 7.0039062 40.998047 C 7.0039062 40.446047 7.4519063 39.996094 8.0039062 39.996094 z M 8.0039062 46.998047 C 6.6249063 46.998047 3.0039062 47.222141 3.0039062 47.494141 C 3.0039062 47.772141 6.6249063 47.998047 8.0039062 47.998047 C 17.102906 47.998047 41.003906 47.772141 41.003906 47.494141 C 41.003906 47.222141 17.102906 46.998047 8.0039062 46.998047 z"/></svg>