<svg xmlns="http://www.w3.org/2000/svg" xmlns:xlink="http://www.w3.org/1999/xlink" viewBox="0,0,256,256" width="48px" height="48px" fill-rule="nonzero"><g fill="#fcfafa" fill-rule="nonzero" stroke="none" stroke-width="1" stroke-linecap="butt" stroke-linejoin="miter" stroke-miterlimit="10" stroke-dasharray="" stroke-dashoffset="0" font-family="none" font-weight="none" font-size="none" text-anchor="none" style="mix-blend-mode: normal"><g transform="scale(5.33333,5.33333)"><path d="M45.00391,1.99805c-2.399,2.383 -5.077,3.669 -8,4l-19.14844,19.14648l1,1c0.195,0.196 0.195,0.51299 0,0.70898c-0.196,0.195 -0.51103,0.195 -0.70703,0l-1,-1l-13.14453,13.14453c-0.527,0.527 -1,1.101 -1,2c0,0.745 0.473,1.473 1,2l2,2c0.527,0.527 1.166,1 2,1c2,0 15,-10 15,-16l4,4c2.834,-2.587 5.56105,-5.3237 7.99805,-8.2207v0.28516c-0.028,2.943 -1.99805,3.46138 -1.99805,5.60938c0,1.283 1.12,2.32617 2.5,2.32617c1.38,0 2.5,-1.04317 2.5,-2.32617c0,-2.164 -2,-2.67383 -2,-5.67383v-1.44141c5.3,-6.632 9,-14.09759 9,-22.55859zM39.79688,6.41797c-0.496,0.912 -0.68295,1.84608 -0.75195,2.83008l-15.89648,15.89648c-0.195,0.196 -0.195,0.51299 0,0.70898c0.196,0.195 0.51298,0.195 0.70898,0l15.14648,-15.14844v0.29297c0,4.069 -4,2.244 -4,8c0,3.066 -0.58139,5.14148 -1.52539,7.02148c-1.157,1.328 -2.37762,2.62363 -3.64062,3.89063l-2.81836,2.69141l-7.60156,-7.60352l18.08008,-18.08008l1.93555,-0.38867c0.122,-0.035 0.24228,-0.07233 0.36328,-0.11133zM19.00195,28.99805c0.552,0 1.00195,0.448 1.00195,1c0,0.552 -0.44995,1.00295 -1.00195,1.00195c-0.552,0 -1,-0.44995 -1,-1.00195c0,-0.552 0.448,-1 1,-1zM31.50391,35.49805c-0.313,1.403 -1.5,1.80452 -1.5,3.10352c0,0.769 0.672,1.39648 1.5,1.39648c0.829,0 1.5,-0.62749 1.5,-1.39648c0,-1.299 -1.187,-1.70052 -1.5,-3.10352zM8.00391,39.99609c0.552,0 1.00195,0.44995 1.00195,1.00195c0,0.552 -0.44995,1 -1.00195,1c-0.552,0 -1,-0.448 -1,-1c0,-0.552 0.448,-1.00195 1,-1.00195zM8.00391,46.99805c-1.379,0 -5,0.22409 -5,0.49609c0,0.278 3.621,0.50391 5,0.50391c9.099,0 33,-0.22591 33,-0.50391c0,-0.272 -23.901,-0.49609 -33,-0.49609z"></path></g></g></svg>