<svg xmlns="http://www.w3.org/2000/svg" xmlns:xlink="http://www.w3.org/1999/xlink" viewBox="0,0,256,256" width="48px" height="48px" fill-rule="nonzero"><g fill="#fcfafa" fill-rule="nonzero" stroke="none" stroke-width="1" stroke-linecap="butt" stroke-linejoin="miter" stroke-miterlimit="10" stroke-dasharray="" stroke-dashoffset="0" font-family="none" font-weight="none" font-size="none" text-anchor="none" style="mix-blend-mode: normal"><g transform="scale(5.33333,5.33333)"><path d="M24.00195,4.00195c-12.144,0 -22,9.853 -22,22c0,9.90062 6.54947,18.27357 15.54687,21.0332c-7.28247,0.07097 -12.54687,0.25375 -12.54687,0.47266c0,0.266 8.512,0.49414 19,0.49414c10.488,0 19,-0.22714 19,-0.49414c0,-0.2189 -5.26524,-0.40168 -12.54687,-0.47266c8.9977,-2.75963 15.54883,-11.13259 15.54883,-21.0332c0,-12.147 -9.85795,-22 -22.00195,-22zM23.00195,6.00195c1.282,0 2.53409,0.13109 3.74609,0.37109c-0.12,0.253 -0.22441,0.52145 -0.31641,0.81445c-0.055,-0.013 -0.11287,-0.01367 -0.17187,-0.01367c-3.007,0.307 -6.08248,1.01481 -9.27148,2.50781c-0.12,0.054 -0.20495,0.14563 -0.25195,0.26563c-1.274,-0.467 -2.99737,-0.86653 -4.60937,-0.51953c3.082,-2.16 6.831,-3.42578 10.875,-3.42578zM26.73633,7.93555c2.36,1.413 4.52337,2.98542 6.48438,4.73242c-0.064,0.08 -0.10909,0.16058 -0.12109,0.26758c-0.325,2.653 -0.82517,5.29164 -1.57617,7.93164c-0.023,0.067 -0.02472,0.14851 -0.01172,0.22852c-2.862,0.52 -5.64177,1.27852 -8.25977,2.47852c-0.033,-0.067 -0.08063,-0.12016 -0.14062,-0.16016l-7.5625,-5.70703c-0.046,-0.04 -0.09839,-0.06513 -0.15039,-0.07812l1.70508,-7c0.1,0.013 0.20859,-0.00102 0.30859,-0.04101c3.069,-1.44 6.03127,-2.11911 8.94727,-2.41211c0.16,-0.013 0.29695,-0.10723 0.37695,-0.24023zM10.06836,11c0.25563,0.015 0.50405,0.12944 0.68555,0.33594c0.361,0.413 0.32606,1.05211 -0.08594,1.41211c-2.611,2.293 -2.50178,5.21222 -3.05078,5.19922c-0.554,-0.026 -1.39044,-3.93141 1.72656,-6.69141c0.207,-0.1865 0.46898,-0.27086 0.72461,-0.25586zM34.0957,13.00195h3.63477c2.67,3.267 4.27344,7.453 4.27344,12c0,1.08 -0.09067,2.13316 -0.26367,3.16016c-1.558,0.16 -3.14916,0.26503 -4.78516,0.33203c-0.048,0 -0.09177,0.01334 -0.13477,0.02734c-0.988,-2.507 -2.39366,-4.90716 -4.47266,-7.16016c0.064,-0.054 0.11172,-0.13356 0.13672,-0.22656c0.767,-2.693 1.27642,-5.38708 1.60742,-8.08008c0.002,-0.013 0.00391,-0.03974 0.00391,-0.05274zM5.42383,17.77344c0.195,1.667 0.97936,2.94742 1.94336,4.10742c-0.078,0.067 -0.13811,0.16058 -0.16211,0.26758c-0.755,3.4 -0.79094,6.64044 -0.33594,9.77344c0.01,0.067 0.03336,0.13255 0.06836,0.18555c-0.421,0.293 -0.82211,0.58692 -1.16211,0.91992c-1.14,-2.44 -1.77539,-5.15839 -1.77539,-8.02539c0,-2.56 0.50483,-5.00152 1.42383,-7.22852zM14.82422,18.37695c0.032,0.053 0.07205,0.09281 0.12305,0.13281l7.5625,5.69141c0.055,0.053 0.11569,0.08075 0.17969,0.09375c-0.549,2.907 -0.73889,5.84011 -0.46289,8.78711c-0.056,0.013 -0.10916,0.02573 -0.16016,0.05273c-1.112,0.666 -2.91453,1.60005 -4.51953,2.37305c-0.801,0.387 -2.66837,1.24031 -2.85937,1.32031l-0.67187,0.30664c-2.215,-1.52 -4.29758,-3.18766 -6.26758,-4.97266c0.088,-0.107 0.13328,-0.23972 0.11328,-0.38672c-0.438,-3.013 -0.40573,-6.13144 0.32227,-9.39844c0.024,-0.12 0.00894,-0.22698 -0.03906,-0.33398zM25.82422,25.01563c0.25175,-0.045 0.52059,0.00666 0.74609,0.16016c0.451,0.32 0.56786,0.94544 0.25586,1.39844c-1.984,2.853 -1.17489,5.65344 -1.71289,5.77344c-0.541,0.107 -2.29464,-3.47992 0.06836,-6.91992c0.1565,-0.2265 0.39083,-0.36711 0.64258,-0.41211zM41.53906,29.1875c-1.203,5.347 -4.6575,9.84073 -9.3125,12.42773c-0.105,-1.774 -0.30228,-3.49348 -0.61328,-5.14648c-0.012,-0.066 -0.03345,-0.12083 -0.06445,-0.17383c2.202,-1.853 3.90247,-4.17284 5.23047,-6.83984c0.067,0.027 0.1398,0.03906 0.2168,0.03906c1.554,-0.067 3.06397,-0.17364 4.54297,-0.30664zM22.73633,33.85352c2.861,1.547 5.46377,2.37403 7.88477,2.70703c0,0.026 0.00277,0.05375 0.00977,0.09375c0.328,1.747 0.52705,3.5738 0.62305,5.4668c-2.496,1.2 -5.296,1.88086 -8.25,1.88086c-2.715,0 -5.29681,-0.57456 -7.63281,-1.60156c-0.303,-1.48 -0.58684,-2.9738 -0.83984,-4.4668c0.02,0 0.03578,0.00128 0.05078,-0.01172c0.119,-0.027 0.94814,-0.37481 1.24414,-0.50781c0.593,-0.266 1.3502,-0.61367 2.1582,-1.01367c1.61,-0.773 3.44175,-1.71844 4.59375,-2.39844c0.064,-0.04 0.1182,-0.09544 0.1582,-0.14844z"></path></g></g></svg>