<svg xmlns="http://www.w3.org/2000/svg" xmlns:xlink="http://www.w3.org/1999/xlink" viewBox="0,0,256,256" width="48px" height="48px" fill-rule="nonzero"><g fill="#fcfafa" fill-rule="nonzero" stroke="none" stroke-width="1" stroke-linecap="butt" stroke-linejoin="miter" stroke-miterlimit="10" stroke-dasharray="" stroke-dashoffset="0" font-family="none" font-weight="none" font-size="none" text-anchor="none" style="mix-blend-mode: normal"><g transform="scale(5.33333,5.33333)"><path d="M2.00391,6v38c0.612,0.796 1.281,1 2,1c1.2,0 1.78,-2 3,-2c0.744,0 1.781,0.281 3,1c-1.981,-3.781 -2,-7 -4,-10v-3c8.073,-5.376 11.99805,-10 11.99805,-25zM19.00586,6c0,3.192 -0.1772,5.93131 -0.5332,8.32031c1.5,1.05 3.42925,1.67969 5.53125,1.67969c2.102,0 4.0293,-0.63069 5.5293,-1.67969c-0.355,-2.389 -0.53125,-5.12931 -0.53125,-8.32031zM29.99609,6c0,15 3.92505,19.624 11.99805,25v3c-2,3 -2.019,6.219 -4,10c1.219,-0.719 2.256,-1 3,-1c1.22,0 1.8,2 3,2c0.719,0 1.388,-0.204 2,-1v-38zM35.49414,9.5c1.289,4.322 2.63411,8.61875 4.53711,12.71875c0.507,1.091 1.0357,2.14378 1.5957,3.17578c-0.447,-1.678 -0.78775,-3.40433 -0.96875,-5.11133c-0.132,-1.252 -0.2048,-2.46952 -0.2168,-3.72852c-0.007,-0.69 0.03974,-1.36769 0.05273,-2.05469c0.432,3.15 0.93295,6.38989 1.75195,9.46289c0.241,0.904 0.49744,1.77662 0.77344,2.64063c0.041,-2.041 0.15556,-4.08252 0.47656,-6.10352c0.29,3.019 0.49805,5.30391 0.49805,9.00391c-0.001,0.162 -0.08052,0.32102 -0.22852,0.41602c-0.231,0.149 -0.54141,0.08061 -0.69141,-0.15039c-1.245,-1.944 -2.3498,-3.83583 -3.3418,-5.92383c-2.196,-4.624 -3.42128,-9.3147 -4.23828,-14.3457zM12.50195,9.50195c-0.817,5.03 -2.04228,9.71975 -4.23828,14.34375c-0.991,2.088 -2.0968,3.98178 -3.3418,5.92578c-0.149,0.23 -0.45941,0.29839 -0.69141,0.15039c-0.148,-0.094 -0.22752,-0.25497 -0.22852,-0.41797c0,-3.7 0.20905,-5.98295 0.49805,-9.00195c0.321,2.021 0.43556,4.06252 0.47656,6.10352c0.276,-0.864 0.53048,-1.73662 0.77148,-2.64062c0.819,-3.074 1.32191,-6.31389 1.75391,-9.46289c0.013,0.687 0.05973,1.36569 0.05273,2.05469c-0.012,1.259 -0.0848,2.47456 -0.2168,3.72656c-0.181,1.707 -0.52175,3.43433 -0.96875,5.11133c0.56,-1.032 1.0887,-2.08283 1.5957,-3.17383c1.902,-4.1 3.24811,-8.39775 4.53711,-12.71875zM19.5,10.51172c1.177,1.073 2.94595,1.48728 4.50195,1.48828c1.572,-0.001 3.303,-0.41628 4.5,-1.48828c-2.062,3.256 -6.97695,3.356 -9.00195,0zM3.00391,31.00195h2v2.99805h-2zM42.99414,31.00195h2v2.99805h-2zM4.43555,34.98828c0.272,-0.036 0.52455,0.15769 0.56055,0.42969c0.223,1.916 0.76881,4.2788 1.50781,6.0918c-1.662,-1.68 -2.19609,-3.64999 -2.49609,-5.95898c-0.036,-0.272 0.15573,-0.5265 0.42773,-0.5625zM43.5625,34.99023c0.272,0.036 0.46373,0.28855 0.42773,0.56055c-0.3,2.309 -0.83414,4.27799 -2.49414,5.95898c0.738,-1.813 1.28286,-4.1758 1.50586,-6.0918c0.036,-0.272 0.28855,-0.46373 0.56055,-0.42773zM6.00195,47c-1.652,0 -6,0.22 -6,0.5c0,0.279 4.348,0.5 6,0.5c2.753,0 10,-0.221 10,-0.5c0,-0.28 -7.247,-0.5 -10,-0.5zM42,47c-2.753,0 -9.99805,0.22 -9.99805,0.5c0,0.279 7.24505,0.5 9.99805,0.5c1.652,0 6,-0.221 6,-0.5c0,-0.28 -4.348,-0.5 -6,-0.5z"></path></g></g></svg>