<svg xmlns="http://www.w3.org/2000/svg" xmlns:xlink="http://www.w3.org/1999/xlink" viewBox="0,0,256,256" width="48px" height="48px" fill-rule="nonzero"><g fill="#fcfafa" fill-rule="nonzero" stroke="none" stroke-width="1" stroke-linecap="butt" stroke-linejoin="miter" stroke-miterlimit="10" stroke-dasharray="" stroke-dashoffset="0" font-family="none" font-weight="none" font-size="none" text-anchor="none" style="mix-blend-mode: normal"><g transform="scale(5.33333,5.33333)"><path d="M19.50586,1c-3.383,0 -6.23442,6.75938 -6.48242,11.35938h-0.00391l-0.0293,0.62695c0,0.054 0.00753,0.1205 0.01953,0.1875c0.195,0.973 1.70951,1.84091 2.47851,2.25391c-0.499,-0.054 -0.97517,-0.14859 -1.45117,-0.30859c-0.336,-0.106 -0.58953,-0.23911 -0.89453,-0.41211c-0.867,-0.494 -1.09252,-1.17434 -1.10352,-2.02734c-2.511,0.88 -4.0332,2.05331 -4.0332,3.32031c0,2.76 7.167,5 16,5c8.832,0 16,-2.24 16,-5c0,-1.427 -1.93053,-2.72062 -5.01953,-3.64062c-0.25,-4.6 -3.10142,-11.35937 -6.48242,-11.35937c-2.076,0 -2.90305,2 -4.49805,2c-1.595,0 -2.424,-2 -4.5,-2zM14.14453,11.11914l0.04102,0.05469c0.335,0.267 1.13559,0.70708 2.68359,1.08008c1.856,0.467 4.36072,0.74609 7.13672,0.74609c2.774,0 5.27681,-0.27909 7.13281,-0.74609c0.697,-0.173 1.24316,-0.34848 1.66016,-0.52148c0.028,0.147 0.05122,0.3068 0.07422,0.4668l0.10742,1.45313c-0.439,0.187 -1.0378,0.40156 -1.8418,0.60156c-1.856,0.467 -4.35881,0.74609 -7.13281,0.74609c-2.776,0 -5.28072,-0.28009 -7.13672,-0.74609c-1.548,-0.373 -2.34859,-0.81308 -2.68359,-1.08008c-0.075,-0.067 -0.13669,-0.13222 -0.17969,-0.19922l0.13086,-1.78711c0.003,-0.014 0.00481,-0.04136 0.00781,-0.06836zM34.9707,20.69141c-0.332,0.094 -0.67434,0.17458 -1.02734,0.26758c-0.136,1.307 -0.49058,2.38617 -1.14258,2.82617c-0.202,0.133 -0.34906,0.33355 -0.41406,0.56055c-0.164,0.6 -0.37977,1.18719 -0.63477,1.86719c-1.956,5.174 -4.42909,7.78711 -7.74609,7.78711c-3.32,0 -5.79595,-2.61216 -7.75195,-7.78516c-0.255,-0.68 -0.47272,-1.26719 -0.63672,-1.86719c-0.065,-0.227 -0.20911,-0.42755 -0.41211,-0.56055c-0.654,-0.44 -1.00758,-1.51917 -1.14258,-2.82617c-0.353,-0.094 -0.6983,-0.17458 -1.0293,-0.26758c0.112,1.547 0.51209,3.18692 1.62109,3.91992c0.178,0.654 0.41106,1.28027 0.66406,1.94727c0.774,2.053 1.65941,3.94519 2.69141,5.49219c-0.018,0.653 -0.05477,1.24044 -0.13477,1.77344l-0.00586,-0.01367c-0.041,0.28 -0.09125,0.53344 -0.15625,0.77344c-0.072,0.267 -0.34828,0.42766 -0.61328,0.34766c-0.267,-0.066 -0.42456,-0.34628 -0.35156,-0.61328c0.113,-0.413 0.18561,-0.93355 0.22461,-1.56055l0.01953,-0.48047l-1.05859,-1.86719c-1.933,0.854 -3.63173,1.98789 -4.92773,3.58789l3,4l-2,3l4.2832,6h-1.23047l-3.86914,-5.41211c-0.242,-0.347 -0.24658,-0.80144 -0.01758,-1.14844l1.59375,-2.38672c-0.858,0.267 -1.78695,0.56027 -2.75195,0.94727c-2.807,1.107 -6.00391,2 -6.00391,6v2c-1.11236,0.00076 -3.99219,0.21269 -3.99219,0.49219c0,0.27975 2.882,0.50741 3.99219,0.50781c0.00099,0 0.00292,0 0.00391,0h9.99023v-0.00195h20h9.99805h0.00195l0.00195,0.00195c1.108,0 3.99414,-0.22781 3.99414,-0.50781c0,-0.27987 -2.887,-0.492 -3.99609,-0.49219v-2.00195c0,-4 -3.19495,-4.893 -6.00195,-6c-0.972,-0.387 -1.90653,-0.67831 -2.76953,-0.94531l1.59961,2.38672c0.229,0.347 0.22147,0.79948 -0.01953,1.14648l-3.87109,5.41211h-1.22852l4.28516,-6l-2,-3l3,-4c-1.296,-1.6 -2.99473,-2.73294 -4.92773,-3.58594l-1.0625,1.86719l0.01953,0.48047c0.039,0.627 0.11161,1.14559 0.22461,1.55859c0.073,0.266 -0.08456,0.54628 -0.35156,0.61328c-0.24,0.067 -0.48889,-0.0523 -0.58789,-0.2793c-0.209,-0.72 -0.28459,-1.60028 -0.30859,-2.61328c1.028,-1.547 1.91059,-3.42747 2.68359,-5.48047c0.253,-0.667 0.48506,-1.29427 0.66406,-1.94727c1.108,-0.733 1.50614,-2.37292 1.61914,-3.91992zM16.08008,21.35938c-0.05,0.213 -0.07617,0.42762 -0.07617,0.64063c0,1.653 1.56995,3 3.50195,3c1.932,0 3.5,-1.347 3.5,-3c0,0 -0.00095,-0.00067 -0.00195,-0.01367c-2.488,-0.04 -4.83683,-0.26695 -6.92383,-0.62695zM31.92773,21.35938c-2.087,0.36 -4.43583,0.58695 -6.92383,0.62695v0.01367c0,1.653 1.56995,3 3.50195,3c1.932,0 3.5,-1.347 3.5,-3c0,-0.213 -0.02713,-0.42762 -0.07812,-0.64062zM18.95703,33.30664c1.412,1.666 3.07283,2.69336 5.04883,2.69336c1.969,0 3.6242,-1.01269 5.0332,-2.67969c0.042,0.533 0.10794,1.03953 0.21094,1.51953c-0.322,0.854 -1.19903,1.89505 -2.20703,2.74805c-0.504,0.427 -1.01947,0.78606 -1.48047,1.03906c-0.479,0.266 -0.83506,0.37305 -1.03906,0.37305h-0.05078h-0.91406h-0.04883c-0.205,0 -0.56206,-0.10705 -1.03906,-0.37305c-0.461,-0.253 -0.97647,-0.61206 -1.48047,-1.03906c-1.024,-0.867 -1.91366,-1.93378 -2.22266,-2.80078c-0.007,-0.013 -0.01544,-0.02802 -0.02344,-0.04102c0.108,-0.453 0.17189,-0.93211 0.21289,-1.41211c0,-0.014 -0.001,-0.01434 0,-0.02734zM18.32422,36.10742l0.18945,0.29297c0.497,0.694 1.15912,1.38726 1.82813,1.94727c0.645,0.547 1.37778,1.05237 2.05078,1.35938l0.14258,0.05469l-1.92773,1.93164c0.119,0.36 0.23928,0.70573 0.36328,1.05273l1.38672,-1.38672l0.65234,0.64063l-0.79492,3.97266c0.143,0.347 0.28655,0.69434 0.43555,1.02734h-1.08789c-1.425,-3.307 -2.58138,-6.7998 -3.48437,-10.4668l0.08789,-0.13281zM29.68164,36.14648c0.07,0.146 0.14742,0.28106 0.23242,0.41406c-0.902,3.667 -2.05266,7.14645 -3.47266,10.43945h-1.0918c0.154,-0.346 0.30317,-0.69273 0.45117,-1.05273l-0.79102,-3.94727l0.64844,-0.65234l1.38086,1.38672c0.124,-0.36 0.24428,-0.70641 0.36328,-1.06641l-1.9082,-1.9082l0.14063,-0.05273c0.672,-0.293 1.40569,-0.79937 2.05469,-1.35937c0.67,-0.56 1.33113,-1.25427 1.82813,-1.94727z"></path></g></g></svg>