<svg xmlns="http://www.w3.org/2000/svg" xmlns:xlink="http://www.w3.org/1999/xlink" viewBox="0,0,256,256" width="48px" height="48px" fill-rule="nonzero"><g fill="#fcfafa" fill-rule="nonzero" stroke="none" stroke-width="1" stroke-linecap="butt" stroke-linejoin="miter" stroke-miterlimit="10" stroke-dasharray="" stroke-dashoffset="0" font-family="none" font-weight="none" font-size="none" text-anchor="none" style="mix-blend-mode: normal"><g transform="scale(5.33333,5.33333)"><path d="M41.43359,2.01563c-0.25212,-0.04337 -0.52009,0.00992 -0.74609,0.16992c-0.452,0.307 -0.56209,0.93372 -0.24609,1.38672l1.375,1.96094c0.08,0.213 0.01327,0.46661 -0.17773,0.59961c-0.226,0.147 -0.53827,0.09419 -0.69727,-0.13281l-0.04687,-0.05273l-19.06836,11.14648l-1.38672,-1.98633l19.60938,-10.37305l-0.57617,-0.82812l-19.60937,10.37305c-0.323,-0.426 -0.93205,-0.51989 -1.37305,-0.21289c-0.34,0.24 -0.48434,0.65331 -0.27734,1.32031l0.03125,0.06641l1.92578,2.74609l-4.91602,3.44141l-1.39648,-1.98828l0.82031,-0.57227l0.62109,0.88086l3.27539,-2.29297l-2.29492,-3.28125l-1.12695,0.78711c-2.123,-2.827 -3.74691,-4.27948 -6.50391,-5.14648c-0.264,-0.08 -0.54395,0.06731 -0.62695,0.32031c-0.082,0.267 0.06513,0.54695 0.32813,0.62695c2.463,0.786 3.92642,2.03849 5.98242,4.77149l-1.32812,0.93359l1.09961,1.57422l-0.82422,0.58594c-0.329,-0.4 -0.91475,-0.4945 -1.34375,-0.1875c-0.34,0.24 -0.4863,0.65331 -0.2793,1.32031l0.0332,0.06641l1.92383,2.76172l-0.40234,0.2793c-3.211,2.24 -4.61863,5.78753 -3.14063,7.89453c-2.152,-3.08 -1.5302,-7.26789 1.3418,-9.58789l-0.57422,-0.82617c-3.034,2.413 -3.9072,6.63906 -2.1582,10.03906l-0.83789,0.58789c-0.626,-0.294 -1.38623,-0.25512 -1.99023,0.17188c-0.905,0.64 -1.12419,1.88011 -0.49219,2.78711c0.633,0.906 1.88211,1.12114 2.78711,0.49414c0.606,-0.426 0.9027,-1.12145 0.8457,-1.81445l0.81641,-0.57227c0.89,1.013 1.99427,1.75989 3.19727,2.21289c-0.006,-0.147 -0.00781,-0.3068 -0.00781,-0.4668c0,-8.28 6.71905,-15 14.99805,-15c2.92,0 5.64717,0.83997 7.95117,2.29297l10.35938,-9.37305c0.339,0.32 0.86667,0.37375 1.26367,0.09375c0.452,-0.32 0.56209,-0.94739 0.24609,-1.40039l-5.73633,-8.1875c-0.1585,-0.2265 -0.39436,-0.36678 -0.64648,-0.41016zM42.01367,19.01172c-1.12416,0.13387 -3.06833,1.23212 -5.11133,2.92188c1.06,0.787 2.01198,1.70642 2.83398,2.73242c2.393,-2.426 3.74956,-4.73312 3.10156,-5.45312c-0.166,-0.18325 -0.4495,-0.2458 -0.82422,-0.20117zM27.99609,20c-7.726,0 -13.99805,6.28 -13.99805,14c0,5.90187 3.65757,10.94028 8.82227,13h-11.9082c1.93315,-0.75793 3.80909,-1.87402 5.7793,-3.14648c-1.508,-1.733 -2.6258,-3.80075 -3.2168,-6.09375c-2.375,2.893 -4.82156,6.24023 -7.47656,6.24023c-1.512,0 -2.511,-2 -4,-2c-1.417,0 -2,1.8 -2,3c0,1.03261 0.73365,1.72961 1.74609,2.19922c-0.95928,0.08175 -1.74609,0.17948 -1.74609,0.29297c0,0.27992 4.34393,0.50768 5.99805,0.50781c0.00062,0 0.00133,0 0.00195,0h21.99805h0.00195c4.685,0 17,-0.22781 17,-0.50781c0,-0.20482 -6.57868,-0.3713 -11.95117,-0.44727c5.22857,-2.02853 8.94531,-7.0968 8.94531,-13.04492c0,-7.72 -6.27109,-14 -13.99609,-14zM26.99609,23.05273v7.06641c-0.366,0.093 -0.71225,0.24173 -1.03125,0.42773l-5.00391,-5c1.668,-1.386 3.75116,-2.29414 6.03516,-2.49414zM28.99805,23.05469c2.283,0.2 4.36425,1.10519 6.03125,2.49219l-5,5.01367c-0.317,-0.2 -0.66425,-0.33345 -1.03125,-0.43945zM25.99805,24.19922c-1.275,0.267 -2.46272,0.7598 -3.51172,1.4668l3.51172,3.50781zM29.99805,24.19922v4.97461l3.50977,-3.50586c-1.048,-0.694 -2.23677,-1.20175 -3.50977,-1.46875zM19.54688,26.96094l5.00195,5.01172c-0.189,0.307 -0.33369,0.65434 -0.42969,1.02734h-7.07617c0.207,-2.28 1.11291,-4.37206 2.50391,-6.03906zM36.44531,26.97266c1.39,1.667 2.29495,3.74734 2.50195,6.02734h-7.07617c-0.095,-0.374 -0.23973,-0.72034 -0.42773,-1.02734zM19.65625,28.49219c-0.695,1.04 -1.19703,2.22781 -1.45703,3.50781h4.52734l0.25977,-0.1875zM17.04492,35h7.07617c0.094,0.373 0.24169,0.71906 0.42969,1.03906l-5.00391,5c-1.391,-1.667 -2.29695,-3.75906 -2.50195,-6.03906zM31.87109,35h7.07617c-0.207,2.28 -1.11295,4.37206 -2.50195,6.03906l-5.00195,-5.01172c0.189,-0.307 0.33273,-0.65434 0.42773,-1.02734zM18.19922,36c0.26,1.28 0.76198,2.46781 1.45898,3.50781l3.51367,-3.50781zM30.02734,37.43945l5.00391,5.01367c-1.667,1.387 -3.7512,2.29414 -6.0332,2.49414v-7.08008c0.365,-0.094 0.7123,-0.22773 1.0293,-0.42773zM25.96484,37.45313c0.319,0.187 0.66425,0.33473 1.03125,0.42773v7.06641c-2.284,-0.2 -4.3662,-1.10714 -6.0332,-2.49414z"></path></g></g></svg>