<svg xmlns="http://www.w3.org/2000/svg" xmlns:xlink="http://www.w3.org/1999/xlink" viewBox="0,0,256,256" width="48px" height="48px" fill-rule="nonzero"><g fill="#fcfafa" fill-rule="nonzero" stroke="none" stroke-width="1" stroke-linecap="butt" stroke-linejoin="miter" stroke-miterlimit="10" stroke-dasharray="" stroke-dashoffset="0" font-family="none" font-weight="none" font-size="none" text-anchor="none" style="mix-blend-mode: normal"><g transform="scale(5.33333,5.33333)"><path d="M24.003,47c7.176,0 13,0.227 13,0.493c0,0.28 -5.824,0.507 -13,0.507c-7.176,0 -13,-0.227 -13,-0.507c0,-0.266 5.824,-0.493 13,-0.493zM9.003,24v-8.6c0,-5.973 2.132,-9.227 5.297,-10.867c3.01,-1.56 6.774,-1.533 9.703,-1.533c2.928,0 6.692,-0.027 9.701,1.533c3.165,1.64 5.299,4.893 5.299,10.867v8.6c0,11.8 -8.515,20 -15,20c-6.466,0 -15,-8.227 -15,-20zM22.767,40.893l-0.765,-6.893h4.001l-0.767,6.893c4.897,-0.866 10.767,-6.746 10.767,-16.893v-9.333c-0.765,-0.987 -1.904,-2.667 -4,-2.667c-1.523,0 -2.505,0.533 -4.365,1.773c-0.176,0.147 -0.395,0.227 -0.633,0.227c-0.552,0 -1.001,-0.453 -1.001,-1c0,-0.307 0.141,-0.587 0.361,-0.773c0.037,-0.027 2.638,-2.227 5.638,-2.227c2.048,0 3.119,1.187 3.911,2.467c-0.397,-4.093 -2.088,-6.093 -4.129,-7.16c-2.496,-1.28 -4.732,-1.307 -7.782,-1.307c-3.051,0 -6.287,0.027 -8.783,1.307c-2.34,1.213 -4.217,3.667 -4.217,9.093v9.6c0,10.133 6.746,16.027 11.764,16.893zM20.007,32.493c0,-0.267 0.224,-0.493 0.5,-0.493h6.992c0.275,0 0.5,0.227 0.5,0.493c0,0.28 -0.225,0.507 -0.5,0.507h-6.992c-0.276,0 -0.5,-0.227 -0.5,-0.507zM13.297,26.8l0.537,-0.347c0.883,1.6 2.541,2.547 4.169,2.547h3c0.595,0 1.209,-0.56 1.383,-1.133l0.265,-0.867h1.352l-1,4h-5c-2.101,0 -3.881,-2.213 -4.706,-4.2zM25.003,31l-1,-4h1.352l0.265,0.867c0.174,0.573 0.789,1.133 1.383,1.133h3c1.628,0 3.287,-0.947 4.169,-2.547l0.538,0.347c-0.825,1.987 -2.605,4.2 -4.707,4.2zM27.503,27.493c1.071,-0.093 1.569,-0.68 1.637,-1.6l0.003,-0.373l-0.051,-0.347c-0.177,-0.733 -0.751,-1.213 -1.333,-1.72c-0.413,-0.36 -0.817,-0.733 -1.165,-1.16c-1.129,-1.387 -1.297,-3.08 -1.091,-4.8c0.184,1.56 0.657,2.96 1.725,4.107c0.872,0.947 2.319,1.773 2.584,3.12c0.317,1.587 -0.593,2.973 -2.309,2.773zM18.35,24.227c0.459,-1.067 1.649,-1.787 2.425,-2.627c1.073,-1.16 1.532,-2.547 1.728,-4.107c0.193,1.707 0.049,3.307 -1.021,4.707c-0.279,0.36 -0.605,0.693 -0.944,1c-0.559,0.493 -1.567,1.213 -1.675,2.307c-0.088,1.133 0.439,1.867 1.64,1.987c-1.932,0.253 -2.853,-1.654 -2.153,-3.267zM20.003,25.373c0,-0.347 0.711,-0.373 1.207,-0.373c0.611,0 1.793,0.173 1.793,0.307c0,0.373 -0.955,0.693 -1.901,0.693c-0.447,0 -1.099,-0.253 -1.099,-0.627zM25.003,25.307c0,-0.133 1.183,-0.307 1.793,-0.307c0.496,0 1.207,0.027 1.207,0.373c0,0.373 -0.652,0.627 -1.099,0.627c-0.946,0 -1.901,-0.32 -1.901,-0.693zM17.117,22.68c0.52,-0.827 1.075,-1.627 1.616,-2.427c-0.46,2.747 -1.298,4.987 -4.219,5.747c1.155,-0.907 1.829,-2.107 2.603,-3.32zM29.274,20.253c0.535,0.813 1.089,1.613 1.612,2.427c0.777,1.213 1.447,2.413 2.607,3.32c-2.89,-0.72 -3.791,-3.04 -4.219,-5.747zM13.001,18c0,-0.547 1.569,-1 3.501,-1c1.932,0 3.501,0.453 3.501,1c0,0.547 -1,1 -3.501,1c-3.499,0 -3.501,-0.453 -3.501,-1zM28.003,18c0,-0.547 1.569,-1 3.501,-1c1.932,0 3.501,0.453 3.501,1c0,0.547 -0.003,1 -3.501,1c-2.501,0 -3.501,-0.453 -3.501,-1zM11.003,14.493c0,-0.08 0.021,-0.16 0.059,-0.227l0.035,-0.053c1.004,-1.666 1.906,-4.213 4.906,-4.213c3,0 5.601,2.2 5.639,2.227c0.22,0.187 0.361,0.467 0.361,0.773c0,0.547 -0.449,1 -1.001,1c-0.239,0 -0.457,-0.08 -0.633,-0.227c-1.86,-1.24 -2.843,-1.773 -4.366,-1.773c-2.22,0 -3.365,1.88 -4.131,2.84c-0.09,0.093 -0.222,0.16 -0.369,0.16c-0.276,0 -0.5,-0.227 -0.5,-0.507z"></path></g></g></svg>