<svg xmlns="http://www.w3.org/2000/svg"  viewBox="0 0 48 48" width="48px" height="48px"><path d="M 41.433594 2.015625 C 41.181469 1.97225 40.9135 2.0255469 40.6875 2.1855469 C 40.2355 2.4925469 40.125406 3.1192656 40.441406 3.5722656 L 41.816406 5.5332031 C 41.896406 5.7462031 41.829672 5.9998125 41.638672 6.1328125 C 41.412672 6.2798125 41.100406 6.227 40.941406 6 L 40.894531 5.9472656 L 21.826172 17.09375 L 20.439453 15.107422 L 40.048828 4.734375 L 39.472656 3.90625 L 19.863281 14.279297 C 19.540281 13.853297 18.931234 13.759406 18.490234 14.066406 C 18.150234 14.306406 18.005891 14.719719 18.212891 15.386719 L 18.244141 15.453125 L 20.169922 18.199219 L 15.253906 21.640625 L 13.857422 19.652344 L 14.677734 19.080078 L 15.298828 19.960938 L 18.574219 17.667969 L 16.279297 14.386719 L 15.152344 15.173828 C 13.029344 12.346828 11.405437 10.894344 8.6484375 10.027344 C 8.3844375 9.9473438 8.1044844 10.094656 8.0214844 10.347656 C 7.9394844 10.614656 8.0866094 10.894609 8.3496094 10.974609 C 10.812609 11.760609 12.276031 13.013094 14.332031 15.746094 L 13.003906 16.679688 L 14.103516 18.253906 L 13.279297 18.839844 C 12.950297 18.439844 12.364547 18.345344 11.935547 18.652344 C 11.595547 18.892344 11.44925 19.305656 11.65625 19.972656 L 11.689453 20.039062 L 13.613281 22.800781 L 13.210938 23.080078 C 9.9999375 25.320078 8.5923125 28.867609 10.070312 30.974609 C 7.9183125 27.894609 8.5401094 23.706719 11.412109 21.386719 L 10.837891 20.560547 C 7.8038906 22.973547 6.9306875 27.199609 8.6796875 30.599609 L 7.8417969 31.1875 C 7.2157969 30.8935 6.4555625 30.932375 5.8515625 31.359375 C 4.9465625 31.999375 4.727375 33.239484 5.359375 34.146484 C 5.992375 35.052484 7.2414844 35.267625 8.1464844 34.640625 C 8.7524844 34.214625 9.0491875 33.519172 8.9921875 32.826172 L 9.8085938 32.253906 C 10.698594 33.266906 11.802859 34.013797 13.005859 34.466797 C 12.999859 34.319797 12.998047 34.16 12.998047 34 C 12.998047 25.72 19.717094 19 27.996094 19 C 30.916094 19 33.643266 19.839969 35.947266 21.292969 L 46.306641 11.919922 C 46.645641 12.239922 47.173313 12.293672 47.570312 12.013672 C 48.022312 11.693672 48.132406 11.066281 47.816406 10.613281 L 42.080078 2.4257812 C 41.921578 2.1992813 41.685719 2.059 41.433594 2.015625 z M 42.013672 19.011719 C 40.889516 19.145594 38.945344 20.243844 36.902344 21.933594 C 37.962344 22.720594 38.914328 23.640016 39.736328 24.666016 C 42.129328 22.240016 43.485891 19.932891 42.837891 19.212891 C 42.671891 19.029641 42.388391 18.967094 42.013672 19.011719 z M 27.996094 20 C 20.270094 20 13.998047 26.28 13.998047 34 C 13.998047 39.901869 17.655617 44.940275 22.820312 47 L 10.912109 47 C 12.845258 46.242073 14.721203 45.125984 16.691406 43.853516 C 15.183406 42.120516 14.065609 40.052766 13.474609 37.759766 C 11.099609 40.652766 8.6530469 44 5.9980469 44 C 4.4860469 44 3.4870469 42 1.9980469 42 C 0.58104687 42 -0.001953125 43.8 -0.001953125 45 C -0.001953125 46.032614 0.73169799 46.729609 1.7441406 47.199219 C 0.78485731 47.280972 -0.001953125 47.3787 -0.001953125 47.492188 C -0.001953125 47.772104 4.3419799 47.999865 5.9960938 48 C 5.9967171 48 5.9974237 48 5.9980469 48 L 27.996094 48 L 27.998047 48 C 32.683047 48 44.998047 47.772187 44.998047 47.492188 C 44.998047 47.287365 38.419367 47.120891 33.046875 47.044922 C 38.275449 45.016394 41.992188 39.948126 41.992188 34 C 41.992187 26.28 35.721094 20 27.996094 20 z M 26.996094 23.052734 L 26.996094 30.119141 C 26.630094 30.212141 26.283844 30.360875 25.964844 30.546875 L 20.960938 25.546875 C 22.628937 24.160875 24.712094 23.252734 26.996094 23.052734 z M 28.998047 23.054688 C 31.281047 23.254688 33.362297 24.159875 35.029297 25.546875 L 30.029297 30.560547 C 29.712297 30.360547 29.365047 30.227094 28.998047 30.121094 L 28.998047 23.054688 z M 25.998047 24.199219 C 24.723047 24.466219 23.535328 24.959016 22.486328 25.666016 L 25.998047 29.173828 L 25.998047 24.199219 z M 29.998047 24.199219 L 29.998047 29.173828 L 33.507812 25.667969 C 32.459813 24.973969 31.271047 24.466219 29.998047 24.199219 z M 19.546875 26.960938 L 24.548828 31.972656 C 24.359828 32.279656 24.215141 32.627 24.119141 33 L 17.042969 33 C 17.249969 30.72 18.155875 28.627938 19.546875 26.960938 z M 36.445312 26.972656 C 37.835312 28.639656 38.740266 30.72 38.947266 33 L 31.871094 33 C 31.776094 32.626 31.631359 32.279656 31.443359 31.972656 L 36.445312 26.972656 z M 19.65625 28.492188 C 18.96125 29.532188 18.459219 30.72 18.199219 32 L 22.726562 32 L 22.986328 31.8125 L 19.65625 28.492188 z M 17.044922 35 L 24.121094 35 C 24.215094 35.373 24.362781 35.719062 24.550781 36.039062 L 19.546875 41.039062 C 18.155875 39.372062 17.249922 37.28 17.044922 35 z M 31.871094 35 L 38.947266 35 C 38.740266 37.28 37.834313 39.372062 36.445312 41.039062 L 31.443359 36.027344 C 31.632359 35.720344 31.776094 35.373 31.871094 35 z M 18.199219 36 C 18.459219 37.28 18.961203 38.467813 19.658203 39.507812 L 23.171875 36 L 18.199219 36 z M 30.027344 37.439453 L 35.03125 42.453125 C 33.36425 43.840125 31.280047 44.747266 28.998047 44.947266 L 28.998047 37.867188 C 29.363047 37.773187 29.710344 37.639453 30.027344 37.439453 z M 25.964844 37.453125 C 26.283844 37.640125 26.629094 37.787859 26.996094 37.880859 L 26.996094 44.947266 C 24.712094 44.747266 22.629891 43.840125 20.962891 42.453125 L 25.964844 37.453125 z"/></svg>