<svg xmlns="http://www.w3.org/2000/svg" xmlns:xlink="http://www.w3.org/1999/xlink" viewBox="0,0,256,256" width="48px" height="48px" fill-rule="nonzero"><g fill="#fcfafa" fill-rule="nonzero" stroke="none" stroke-width="1" stroke-linecap="butt" stroke-linejoin="miter" stroke-miterlimit="10" stroke-dasharray="" stroke-dashoffset="0" font-family="none" font-weight="none" font-size="none" text-anchor="none" style="mix-blend-mode: normal"><g transform="scale(5.33333,5.33333)"><path d="M14.421,35.751c0.513,0.373 1.075,0.673 1.68,0.887c1.807,3.445 5.396,6.361 7.901,6.361c2.431,0 5.344,-2.771 6.912,-6.1c0.991,-0.176 1.884,-0.575 2.663,-1.137c-1.585,4.764 -6.16,9.24 -9.575,9.24c-3.427,0 -8.002,-4.48 -9.581,-9.251zM20.003,38.999c1.131,-0.644 2.177,-2 3,-2c0.656,0 0.631,1 1,1c0.369,0 0.344,-1 1,-1c0.823,0 1.869,1.356 3,2c-0.935,0.92 -1.913,2 -3,2h-2c-1.087,0 -2.066,-1.08 -3,-2zM12.001,28.499c0,-2.955 1.032,-7.5 4.335,-7.5c3.363,0 5.171,1.003 7.121,2.457l0.544,0.415l0.544,-0.415c1.953,-1.455 3.764,-2.457 7.129,-2.457c3.315,0 4.335,4.573 4.335,7.5c0,3.86 -2.547,7.5 -6.251,7.5c-2.283,0 -4.401,-2 -5.756,-2c-1.339,0 -3.483,2 -5.751,2c-3.704,0 -6.25,-3.64 -6.25,-7.5zM24.003,32.999c1.745,0 3.751,2 5.756,2c2.856,0 5.107,-2.783 5.244,-6.173c-0.087,-1.416 -1.223,-2.505 -3.101,-2.765c-0.223,0.552 -0.763,0.941 -1.393,0.941c-0.828,0 -1.5,-0.673 -1.5,-1.501c0,-0.828 0.672,-1.501 1.5,-1.501c1.708,0 3.38,0.623 4.361,2.603c-0.357,-2.405 -1.401,-4.603 -3.195,-4.603c-3.511,0 -5.105,1.143 -7.367,2.896c-0.18,0.14 -0.432,0.14 -0.612,0c-2.26,-1.753 -3.851,-2.896 -7.36,-2.896c-1.787,0 -2.839,2.187 -3.196,4.604c0.98,-1.981 2.653,-2.604 4.363,-2.604c0.828,0 1.5,0.673 1.5,1.501c0,0.828 -0.672,1.501 -1.5,1.501c-0.631,0 -1.171,-0.389 -1.393,-0.941c-1.88,0.26 -3.016,1.349 -3.103,2.765c0.137,3.391 2.387,6.173 5.245,6.173c1.973,0 4.035,-2 5.751,-2zM16.003,28.999c0.615,-0.688 1.947,-1 3,-1c1.209,0 2.289,2 3,3c-3,0 -5,0 -6,-2zM29.008,27.999c1.053,0 2.385,0.312 3,1c-1,2 -3,2 -6,2c0.711,-1 1.791,-3 3,-3zM43,26.501c0,-0.212 0.044,-0.415 0.124,-0.597c-1.787,-0.401 -3.123,-1.997 -3.123,-3.904c0,-0.041 0,-0.084 0.001,-0.127c0.039,-3.495 1.695,-3.947 2.531,-5.193c0.524,-0.22 1.016,-0.553 1.42,-0.985c-0.089,0.609 -0.299,1.107 -0.589,1.541c-0.348,0.52 -0.843,0.967 -1.144,1.277c-0.519,0.533 -1.063,1.183 -1.189,2.755c-0.028,0.456 -0.035,0.916 -0.028,1.377c0.06,0.068 0.123,0.135 0.188,0.199l0.252,-0.779c0.451,-1.172 1.177,-1.935 1.852,-2.611c0.977,-0.98 1.708,-1.669 1.708,-3.455c0,-0.393 -0.121,-0.871 -0.345,-1.359c0.189,-0.419 0.309,-0.888 0.339,-1.401c0.645,0.908 1.007,1.935 1.007,2.76c0,4.048 -3.328,3.841 -3.913,7.513c0.569,0.311 1.221,0.487 1.915,0.487c1.863,0 3.429,-1.273 3.875,-2.997c0.083,0.32 0.125,0.653 0.125,0.997c0,1.597 -0.937,2.976 -2.291,3.617c0.181,0.248 0.289,0.555 0.289,0.884c0,0.828 -0.673,1.501 -1.501,1.501c-0.83,0.001 -1.503,-0.672 -1.503,-1.5zM2.002,25.499c0,-0.329 0.107,-0.636 0.288,-0.884c-1.352,-0.641 -2.288,-2.02 -2.288,-3.616c0,-0.344 0.043,-0.677 0.125,-0.997c0.445,1.724 2.012,2.997 3.875,2.997c0.683,0 1.327,-0.171 1.889,-0.473c-0.736,-3.516 -4.888,-2.483 -4.888,-6.527c0,-1.943 1.611,-3.723 3,-5c0.667,-0.489 1.357,-0.92 2.076,-1.272c-0.051,0.411 -0.076,0.833 -0.076,1.272c0,2.865 2.552,5 5.455,5c1.161,0 2.357,-0.335 3.231,-1.195c0.92,1.416 1.717,2.844 2.424,4.28c0.592,-4.793 1.524,-10.2 3.891,-12.085c1.625,-1.164 3.556,-2 6,-2c0.949,0 1.977,0.717 2.549,1.616c0.811,-1.6 2.452,-2.616 4.451,-2.616c1.157,0 4.336,1.82 6,3c0.837,0.593 1,1.773 1,3v3.647c0.636,-0.509 1,-1.512 1,-2.647c1.083,0.379 2,1.057 2,2c0,1.851 -1.588,3 -3,3c-1.811,0 -4,-1.577 -4,-3v-5c0,-0.128 -0.015,-0.261 -0.041,-0.396c-1.136,0.835 -1.959,2.101 -1.959,3.396l-0.001,2.22c-1.256,1.189 -2.301,2.616 -3.196,4.152c0.143,-0.476 0.197,-0.984 0.197,-1.372c0,-1.879 -1.031,-3.416 -2.287,-4.699c-0.156,-0.156 -0.339,-0.248 -0.351,-0.231l-0.364,-0.069l0.001,-3.001c0,-0.859 -1.145,-2 -2,-2c-1.096,0 -2.077,0.187 -2.972,0.505l-0.637,0.257l0.395,0.328c0.656,0.659 1.071,1.543 1.333,2.445c0.492,1.693 0.596,3.84 0.864,5.283c0.1,0.544 0.269,1.179 0.519,1.652c0.269,0.511 0.457,0.529 0.499,0.529h2v-5c1.187,1.212 2,2.509 2,4c0,0.745 -0.255,2 -1,2h-3c-0.249,0 -0.471,-0.073 -0.667,-0.203c0.191,0.56 0.947,1.203 1.667,1.203h2c0.124,0 0.243,-0.013 0.34,-0.036l0.088,-0.027c0.44,-0.172 0.611,-0.297 0.751,-0.439c0.012,-0.012 0.024,-0.024 0.035,-0.036c0.004,-0.005 0.007,-0.011 0.011,-0.016c0.063,-0.067 0.037,-0.033 -0.011,0.016c-0.121,0.199 -0.279,0.496 -0.455,0.859l0.241,0.679l-0.02,0.015c-2.736,0.113 -4.507,0.904 -6.143,2.005l-0.839,0.596l-0.833,-0.593c-1.768,-1.191 -3.695,-2.023 -6.832,-2.023c-2.241,0 -3.596,1.615 -4.333,3.275c-0.241,0.544 -0.433,1.127 -0.581,1.723c-1.269,-5.327 -3.692,-9.997 -6.419,-9.997h-1.768c0.975,1.855 4.668,1.811 4.763,5.813c0.004,0.08 0.005,0.133 0.005,0.187c0,1.907 -1.337,3.504 -3.124,3.904c0.079,0.183 0.124,0.385 0.124,0.596c0,0.828 -0.673,1.501 -1.501,1.501c-0.828,0 -1.501,-0.673 -1.501,-1.501zM36.007,23.274c-0.707,-1.592 -2.076,-3.275 -4.332,-3.275c-0.041,0 -0.08,0.001 -0.12,0.001c1.365,-2.864 3.069,-5.448 5.447,-7.137l0.001,1.136c0,1.208 1.575,2.525 3.159,2.897c-1.889,2.192 -3.045,4.839 -3.644,7.829c-0.138,-0.5 -0.307,-0.99 -0.511,-1.451zM6.947,21.705c0.025,-0.324 0.041,-0.657 0.036,-1.009l-0.023,-0.36c-0.189,-1.433 -1.012,-2.067 -1.984,-2.669c-0.536,-0.331 -1.304,-0.743 -1.86,-1.241c-0.396,-0.353 -0.732,-0.785 -0.928,-1.327l-0.013,-0.043l-0.117,0.4c-0.036,0.181 -0.055,0.364 -0.055,0.544c0,1.624 0.768,2.055 2.015,2.804c0.849,0.512 1.803,1.12 2.399,2.236l0.121,0.255c0.083,0.201 0.148,0.409 0.204,0.619c0.07,-0.068 0.138,-0.137 0.205,-0.209zM15.356,13.921c0.403,-0.724 0.645,-1.667 0.645,-2.873l-0.008,0.011c-0.093,2.105 -2.105,3.941 -3.991,3.941c-2.812,0 -5,-1.868 -5,-4c0,-1.433 0.337,-2.667 1,-4c0,2.901 1.868,5 4,5c1.156,0 2.155,-0.16 3.124,-0.564c-0.168,-0.461 -0.331,-0.925 -0.479,-1.399c-0.376,-1.297 -0.645,-2.637 -0.645,-4.037c0,-0.347 0.072,-0.771 0.209,-1.211l0.084,-0.219l-0.177,0.051c-1.231,0.367 -2.604,0.849 -3.744,1.307c-0.172,0.069 -0.211,0.123 -0.24,0.179c-0.055,0.1 -0.132,0.34 -0.132,0.893c0,1.376 0.697,2.709 1.684,3.997c-0.076,0.003 -0.152,0.003 -0.229,0.003c-0.449,0 -0.917,-0.179 -1.339,-0.521c-0.662,-1.088 -1.115,-2.257 -1.115,-3.48c0,-1.245 0.336,-1.733 1,-2c2.195,-0.883 5.627,-2 7,-2c1.58,0 2.607,1.389 3.223,3.289c-2.091,1.784 -3.107,5.713 -3.711,9.484c-0.366,-0.618 -0.751,-1.235 -1.159,-1.851zM40.003,13.999v-4c0,-1.28 -0.207,-1.92 -0.579,-2.184c-0.397,-0.281 -0.889,-0.603 -1.421,-0.928l-0.257,-0.147l0.121,0.353c0.085,0.299 0.136,0.603 0.136,0.905v5.539c0.652,0.296 1.301,0.462 2,0.462zM24.003,46.997c7.728,0 14,0.225 14,0.501c0,0.276 -6.272,0.501 -14,0.501c-7.728,0 -14,-0.225 -14,-0.501c0,-0.276 6.272,-0.501 14,-0.501z"></path></g></g></svg>