<svg xmlns="http://www.w3.org/2000/svg"  viewBox="0 0 48 48" width="48px" height="48px"><path d="M24.003 47c7.176 0 13 .227 13 .493 0 .28-5.824.507-13 .507-7.176 0-13-.227-13-.507C11.003 47.227 16.827 47 24.003 47zM9.003 24v-8.6c0-5.973 2.132-9.227 5.297-10.867C17.31 2.973 21.074 3 24.003 3c2.928 0 6.692-.027 9.701 1.533 3.165 1.64 5.299 4.893 5.299 10.867V24c0 11.8-8.515 20-15 20C17.537 44 9.003 35.773 9.003 24zM22.767 40.893L22.002 34h4.001l-.767 6.893C30.133 40.027 36.003 34.147 36.003 24v-9.333c-.765-.987-1.904-2.667-4-2.667-1.523 0-2.505.533-4.365 1.773C27.462 13.92 27.243 14 27.005 14c-.552 0-1.001-.453-1.001-1 0-.307.141-.587.361-.773C26.402 12.2 29.003 10 32.003 10c2.048 0 3.119 1.187 3.911 2.467-.397-4.093-2.088-6.093-4.129-7.16C29.289 4.027 27.053 4 24.003 4c-3.051 0-6.287.027-8.783 1.307-2.34 1.213-4.217 3.667-4.217 9.093V24C11.003 34.133 17.749 40.027 22.767 40.893zM20.007 32.493c0-.267.224-.493.5-.493h6.992c.275 0 .5.227.5.493 0 .28-.225.507-.5.507h-6.992C20.231 33 20.007 32.773 20.007 32.493zM13.297 26.8l.537-.347c.883 1.6 2.541 2.547 4.169 2.547h3c.595 0 1.209-.56 1.383-1.133L22.651 27h1.352l-1 4h-5C15.902 31 14.122 28.787 13.297 26.8zM25.003 31l-1-4h1.352l.265.867C25.794 28.44 26.409 29 27.003 29h3c1.628 0 3.287-.947 4.169-2.547L34.71 26.8c-.825 1.987-2.605 4.2-4.707 4.2H25.003zM27.503 27.493c1.071-.093 1.569-.68 1.637-1.6l.003-.373-.051-.347c-.177-.733-.751-1.213-1.333-1.72-.413-.36-.817-.733-1.165-1.16-1.129-1.387-1.297-3.08-1.091-4.8.184 1.56.657 2.96 1.725 4.107.872.947 2.319 1.773 2.584 3.12C30.129 26.307 29.219 27.693 27.503 27.493zM18.35 24.227c.459-1.067 1.649-1.787 2.425-2.627 1.073-1.16 1.532-2.547 1.728-4.107.193 1.707.049 3.307-1.021 4.707-.279.36-.605.693-.944 1-.559.493-1.567 1.213-1.675 2.307-.088 1.133.439 1.867 1.64 1.987C18.571 27.747 17.65 25.84 18.35 24.227zM20.003 25.373c0-.347.711-.373 1.207-.373.611 0 1.793.173 1.793.307 0 .373-.955.693-1.901.693C20.655 26 20.003 25.747 20.003 25.373zM25.003 25.307c0-.133 1.183-.307 1.793-.307.496 0 1.207.027 1.207.373 0 .373-.652.627-1.099.627C25.958 26 25.003 25.68 25.003 25.307zM17.117 22.68c.52-.827 1.075-1.627 1.616-2.427C18.273 23 17.435 25.24 14.514 26 15.669 25.093 16.343 23.893 17.117 22.68zM29.274 20.253c.535.813 1.089 1.613 1.612 2.427.777 1.213 1.447 2.413 2.607 3.32C30.603 25.28 29.702 22.96 29.274 20.253zM13.001 18c0-.547 1.569-1 3.501-1s3.501.453 3.501 1c0 .547-1 1-3.501 1C13.003 19 13.001 18.547 13.001 18zM28.003 18c0-.547 1.569-1 3.501-1s3.501.453 3.501 1c0 .547-.003 1-3.501 1C29.003 19 28.003 18.547 28.003 18zM11.003 14.493c0-.08.021-.16.059-.227l.035-.053C12.101 12.547 13.003 10 16.003 10s5.601 2.2 5.639 2.227c.22.187.361.467.361.773 0 .547-.449 1-1.001 1-.239 0-.457-.08-.633-.227C18.509 12.533 17.526 12 16.003 12c-2.22 0-3.365 1.88-4.131 2.84C11.782 14.933 11.65 15 11.503 15 11.227 15 11.003 14.773 11.003 14.493z"/></svg>