<svg xmlns="http://www.w3.org/2000/svg" xmlns:xlink="http://www.w3.org/1999/xlink" viewBox="0,0,256,256" width="48px" height="48px" fill-rule="nonzero"><g fill="#fcfafa" fill-rule="nonzero" stroke="none" stroke-width="1" stroke-linecap="butt" stroke-linejoin="miter" stroke-miterlimit="10" stroke-dasharray="" stroke-dashoffset="0" font-family="none" font-weight="none" font-size="none" text-anchor="none" style="mix-blend-mode: normal"><g transform="scale(5.33333,5.33333)"><path d="M24.002,47c8.832,0 16,0.227 16,0.493c0,0.28 -7.168,0.507 -16,0.507c-8.832,0 -16,-0.227 -16,-0.507c0,-0.266 7.168,-0.493 16,-0.493zM23.239,44.653l-22.995,-27c-0.339,-0.4 -0.315,-0.987 0.053,-1.36l7,-7c0.189,-0.186 0.444,-0.293 0.709,-0.293h31.994c0.264,0 0.519,0.107 0.707,0.293l7,7c0.368,0.373 0.392,0.96 0.053,1.36l-23,27c-0.398,0.467 -1.122,0.467 -1.521,0zM24.001,42.453l7.024,-8.24c-2.122,0.454 -3.714,0.787 -7.023,0.787c-3.169,0 -4.963,-0.387 -7.043,-0.813zM31.239,32.68c0.201,-0.027 0.427,-0.053 0.668,-0.093l1.4,-1.6l-0.085,0.04c-0.989,0.4 -2.18,0.547 -2.983,0.653c-2.277,0.28 -5.081,0.32 -7.237,0.32c-0.227,0 -0.445,-0.08 -0.621,-0.213c-1.062,-0.84 -1.899,-1.787 -3.379,-1.787c-0.736,0 -1.503,0.227 -2.269,0.56l-1.333,0.72l0.74,1.12l0.26,-0.12l1.333,-0.72c0.767,-0.333 1.533,-0.56 2.269,-0.56c1.48,0 2.317,0.947 3.379,1.787c0.176,0.133 0.394,0.213 0.621,0.213c2.156,0 4.96,-0.04 7.237,-0.32zM34.002,29c0,-3.64 -18.706,-2.2 -25.508,-4.747l5.604,6.573c1.387,-0.826 3.165,-1.826 4.904,-1.826c1.921,0 3.099,1.28 4,2c4.311,0 11,-0.173 11,-2zM38.999,24.853l6.641,-7.8l-4.639,-4.64v4.587h-8c0,-3.693 -5.165,-6 -10,-6c-3.281,0 -9,1.973 -9,4c0.001,6.4 24.744,0.307 24.998,9.853zM26.426,19.747c-3.063,-0.227 -6.293,-0.373 -8.717,-0.867c-1.14,-0.227 -2.333,-0.587 -3.235,-1.2c0.823,1.28 2.587,1.867 4.235,2.2c2.424,0.493 5.655,0.64 8.717,0.867c4.469,0.347 8.057,0.88 9.996,2.267c-1.464,-2.147 -5.583,-2.854 -10.996,-3.267zM8.061,22.853c0,-3.4 1.975,-6.813 5.289,-9.04c0.611,-1.013 1.957,-1.853 3.508,-2.48l0.948,-0.333h-1.627l-1.903,0.733c-4.461,2.08 -7.216,6.093 -7.216,10.12c0,0.253 0.056,0.667 1.007,1.133c-0.005,-0.039 -0.006,-0.093 -0.006,-0.133zM13.481,11h-5.062l-6.055,6.053l3.705,4.36c0.192,-4.213 3.03,-8.226 7.412,-10.413zM35.95,14.32l0.772,-2.32h3.28v-0.587l-0.415,-0.413h-3.865l-0.772,2.32c-0.188,0.56 -0.788,0.8 -1.283,0.627c0.184,0.2 0.361,0.427 0.533,0.653c0.483,0.64 1.495,0.48 1.75,-0.28zM34.002,13l0.667,-2h-2.671c0.769,0.533 1.439,1.24 2.004,2z"></path></g></g></svg>