<svg xmlns="http://www.w3.org/2000/svg"  viewBox="0 0 48 48" width="48px" height="48px"><path d="M24.003 47.001c9.933 0 17.997.224 17.997.5s-8.064.5-17.997.5-17.997-.224-17.997-.5S14.069 47.001 24.003 47.001zM12 39.001c-7.016-1.653-12-1-12-4.565 0-.352.639-.435 1-.435 4.247 0 6.741.875 12.696.988.045.008.091.012.139.012h6.228c-.053-.153-.081-.317-.081-.489v-.511h-5.94l-.032-.211c-.016-.185-.015-.409.024-.639.085-.481.231-1.04.44-1.495.173-.38.331-.552.416-.62l.052-.036h5.04v-.509c0-.171.028-.336.081-.491h-4.872c.447-1.532.809-3.003.809-4 0-1.308.808-3.075 1.149-4.571.223-.98.291-1.851.423-2.489 3.339.36 6.549 1.077 9.796 1.916.132.043.275-.031.317-.163.043-.132-.031-.275-.163-.317-1.123-.419-2.189-.832-3.341-1.175-2.273-.676-4.476-1.025-6.187-1.196L18 18.001c-.603-.477-.276-1.113-.789-2.368-.477-1.167-1.336-2.519-2.211-3.632-.571-.724-1.944-1.139-1.999-1.949.535-.869 1.841-1.824 2.544-2.372.12-.069.161-.225.092-.345s-.225-.161-.345-.092c-1.325.599-2.345 1.056-3.093 2.233C11.803 9.219 11.403 9.001 11 9.001c-3.68 0-2.915 7-3.384 7-.633 0-.616-2.271-.616-4 0-2.769 1.177-5.525 4.051-6.968.605-.304 1.289-.179 2.051-.353C13.963 4.481 14.925 4.001 16 4.001c1.867 0 2.927.312 4 1h.555c.759 0 1.795.883 2.913 2.301.497.632.805 1.723 1.319 2.536.527.835 1.107 1.513 1.761 2.357 2.007 2.587 3.192 5.851 3.452 8.805.511.489 1 1.255 1 2v1c0 1.053 1 1.948 1 3 0 .959.319 1.972.697 3h-4.776c.053.155.083.32.083.491v.509h5.052l.052.036c.085.068.243.24.417.62.209.455.355 1.013.44 1.495.037.225.039.449.023.633l-.032.216h-5.952v.511c0 .172-.029.336-.083.489h6.244c.503 0 .731-.465.805-1H47c.363 0 1 .083 1 .435 0 1.324-9.887 6.565-24 6.565C19.224 41.001 15.588 39.847 12 39.001zM27.004 34.511v-4.017c0-.244-.18-.449-.412-.492h-5.2c-.233.043-.411.248-.411.492v1.508h-.492c-.276 0-.5.225-.5.5 0 .276.224.5.5.5h.492v1.509c0 .244.173.447.404.491h5.212C26.828 34.957 27.004 34.755 27.004 34.511zM21.981 34.011v-1.009h1.524c.275 0 .5-.224.5-.5 0-.275-.225-.5-.5-.5h-1.524v-1.008h4.023v3.017H21.981zM20.176 14.781c-.296-2.003-1.136-3.876-2.405-5.415-.349-.428-.98-.488-1.405-.137-.427.351-.488.98-.137 1.408.975 1.183 1.944 2.679 2.491 4.267C18.867 15.421 20.347 16.473 20.176 14.781z"/></svg>