<svg xmlns="http://www.w3.org/2000/svg"  viewBox="0 0 48 48" width="48px" height="48px"><path d="M 28.998047 2 C 28.527047 2 27.998047 2.529 27.998047 3 L 27.998047 4 C 28.050047 5.488 28.990875 6.5487656 29.671875 7.7597656 C 30.404875 9.0617656 30.475281 10.037 30.488281 11.5 C 30.195281 10.408 29.767813 9.34325 29.132812 8.40625 C 28.436813 7.37825 27.6585 6.7968437 27.1875 5.5898438 C 27.1475 5.4908437 27.11775 5.3825313 27.09375 5.2695312 C 25.00775 8.2015312 22.998047 11.220953 22.998047 15.001953 C 22.998047 17.972953 23.862 20.991453 26 22.814453 C 26.075 18.930453 28.499047 15.436078 31.998047 13.080078 L 31.998047 11 C 31.998047 7.839 30.634047 2 28.998047 2 z M 31.998047 2.0019531 C 31.639047 2.0019531 31.284422 2.2501406 31.107422 2.6191406 C 31.561422 3.4201406 31.870313 4.3581562 32.070312 5.0351562 C 32.638312 6.9671563 32.998047 9.3129531 32.998047 11.001953 L 32.998047 12.458984 C 34.849047 11.384984 36.941281 10.615047 39.113281 10.248047 C 36.711281 8.1650469 34.702047 6.0809531 32.998047 3.0019531 C 32.786047 2.6179531 32.469047 2.0019531 31.998047 2.0019531 z M 34.185547 3.0683594 C 34.828547 4.1573594 35.517812 5.1179531 36.257812 6.0019531 L 39.998047 6.0019531 C 40.054047 6.0019531 40.108063 6.0029062 40.164062 6.0039062 C 38.452063 4.1819063 36.425547 3.3053594 34.185547 3.0683594 z M 37.144531 7.0019531 C 38.145531 8.0729531 39.240312 9.0542656 40.445312 10.072266 C 40.961312 10.025266 41.479047 10.001953 41.998047 10.001953 L 44.998047 10.001953 C 43.219047 8.8139531 42.425047 7.0019531 39.998047 7.0019531 L 37.144531 7.0019531 z M 41.998047 11.001953 C 34.262047 11.001953 26.998047 16.600953 26.998047 23.001953 C 26.998047 24.437953 30.122047 25.001953 31.998047 25.001953 C 40.405047 25.001953 42.9995 16.046953 44.3125 13.001953 C 43.9405 13.001953 43.570219 13.000187 43.199219 12.992188 C 40.233219 13.073187 38.189281 13.149953 35.488281 14.501953 C 35.906281 14.140953 36.24275 13.829297 36.71875 13.529297 C 38.66675 12.301297 40.940406 12.058766 43.191406 12.009766 C 43.782406 12.001766 44.989047 12.001953 44.998047 12.001953 L 45.498047 12.001953 C 45.773047 12.001953 45.998047 11.777953 45.998047 11.501953 C 45.998047 11.226953 45.773047 11.001953 45.498047 11.001953 L 41.998047 11.001953 z M 13.496094 14.001953 C 11.584094 16.388953 7.9960938 18.788953 7.9960938 23.001953 C 7.9960937 27.058953 9.7271406 29.757469 11.994141 31.230469 C 11.996141 30.584469 11.997859 29.943781 12.005859 29.300781 C 12.041859 26.729781 12.145656 24.059438 12.597656 21.523438 C 12.844656 20.140438 13.131094 18.859906 13.496094 17.503906 C 13.116094 21.445906 12.989094 25.041953 12.996094 29.001953 L 12.996094 34.785156 C 9.3240938 38.075156 5.4632969 41.212313 1.4042969 44.195312 C 0.96029687 44.522313 0.86440625 45.150703 1.1914062 45.595703 C 1.5184062 46.039703 2.1458437 46.134594 2.5898438 45.808594 C 5.1408438 43.933594 7.6146719 41.997953 10.013672 40.001953 L 14.208984 40.001953 C 15.494984 42.740953 18.358141 45.001953 22.994141 45.001953 C 27.207141 45.001953 29.607141 41.413953 31.994141 39.501953 C 29.607141 37.589953 27.207141 34.001953 22.994141 34.001953 C 18.935141 34.001953 16.235672 35.737859 14.763672 38.005859 C 15.408672 38.006859 16.055312 38.005766 16.695312 38.009766 C 18.165312 38.045766 19.605219 38.072641 21.074219 38.181641 C 23.632219 38.372641 26.019234 38.826953 28.490234 39.501953 C 26.932234 39.390953 25.377406 39.230016 23.816406 39.166016 C 21.429406 39.067016 19.385094 39.020953 16.996094 39.001953 L 11.203125 39.001953 C 16.624125 34.401953 21.654453 29.492156 26.314453 24.285156 C 25.729453 23.925156 25.212766 23.500391 24.759766 23.025391 C 21.372766 26.805391 17.787094 30.425812 13.996094 33.882812 L 13.996094 31.787109 C 16.733094 30.501109 18.996094 27.637953 18.996094 23.001953 C 18.996094 18.788953 15.408094 16.388953 13.496094 14.001953 z M 7.9980469 47.001953 C 5.7940469 47.001953 -0.001953125 47.221953 -0.001953125 47.501953 C -0.001953125 47.780953 5.7940469 48.001953 7.9980469 48.001953 C 16.537047 48.001953 38.998047 47.780953 38.998047 47.501953 C 38.998047 47.221953 16.537047 47.001953 7.9980469 47.001953 z"/></svg>