<svg xmlns="http://www.w3.org/2000/svg"  viewBox="0 0 48 48" width="48px" height="48px"><path d="M24.002 47c8.832 0 16 .227 16 .493 0 .28-7.168.507-16 .507-8.832 0-16-.227-16-.507C8.002 47.227 15.17 47 24.002 47zM23.239 44.653l-22.995-27c-.339-.4-.315-.987.053-1.36l7-7C7.486 9.107 7.741 9 8.006 9h31.994c.264 0 .519.107.707.293l7 7c.368.373.392.96.053 1.36l-23 27C24.362 45.12 23.638 45.12 23.239 44.653zM24.001 42.453l7.024-8.24C28.903 34.667 27.311 35 24.002 35c-3.169 0-4.963-.387-7.043-.813L24.001 42.453zM31.239 32.68c.201-.027.427-.053.668-.093l1.4-1.6-.085.04c-.989.4-2.18.547-2.983.653C27.962 31.96 25.158 32 23.002 32c-.227 0-.445-.08-.621-.213C21.319 30.947 20.482 30 19.002 30c-.736 0-1.503.227-2.269.56l-1.333.72.74 1.12.26-.12 1.333-.72c.767-.333 1.533-.56 2.269-.56 1.48 0 2.317.947 3.379 1.787C23.557 32.92 23.775 33 24.002 33 26.158 33 28.962 32.96 31.239 32.68zM34.002 29c0-3.64-18.706-2.2-25.508-4.747l5.604 6.573C15.485 30 17.263 29 19.002 29c1.921 0 3.099 1.28 4 2C27.313 31 34.002 30.827 34.002 29zM38.999 24.853l6.641-7.8-4.639-4.64V17h-8c0-3.693-5.165-6-10-6-3.281 0-9 1.973-9 4C14.002 21.4 38.745 15.307 38.999 24.853zM26.426 19.747c-3.063-.227-6.293-.373-8.717-.867-1.14-.227-2.333-.587-3.235-1.2.823 1.28 2.587 1.867 4.235 2.2 2.424.493 5.655.64 8.717.867 4.469.347 8.057.88 9.996 2.267C35.958 20.867 31.839 20.16 26.426 19.747zM8.061 22.853c0-3.4 1.975-6.813 5.289-9.04.611-1.013 1.957-1.853 3.508-2.48L17.806 11h-1.627l-1.903.733c-4.461 2.08-7.216 6.093-7.216 10.12 0 .253.056.667 1.007 1.133C8.062 22.947 8.061 22.893 8.061 22.853zM13.481 11H8.419l-6.055 6.053 3.705 4.36C6.261 17.2 9.099 13.187 13.481 11zM35.95 14.32L36.722 12h3.28v-.587L39.587 11h-3.865l-.772 2.32c-.188.56-.788.8-1.283.627.184.2.361.427.533.653C34.683 15.24 35.695 15.08 35.95 14.32zM34.002 13l.667-2h-2.671C32.767 11.533 33.437 12.24 34.002 13z"/></svg>