<svg xmlns="http://www.w3.org/2000/svg"  viewBox="0 0 48 48" width="48px" height="48px"><path d="M 24.001953 4.0019531 C 11.857953 4.0019531 2.0019531 13.854953 2.0019531 26.001953 C 2.0019531 35.90257 8.5514222 44.275525 17.548828 47.035156 C 10.266354 47.106121 5.0019531 47.288901 5.0019531 47.507812 C 5.0019531 47.773812 13.513953 48.001953 24.001953 48.001953 C 34.489953 48.001953 43.001953 47.774813 43.001953 47.507812 C 43.001953 47.288917 37.736709 47.106133 30.455078 47.035156 C 39.45278 44.275525 46.003906 35.90257 46.003906 26.001953 C 46.003906 13.854953 36.145953 4.0019531 24.001953 4.0019531 z M 23.001953 6.0019531 C 24.283953 6.0019531 25.536047 6.1330469 26.748047 6.3730469 C 26.628047 6.6260469 26.523641 6.8945 26.431641 7.1875 C 26.376641 7.1745 26.318766 7.1738281 26.259766 7.1738281 C 23.252766 7.4808281 20.177281 8.1886406 16.988281 9.6816406 C 16.868281 9.7356406 16.783328 9.8272656 16.736328 9.9472656 C 15.462328 9.4802656 13.738953 9.0807344 12.126953 9.4277344 C 15.208953 7.2677344 18.957953 6.0019531 23.001953 6.0019531 z M 26.736328 7.9355469 C 29.096328 9.3485469 31.259703 10.920969 33.220703 12.667969 C 33.156703 12.747969 33.111609 12.828547 33.099609 12.935547 C 32.774609 15.588547 32.274438 18.227187 31.523438 20.867188 C 31.500438 20.934187 31.498719 21.015703 31.511719 21.095703 C 28.649719 21.615703 25.869953 22.374219 23.251953 23.574219 C 23.218953 23.507219 23.171328 23.454062 23.111328 23.414062 L 15.548828 17.707031 C 15.502828 17.667031 15.450437 17.641906 15.398438 17.628906 L 17.103516 10.628906 C 17.203516 10.641906 17.312109 10.627891 17.412109 10.587891 C 20.481109 9.1478906 23.443375 8.4687812 26.359375 8.1757812 C 26.519375 8.1627813 26.656328 8.0685469 26.736328 7.9355469 z M 10.068359 11 C 10.323984 11.015 10.572406 11.129437 10.753906 11.335938 C 11.114906 11.748938 11.079969 12.388047 10.667969 12.748047 C 8.0569687 15.041047 8.1661875 17.960266 7.6171875 17.947266 C 7.0631875 17.921266 6.22675 14.015859 9.34375 11.255859 C 9.55075 11.069359 9.8127344 10.985 10.068359 11 z M 34.095703 13.001953 L 37.730469 13.001953 C 40.400469 16.268953 42.003906 20.454953 42.003906 25.001953 C 42.003906 26.081953 41.913234 27.135109 41.740234 28.162109 C 40.182234 28.322109 38.591078 28.427141 36.955078 28.494141 C 36.907078 28.494141 36.863313 28.507484 36.820312 28.521484 C 35.832313 26.014484 34.426656 23.614328 32.347656 21.361328 C 32.411656 21.307328 32.459375 21.227766 32.484375 21.134766 C 33.251375 18.441766 33.760797 15.747687 34.091797 13.054688 C 34.093797 13.041688 34.095703 13.014953 34.095703 13.001953 z M 5.4238281 17.773438 C 5.6188281 19.440437 6.4031875 20.720859 7.3671875 21.880859 C 7.2891875 21.947859 7.2290781 22.041438 7.2050781 22.148438 C 6.4500781 25.548438 6.4141406 28.788875 6.8691406 31.921875 C 6.8791406 31.988875 6.9025 32.054422 6.9375 32.107422 C 6.5165 32.400422 6.1153906 32.694344 5.7753906 33.027344 C 4.6353906 30.587344 4 27.868953 4 25.001953 C 4 22.441953 4.5048281 20.000438 5.4238281 17.773438 z M 14.824219 18.376953 C 14.856219 18.429953 14.896266 18.469766 14.947266 18.509766 L 22.509766 24.201172 C 22.564766 24.254172 22.625453 24.281922 22.689453 24.294922 C 22.140453 27.201922 21.950563 30.135031 22.226562 33.082031 C 22.170563 33.095031 22.117406 33.107766 22.066406 33.134766 C 20.954406 33.800766 19.151875 34.734812 17.546875 35.507812 C 16.745875 35.894812 14.8785 36.748125 14.6875 36.828125 L 14.015625 37.134766 C 11.800625 35.614766 9.7180469 33.947109 7.7480469 32.162109 C 7.8360469 32.055109 7.8813281 31.922391 7.8613281 31.775391 C 7.4233281 28.762391 7.4555938 25.643953 8.1835938 22.376953 C 8.2075938 22.256953 8.1925313 22.149969 8.1445312 22.042969 L 14.824219 18.376953 z M 25.824219 25.015625 C 26.075969 24.970625 26.344812 25.022281 26.570312 25.175781 C 27.021313 25.495781 27.138172 26.121219 26.826172 26.574219 C 24.842172 29.427219 25.651281 32.227656 25.113281 32.347656 C 24.572281 32.454656 22.818641 28.867734 25.181641 25.427734 C 25.338141 25.201234 25.572469 25.060625 25.824219 25.015625 z M 41.539062 29.1875 C 40.336062 34.5345 36.881563 39.028234 32.226562 41.615234 C 32.121563 39.841234 31.924281 38.12175 31.613281 36.46875 C 31.601281 36.40275 31.579828 36.347922 31.548828 36.294922 C 33.750828 34.441922 35.451297 32.122078 36.779297 29.455078 C 36.846297 29.482078 36.919094 29.494141 36.996094 29.494141 C 38.550094 29.427141 40.060063 29.3205 41.539062 29.1875 z M 22.736328 33.853516 C 25.597328 35.400516 28.200094 36.227547 30.621094 36.560547 C 30.621094 36.586547 30.623859 36.614297 30.630859 36.654297 C 30.958859 38.401297 31.157906 40.228094 31.253906 42.121094 C 28.757906 43.321094 25.957906 44.001953 23.003906 44.001953 C 20.288906 44.001953 17.707094 43.427391 15.371094 42.400391 C 15.068094 40.920391 14.78425 39.426594 14.53125 37.933594 C 14.55125 37.933594 14.567031 37.934875 14.582031 37.921875 C 14.701031 37.894875 15.530172 37.547063 15.826172 37.414062 C 16.419172 37.148063 17.176375 36.800391 17.984375 36.400391 C 19.594375 35.627391 21.426125 34.681953 22.578125 34.001953 C 22.642125 33.961953 22.696328 33.906516 22.736328 33.853516 z"/></svg>