<svg xmlns="http://www.w3.org/2000/svg"  viewBox="0 0 48 48" width="48px" height="48px"><path d="M 23.982422 2 C 18.151422 2.16 13.626406 7.3992187 11.066406 12.199219 C 10.499406 13.252219 10.068781 14.386531 9.6757812 15.519531 C 9.1437812 17.052531 8.7759531 18.972609 8.7519531 20.599609 C 8.7499531 20.732609 8.6331406 20.839844 8.4941406 20.839844 C 8.3551406 20.839844 8.2440937 20.720891 8.2460938 20.587891 C 8.2750937 18.987891 8.3711094 17.546328 8.7871094 15.986328 C 9.8351094 12.052328 12.044438 8.0130781 15.148438 5.0800781 C 9.9264375 8.7200781 5.9980469 14.987891 5.9980469 20.587891 C 5.9980469 29.093891 15.028156 45.879047 23.910156 45.998047 C 23.934156 45.998047 23.959375 45.986328 23.984375 45.986328 C 26.830375 46.066328 29.3955 43.373047 31.0625 41.373047 C 31.6805 40.626047 32.259203 39.785656 32.783203 38.972656 C 34.994203 35.545656 36.748734 31.625422 37.927734 27.732422 C 38.580734 25.572422 39.249906 22.892609 39.253906 20.599609 C 39.254906 20.453609 39.370766 20.347656 39.509766 20.347656 C 39.648766 20.347656 39.758812 20.466609 39.757812 20.599609 C 39.711813 21.519609 39.705469 22.359969 39.605469 23.292969 C 39.439469 24.825969 39.080688 26.399578 38.679688 27.892578 C 37.465688 32.386578 35.377828 37.067859 32.673828 40.880859 C 32.302828 41.400859 31.895172 41.933797 31.451172 42.466797 C 37.355172 37.053797 42.001953 26.680891 42.001953 20.587891 C 42.001953 12.067891 32.912953 2 24.001953 2 L 23.982422 2 z M 24.001953 6 C 27.668953 6 31.594078 9.0937188 33.205078 13.386719 C 33.542078 14.280719 34.642562 15.812969 35.226562 16.292969 C 36.391563 17.239969 36.998047 18.707 36.998047 20 C 36.998047 23.907 34.665406 24.000266 32.566406 25.947266 C 31.758406 26.773266 30.789578 29.373 30.142578 31 C 28.041578 36.053 27.557953 42.000953 24.001953 42.001953 C 20.445953 42.001953 19.958422 36.054953 17.857422 31.001953 C 17.210422 29.375953 16.241594 26.774266 15.433594 25.947266 C 13.334594 24.000266 11.001953 23.908953 11.001953 20.001953 C 11.001953 18.707953 11.608438 17.241922 12.773438 16.294922 C 13.357438 15.814922 14.457922 14.279719 14.794922 13.386719 C 16.405922 9.0927187 20.334953 6 24.001953 6 z M 26.955078 12.667969 C 26.84282 12.677537 26.725641 12.711813 26.603516 12.773438 C 25.139516 13.413437 25.952344 16.345344 26.277344 17.652344 C 27.092344 19.932344 28.557156 22.212891 31.160156 22.212891 C 32.626156 22.212891 34.254453 20.585313 33.439453 18.945312 C 33.114453 18.305312 32.139219 18.132344 31.324219 17.652344 C 30.185219 16.999344 29.371703 15.853547 28.720703 14.560547 C 28.292828 13.708297 27.740883 12.60099 26.955078 12.667969 z M 21.046875 12.669922 C 20.26107 12.603121 19.709125 13.709172 19.28125 14.560547 C 18.63025 15.853547 17.816734 17.001297 16.677734 17.654297 C 15.862734 18.134297 14.885547 18.307266 14.560547 18.947266 C 13.745547 20.587266 15.374844 22.213844 16.839844 22.214844 C 19.443844 22.214844 20.907656 19.934297 21.722656 17.654297 C 22.048656 16.347297 22.862437 13.413438 21.398438 12.773438 C 21.276312 12.711813 21.159133 12.679465 21.046875 12.669922 z M 24.001953 19 C 23.544953 19 21.401016 24 22.166016 24 C 23.083016 24 23.544953 23 24.001953 23 C 24.458953 23 24.918937 24 25.835938 24 C 26.601938 24 24.458953 19 24.001953 19 z M 23.998047 26 C 21.706047 26 21.001953 26.893 21.001953 28 C 21.001953 28.627 21.825953 31.48 22.001953 34 C 22.001953 36.68 22.940047 40 23.998047 40 C 25.057047 40 26.001953 36.68 26.001953 34 C 26.177953 31.48 27.001953 28.627 27.001953 28 C 27.001953 26.893 26.290047 26 23.998047 26 z M 11.402344 26.494141 C 11.592344 26.747141 11.672391 27.187141 11.775391 27.494141 C 11.945391 27.987141 12.098203 28.479328 12.283203 28.986328 C 12.816203 30.412328 13.460781 31.813156 14.175781 33.160156 C 14.822781 34.387156 15.542719 35.572688 16.386719 36.679688 C 16.650719 37.012688 16.927844 37.319344 17.214844 37.652344 C 17.450844 37.906344 17.819328 38.186141 17.986328 38.494141 C 17.107328 38.534141 15.855359 37.255906 15.318359 36.628906 C 13.649359 34.694906 12.315812 32.027547 11.632812 29.560547 C 11.437813 28.853547 11.023344 27.161141 11.402344 26.494141 z M 24.001953 47 C 16.825953 47 11.001953 47.227812 11.001953 47.507812 C 11.001953 47.773812 16.825953 48 24.001953 48 C 31.177953 48 37.001953 47.774813 37.001953 47.507812 C 37.001953 47.227813 31.177953 47 24.001953 47 z"/></svg>