<svg xmlns="http://www.w3.org/2000/svg"  viewBox="0 0 48 48" width="48px" height="48px"><path d="M 18.681641 6.0019531 C 17.250641 6.0019531 15.870953 6.9089531 15.001953 8.0019531 C 12.574953 8.0019531 10.001953 9.1872187 10.001953 12.574219 C 10.001953 13.854219 10.294844 15.002703 10.714844 16.095703 C 10.308844 16.388703 10.001953 17.174219 10.001953 17.574219 C 10.001953 18.814219 10.202078 20.428359 11.205078 21.068359 C 11.336078 21.521359 11.505453 21.960734 11.689453 22.427734 C 12.331453 24.053734 13.07975 25.534641 13.96875 26.681641 C 13.90475 27.707641 13.732437 28.521687 13.273438 29.054688 C 12.396438 30.067688 10.340984 30.306484 8.2089844 31.146484 C 6.2469844 31.919484 4.0019531 33.2 4.0019531 36 L 4.0019531 47 C 2.9009531 47 0.001953125 47.212187 0.001953125 47.492188 C 0.001953125 47.772187 2.9009531 48 4.0019531 48 L 44.001953 48 C 45.102953 48 48.001953 47.772187 48.001953 47.492188 C 48.001953 47.212187 45.102953 47 44.001953 47 L 44.001953 39.613281 C 44.001953 36.827281 41.815531 36.199453 39.894531 35.439453 C 38.349531 34.812453 36.941844 34.52 35.964844 34 C 35.989844 34.36 36.001953 34.693 36.001953 35 C 36.001953 35.693 35.585703 36.4655 34.845703 36.8125 L 34.763672 36.839844 L 34.634766 37.427734 C 34.374766 38.241734 33.983328 39.001297 33.486328 39.654297 L 33.005859 40.173828 L 33.005859 40.361328 L 33.228516 40.46875 C 35.092516 41.14875 38.001953 41.521953 38.001953 46.001953 L 38.001953 47.001953 L 37.001953 47.001953 L 37.001953 46.001953 C 37.001953 41.614953 33.961953 42.148953 32.001953 41.001953 C 32.001953 40.788953 31.999047 40.267781 31.998047 39.800781 C 33.002047 38.893781 33.716594 37.548953 33.933594 36.001953 L 34.001953 36.001953 C 34.618953 36.001953 35.001953 35.468953 35.001953 35.001953 C 35.001953 32.148953 34.038953 28.001953 31.001953 28.001953 C 30.613953 27.494953 29.745953 27.001953 29.001953 27.001953 C 24.789953 27.001953 23.001953 31.334953 23.001953 35.001953 C 23.001953 35.468953 23.437953 36.001953 24.001953 36.001953 L 24.068359 36.001953 C 24.285359 37.548953 24.997953 38.893781 26.001953 39.800781 C 26.003953 40.267781 26.005859 40.788953 26.005859 41.001953 L 26.001953 41.001953 C 24.041953 42.148953 21.001953 41.614953 21.001953 46.001953 L 21.001953 47.001953 L 20.001953 47.001953 L 20.001953 46.001953 C 20.001953 41.481953 23.035266 41.068406 24.822266 40.441406 L 25.001953 40.361328 L 25.001953 40.1875 L 24.509766 39.654297 C 24.014766 39.000297 23.624234 38.240734 23.365234 37.427734 L 23.234375 36.841797 L 23.193359 36.828125 C 22.465359 36.481125 22.001953 35.721953 22.001953 35.001953 C 22.001953 33.254953 22.391641 31.226203 23.306641 29.533203 C 23.080641 29.386203 22.886469 29.241688 22.730469 29.054688 C 22.270469 28.521688 22.098156 27.708641 22.035156 26.681641 C 22.923156 25.535641 23.671453 24.054734 24.314453 22.427734 C 24.498453 21.960734 24.664875 21.521359 24.796875 21.068359 C 25.798875 20.428359 26.001953 18.814219 26.001953 17.574219 C 26.001953 17.174219 25.691203 16.375703 25.283203 16.095703 C 25.702203 15.002703 25.990234 13.841219 25.990234 12.574219 C 25.990234 8.6142188 21.988641 6.0019531 18.681641 6.0019531 z M 30.529297 9 C 29.079297 9 27.722781 9.3595312 26.550781 10.144531 C 26.833781 10.891531 26.994141 11.692266 26.994141 12.572266 C 26.994141 13.292266 26.910438 13.958328 26.773438 14.611328 L 26.400391 15.851562 L 26.708984 16.371094 C 26.785984 16.544094 26.848484 16.732578 26.896484 16.892578 C 27.819484 15.879578 28.892797 14.958984 29.591797 14.958984 C 30.119797 14.958984 30.582953 15.478047 31.001953 15.998047 C 31.505953 15.625047 32.160672 14.958984 33.013672 14.958984 C 33.976672 14.958984 35.567656 16.239641 36.347656 17.306641 C 36.815656 18.533641 37.015625 19.612422 37.015625 20.732422 C 37.015625 21.452422 36.967859 22.132156 36.880859 22.785156 C 37.135859 21.838156 37.042234 20.986328 37.615234 20.986328 C 37.838234 20.986328 38.027344 21.212109 38.027344 21.412109 C 38.027344 22.572109 37.353719 23.879812 36.636719 24.132812 C 36.175719 26.106813 35.34125 27.692844 34.40625 28.839844 C 34.91625 29.572844 35.274484 30.440656 35.521484 31.347656 C 36.168484 30.787656 36.765953 30.173 37.001953 30 L 37.001953 31 C 37.758953 30.427 38.000953 29.387 38.001953 28 C 38.307953 28.306 38.708203 28.760828 38.908203 29.173828 C 39.821203 27.680828 41.001953 26.667 41.001953 22 C 41.001953 20.64 39.641203 17.534578 38.908203 15.267578 C 38.048203 12.600578 37.313953 10 34.001953 10 C 33.168953 9.053 32.165297 9 30.529297 9 z M 15.001953 11 C 16.616953 11 17.350938 11.333953 18.085938 11.626953 C 18.540937 12.586953 19.330672 13.332891 20.013672 14.212891 L 20.013672 12.572266 C 20.420672 13.666266 20.755328 14.212063 21.611328 15.039062 C 21.343328 14.373062 21.290672 13.854422 21.138672 13.107422 C 21.478672 13.627422 21.856109 13.801844 22.412109 14.214844 C 22.128109 13.640844 21.814875 12.787422 21.671875 12.107422 C 22.861875 12.267422 24.001953 12.626375 24.001953 13.359375 L 24.001953 19 C 24.520953 18 24.697547 17.547937 24.935547 16.960938 L 24.955078 17 C 24.976078 17.08 24.994141 17.186641 24.994141 17.306641 C 24.994141 18.572641 24.757391 19.732141 24.150391 20.119141 C 24.009391 20.213141 23.905328 20.347812 23.861328 20.507812 C 23.745328 20.907812 23.594969 21.292766 23.417969 21.759766 C 22.047969 25.239766 20.321953 27 18.001953 27 C 15.681953 27 13.949125 25.239766 12.578125 21.759766 C 12.401125 21.293766 12.249766 20.907812 12.134766 20.507812 C 12.089766 20.347812 11.987656 20.212141 11.847656 20.119141 C 11.241656 19.733141 11.001953 18.573641 11.001953 17.306641 C 11.001953 17.186641 11.021016 17.08 11.041016 17 L 11.060547 16.960938 C 11.301547 17.547937 11.482953 18 12.001953 19 L 12.001953 13.359375 C 12.001953 12.092375 13.974953 11 15.001953 11 z M 25.164062 23 C 24.856062 23.76 24.521297 24.506219 24.154297 25.199219 L 23.066406 26.919922 L 23.101562 27.292969 C 23.185563 27.866969 23.321234 28.200391 23.490234 28.400391 C 23.577234 28.493391 23.692938 28.586688 23.835938 28.679688 C 24.451938 27.812688 25.240609 27.079609 26.224609 26.599609 C 25.744609 25.572609 25.365063 24.36 25.164062 23 z M 14.867188 27.667969 C 15.773187 28.507969 16.808906 29 18.003906 29 C 19.202906 29 20.242391 28.507969 21.150391 27.667969 C 21.273391 28.400969 21.489141 29.080891 21.869141 29.587891 C 21.234141 31.173891 19.817859 32.000953 18.005859 32.001953 C 16.178859 32.001953 14.764812 31.174219 14.132812 29.574219 C 14.555813 29.027219 14.760188 28.347969 14.867188 27.667969 z M 29.001953 31 C 31.394953 31 31.971828 35.732328 32.923828 35.986328 C 32.555828 38.279328 30.936953 40 29.001953 40 C 26.794953 40 25.001953 37.76 25.001953 35 C 25.001953 32.907 26.650953 31 29.001953 31 z M 27.003906 40.507812 C 27.615906 40.827812 28.290953 41 29.001953 41 C 29.712953 41 30.389953 40.827813 31.001953 40.507812 C 31.001953 40.720812 31.001953 40.893 31.001953 41 C 31.001953 42.107 30.106906 43 29.003906 43 C 27.900906 43 27.003906 42.107 27.003906 41 C 27.003906 40.894 27.003906 40.720813 27.003906 40.507812 z"/></svg>